<svg xmlns="http://www.w3.org/2000/svg" fill="none" viewBox="0 0 24 24"><path fill="currentColor" d="m17.398 1.157-.19.036-.19-.036a.194.194 0 0 1 .38 0"/><path fill="currentColor" fill-rule="evenodd" d="m22.806 6.784.037.19h-.002l-.003.001-.013.002-.018.004-.01.001-.021.004a23 23 0 0 1-1.026.153 4.6 4.6 0 0 1-.517 1.756H20.9a4.3 4.3 0 0 0 .554-1.72c-.352.04-.754.079-1.183.106a3.14 3.14 0 0 1-.805 1.614h-1.292a2.38 2.38 0 0 0 1.298-1.574c-.697.044-1.09.164-1.327.4-.22.22-.339.571-.39 1.174h-1.1c-.055-.598-.174-.949-.393-1.17-.245-.247-.656-.37-1.404-.408a2.38 2.38 0 0 0 1.3 1.578h-.602l-1.47-1.478-.027-.141-.122-.009-.492-.494-.058-.058a3 3 0 0 0-.398-.325c.319-.036.676-.07 1.057-.096a3.15 3.15 0 0 1 2.67-2.666c.029-.43.069-.83.11-1.176a4.31 4.31 0 0 0-3.95 3.863 3 3 0 0 0-.274-.156 4.6 4.6 0 0 1 4.26-4l.01-.066a23 23 0 0 1 .141-.918l.003-.013v-.005l.19.036.19-.036v.002l.001.003.003.013.009.05.032.187c.026.162.063.395.1.681l.01.071a4.6 4.6 0 0 1 4.204 4.266 26 26 0 0 1 1.069.161l.013.003h.004zm-1.343-.39c-.351-.04-.75-.078-1.178-.106A3.15 3.15 0 0 0 17.7 3.641c-.03-.431-.07-.833-.111-1.182a4.31 4.31 0 0 1 3.874 3.936Zm-1.97-.146a2.38 2.38 0 0 0-1.753-1.81c.04.75.16 1.162.406 1.409.24.239.637.359 1.346.401ZM16.674 4.42a2.38 2.38 0 0 0-1.835 1.833c.762-.038 1.18-.158 1.429-.406.248-.249.369-.667.406-1.427" clip-rule="evenodd"/><path fill="currentColor" d="m22.806 6.784.037.19a.193.193 0 0 0 0-.38zm-7.69 3.849h.038z"/><path fill="currentColor" fill-rule="evenodd" d="M12.211 7.998a1.55 1.55 0 0 0-1.098-.456h-9.34A.773.773 0 0 0 1 8.315v13.912c0 .427.346.773.774.773h20.12a.773.773 0 0 0 .773-.773v-10.82a.774.774 0 0 0-.773-.774h-6.74a.77.77 0 0 1-.549-.228zM2.548 19.14c0-.427.346-.773.774-.773h9.285c.428 0 .774.346.774.773v1.546a.773.773 0 0 1-.774.773H3.322a.773.773 0 0 1-.774-.773zM7.19 9.567c0-.214.173-.387.387-.387h.773c.214 0 .387.173.387.387v5.099l2.56-2.558a.387.387 0 0 1 .548 0l.547.547a.386.386 0 0 1 0 .546l-4.155 4.15a.387.387 0 0 1-.547 0l-4.18-4.174a.386.386 0 0 1 0-.546l.548-.547a.387.387 0 0 1 .547 0l2.585 2.582z" clip-rule="evenodd"/></svg>