<svg xmlns="http://www.w3.org/2000/svg" fill="none" viewBox="0 0 16 16"><path fill="currentColor" d="M5.193 12.032a.256.256 0 0 1 .303.1l1.37 2.096a.25.25 0 0 1-.132.372l-1.102.373a.516.516 0 0 1-.595-.201l-1.26-1.903a.25.25 0 0 1 .126-.372zm.043-7.099a.258.258 0 0 1 .447-.008l3.36 5.705a.25.25 0 0 1-.23.375l-3.585-.12-2.618 1.092a.516.516 0 0 1-.644-.212l-.9-1.547a.495.495 0 0 1 .149-.656L3.64 7.87zm2.258-2.418a.26.26 0 0 1 .35.092l4.27 7.25a.25.25 0 0 1-.093.343l-.886.501a.26.26 0 0 1-.349-.092l-4.27-7.25a.25.25 0 0 1 .093-.343zm7.251 4.444c.14 0 .255.112.255.25v.501c0 .139-.115.25-.257.25H12.7a.253.253 0 0 1-.255-.25v-.5c0-.139.115-.251.256-.251zm-1.509-3.224a.26.26 0 0 1 .35.091l.255.435c.07.12.029.272-.094.341l-1.77 1.002a.26.26 0 0 1-.348-.09l-.256-.435a.247.247 0 0 1 .094-.342zm-2.316-2.61a.26.26 0 0 1 .35-.092l.442.25c.123.07.164.223.093.343l-1.02 1.736a.26.26 0 0 1-.35.09l-.443-.25a.247.247 0 0 1-.093-.341z"/></svg>