<svg xmlns="http://www.w3.org/2000/svg" fill="none" viewBox="0 0 16 16"><path fill="currentColor" d="M6.922 5.79c-1.042.129-1.94.5-2.605 1.046a3.55 3.55 0 0 0-1.308 2.397.536.536 0 0 1-.526.478h-1c-.276 0-.502-.215-.482-.478A5.44 5.44 0 0 1 3.017 5.38c1.03-.843 2.354-1.352 3.79-1.504L5.363 2.492a.464.464 0 0 1 .001-.678l.71-.675a.516.516 0 0 1 .705.001l3.562 3.41a.464.464 0 0 1 0 .676L6.776 8.638a.516.516 0 0 1-.706 0l-.709-.674a.464.464 0 0 1-.001-.678zm6.068.91a3.55 3.55 0 0 1-1.307 2.397c-.645.528-1.509.894-2.51 1.032l1.478-1.415a.464.464 0 0 0 0-.678l-.71-.675a.516.516 0 0 0-.706.001l-3.561 3.41a.464.464 0 0 0 0 .677l3.563 3.41c.195.187.51.188.706.002l.71-.675a.464.464 0 0 0 0-.678l-1.51-1.446c1.455-.146 2.798-.657 3.84-1.51A5.44 5.44 0 0 0 14.999 6.7c.02-.264-.206-.479-.482-.479h-1a.536.536 0 0 0-.526.478Z"/></svg>