<svg xmlns="http://www.w3.org/2000/svg" fill="none" viewBox="0 0 16 16"><path fill="currentColor" d="M5.122 3.467a5.3 5.3 0 0 0-.164 1.312 5.266 5.266 0 0 0 6.447 5.134v4.684a.39.39 0 0 1-.696.239L7.04 10.094a.39.39 0 0 0-.614-.002L2.695 14.85A.39.39 0 0 1 2 14.61V3.986a.52.52 0 0 1 .519-.519z"/><path fill="currentColor" fill-rule="evenodd" d="M10.238 1A3.764 3.764 0 0 1 14 4.765a3.764 3.764 0 0 1-3.762 3.766 3.764 3.764 0 0 1-3.762-3.766A3.764 3.764 0 0 1 10.238 1m2.344 2.177a.52.52 0 0 0-.734 0L9.742 5.285l-.948-.949a.52.52 0 0 0-.734 0l-.366.367a.52.52 0 0 0 0 .735l1.674 1.676a.52.52 0 0 0 .734 0l.079-.078a.5.5 0 0 0 .076-.063l2.692-2.694a.52.52 0 0 0 0-.735z" clip-rule="evenodd"/></svg>