<svg xmlns="http://www.w3.org/2000/svg" fill="none" viewBox="0 0 24 24"><path fill="currentColor" fill-rule="evenodd" d="M12.253 1.437s.009.308.034.765c2.334.157 4.195 2.075 4.312 4.46.492.029.831.038.831.038s.415.024.415.24c0 .215-.415.24-.415.24s-.34.005-.836.03c-.15 2.34-1.982 4.213-4.278 4.382-.02.502-.02.846-.02.846s-.013.422-.224.428c-.214.006-.246-.42-.246-.42s-.012-.344-.044-.845c-2.364-.1-4.27-2.002-4.423-4.39-.45-.025-.754-.031-.754-.031s-.415-.025-.415-.24c0-.216.415-.24.415-.24s.302-.011.75-.04c.117-2.41 2.018-4.343 4.388-4.463.028-.454.039-.76.039-.76s.024-.422.236-.422c.211 0 .235.422.235.422m.71 4.542c.193.197.726.342 1.36.448a2.42 2.42 0 0 0-1.812-1.9c.105.674.25 1.248.451 1.452Zm-.558-2.276c1.433.197 2.562 1.367 2.722 2.835.41.046.82.08 1.178.104-.124-2.205-1.841-3.977-4-4.141.023.361.055.78.1 1.202m.557 4.197c.206-.209.729-.358 1.347-.464a2.42 2.42 0 0 1-1.793 1.832c.098-.628.24-1.159.446-1.368m2.157-.575c-.186 1.433-1.298 2.57-2.705 2.767-.04.417-.067.836-.085 1.201 2.123-.173 3.815-1.903 3.972-4.067-.36.022-.772.053-1.182.099m-4.051.58c.201.204.351.744.462 1.383a2.41 2.41 0 0 1-1.887-1.854c.656.107 1.216.258 1.425.47Zm.58 2.2c-1.458-.153-2.622-1.31-2.814-2.779a26 26 0 0 0-1.182-.099c.16 2.21 1.922 3.966 4.109 4.075a27 27 0 0 0-.113-1.197m-.575-4.126c-.191.195-.767.34-1.443.448a2.415 2.415 0 0 1 1.883-1.916c-.105.688-.248 1.274-.44 1.468m-2.247.555c.165-1.49 1.328-2.672 2.792-2.84.046-.42.08-.838.105-1.198C9.53 2.624 7.774 4.41 7.648 6.64c.354-.025.765-.06 1.178-.106" clip-rule="evenodd"/><path fill="currentColor" d="M4.914 1.524a.145.145 0 0 1 .282 0l.332 1.256a.15.15 0 0 0 .103.105l1.236.338c.144.04.144.247 0 .287l-1.236.338a.15.15 0 0 0-.103.105l-.332 1.256a.145.145 0 0 1-.282 0L4.58 3.953a.15.15 0 0 0-.103-.105L3.243 3.51c-.144-.04-.144-.247 0-.287l1.235-.338a.15.15 0 0 0 .103-.105zM19.161 3.82a.097.097 0 0 0-.188 0l-.221.838a.1.1 0 0 1-.07.07l-.823.225c-.096.027-.096.165 0 .191l.824.226c.033.01.06.036.069.07l.221.837a.097.097 0 0 0 .188 0l.222-.837a.1.1 0 0 1 .069-.07l.823-.226c.096-.026.096-.164 0-.19l-.823-.226a.1.1 0 0 1-.069-.07zM3.469 7.392a.097.097 0 0 0-.189 0l-.114.444a.1.1 0 0 1-.068.07l-.434.122c-.096.027-.096.164 0 .191l.434.122c.033.01.06.036.068.07l.114.444a.097.097 0 0 0 .189 0l.114-.444a.1.1 0 0 1 .068-.07l.434-.122c.095-.027.095-.164 0-.19l-.434-.123a.1.1 0 0 1-.068-.07zm10.149 15.371V16.79l1.267 1.29c.13.13.365.166.526.08l4.437-2.4v3.636a.72.72 0 0 1-.344.581l-5.542 2.997c-.19.103-.344.009-.344-.21Zm2.062-6.719 4.104-2.22.064.065v-.1l1.487-.804c.19-.102.22-.31.068-.465l-2.373-2.415a.55.55 0 0 0-.62-.094l-5.655 3.059c-.19.102-.22.31-.068.465l2.373 2.415c.152.154.43.196.62.094m-5.176 6.719v-6.01l-1.292 1.314a.47.47 0 0 1-.526.08L4.272 15.76v3.633c0 .219.154.48.344.582l5.545 2.998c.19.103.343.009.343-.21m.902-9.228c.152-.154.121-.363-.069-.466L5.59 9.961a.55.55 0 0 0-.619.095L2.597 12.47c-.152.154-.122.363.068.465l5.748 3.109c.19.102.467.06.619-.095z"/></svg>