<svg xmlns="http://www.w3.org/2000/svg" fill="none" viewBox="0 0 24 24"><path fill="currentColor" d="M13.453 1.794A.795.795 0 0 0 12.66 1h-1.193a.795.795 0 0 0-.795.794v4.523l-1.41-1.41a.795.795 0 0 0-1.125 0l-.843.843a.794.794 0 0 0 0 1.123l4.153 4.15c.31.31.813.31 1.124 0l4.127-4.125a.794.794 0 0 0 0-1.124l-.843-.842a.795.795 0 0 0-1.124 0l-1.277 1.276V1.794Zm-2.13 11.226c.194.103.225.313.07.468L8.97 15.91a.57.57 0 0 1-.632.095l-5.868-3.12c-.194-.102-.226-.311-.07-.466l2.423-2.423a.57.57 0 0 1 .632-.094l5.87 3.118Zm1.448 0c-.194.103-.225.313-.07.468l2.424 2.422a.57.57 0 0 0 .632.095l4.19-2.227.066.065v-.1l1.518-.807c.194-.103.226-.312.07-.467l-2.424-2.423a.57.57 0 0 0-.631-.094L12.77 13.02Zm.881 9.728v-5.995l1.294 1.293a.485.485 0 0 0 .537.08l4.53-2.407v3.648c0 .22-.157.48-.35.584l-5.66 3.007c-.194.103-.351.009-.351-.21m-3.179-6.032v6.032c0 .219-.158.313-.351.21L4.46 19.95a.73.73 0 0 1-.35-.584V15.72l4.506 2.395a.485.485 0 0 0 .538-.08z"/></svg>