<svg xmlns="http://www.w3.org/2000/svg" fill="none" viewBox="0 0 24 24"><path fill="currentColor" fill-rule="evenodd" d="M18.256 1.423c.056-.01.076-.041.076-.114 0-.098-.037-.126-.145-.126q-.066 0-.136.005-.007 0-.006.006v.363q-.002.007.007.006h.068q.007.002.006-.006v-.13h.042l.083.128q.004.01.016.009h.07q.01-.001.004-.008zm-.077-.055h-.053v-.116h.053c.054 0 .07.013.07.06s-.016.056-.07.056" clip-rule="evenodd"/><path fill="currentColor" fill-rule="evenodd" d="M18.18 1c-.258 0-.376.117-.376.372 0 .256.118.373.376.373.259 0 .377-.117.377-.373 0-.255-.118-.372-.377-.372m0 .055c.22 0 .32.1.32.317 0 .218-.1.317-.32.317s-.32-.098-.32-.317.1-.317.32-.317" clip-rule="evenodd"/><path fill="currentColor" d="m5.524 5.01-.312-1.325 3.67 1.11a3.8 3.8 0 0 0-.54 1.067zm.353 1.499L5.58 5.253l2.702.817a3.7 3.7 0 0 0-.109 1.133l-2.297-.694Zm.336 1.429-.279-1.185 2.26.683c.05.429.174.836.358 1.209zm12.239-2.926.312-1.325-3.67 1.11c.234.321.418.68.54 1.067zM18.1 6.511l.294-1.255-2.7.817a3.7 3.7 0 0 1 .108 1.133L18.1 6.51Zm-.337 1.429.279-1.185-2.26.683c-.051.43-.175.837-.36 1.21l2.34-.707Z"/><path fill="currentColor" fill-rule="evenodd" d="M11.993 10.552c1.99 0 3.602-1.595 3.602-3.562s-1.613-3.561-3.602-3.561c-1.99 0-3.603 1.594-3.603 3.561s1.613 3.562 3.603 3.562m1.817-6.067h-.08v1.338L12.055 7.8v1.225h.795v-.937l1.681-1.982v-.907a.716.716 0 0 0-.72-.713Zm-.338.69v-.69h-.7a.716.716 0 0 0-.72.713v.625h.797v-.648zm-2.076-.69H10.6v4.539h.797v-.89h.398v-.69h-.398v-2.96Zm-1.058.393L8.935 6.99v1.143h1.405v-.69h-.706V7.2l.704-1.062zm4.19 4.146v-.691h-1.42v.69h1.42Z" clip-rule="evenodd"/><path fill="currentColor" d="M8.068 8.88a4.37 4.37 0 0 0 3.327 2.388v-.117a4.25 4.25 0 0 1-3.171-2.224zm4.52 2.39a4.37 4.37 0 0 0 3.339-2.393l-.156.047a4.25 4.25 0 0 1-3.183 2.228zm2.838-6.955a4.38 4.38 0 0 0-2.838-1.604v.117a4.26 4.26 0 0 1 2.717 1.523zm-6.86.002a4.38 4.38 0 0 1 2.83-1.605v.118a4.26 4.26 0 0 0-2.71 1.523z"/><path fill="currentColor" d="M9.446 10.095a4.06 4.06 0 0 0 2.547.893c.966 0 1.852-.335 2.547-.893l-.138-.168a3.84 3.84 0 0 1-2.409.844 3.84 3.84 0 0 1-2.409-.844zm2.548-7.103c.966 0 1.852.335 2.547.893l-.138.168a3.84 3.84 0 0 0-2.409-.844c-.913 0-1.751.317-2.41.845l-.137-.169a4.06 4.06 0 0 1 2.547-.893"/><path fill="currentColor" d="M16.569 1.702V3.97l-.82.248a4.7 4.7 0 0 0-3.756-1.862 4.7 4.7 0 0 0-3.75 1.854l-.827-.25V1.702h9.152Z"/><path fill="currentColor" fill-rule="evenodd" d="M6.737 1.019h10.53v2.416l2.43-.73-1.354 5.785-1.754.526a5.02 5.02 0 0 1-4.594 2.97c-2.06 0-3.83-1.23-4.6-2.986l-1.762-.528L4.28 2.687l2.458.739V1.019Zm.313 2.825L4.707 3.14l1.191 5.087 1.73.518a4.7 4.7 0 0 0 4.367 2.93 4.7 4.7 0 0 0 4.361-2.914l1.722-.516 1.191-5.087-2.315.696V1.329H7.05z" clip-rule="evenodd"/><path fill="currentColor" d="M11.406 13.785c.152-.15.121-.353-.069-.453L5.59 10.311a.56.56 0 0 0-.619.091l-2.373 2.347c-.152.15-.122.353.068.453l5.748 3.021c.19.1.467.059.619-.091zm1.281 0c-.152-.15-.122-.353.068-.453l5.656-2.973c.19-.1.466-.059.618.091l2.374 2.347c.152.15.122.353-.068.453l-1.487.782v.097l-.064-.063-4.105 2.157a.56.56 0 0 1-.619-.091zm.931 3.163v5.807c0 .213.154.304.344.205l5.542-2.914c.19-.1.344-.353.344-.565v-3.535L15.41 18.28a.48.48 0 0 1-.526-.078l-1.267-1.253Zm-3.114 5.807v-5.842L9.212 18.19a.48.48 0 0 1-.526.078l-4.414-2.32v3.531c0 .213.154.466.344.566l5.545 2.915c.19.1.343.008.343-.205"/></svg>