<svg xmlns="http://www.w3.org/2000/svg" fill="none" viewBox="0 0 16 16"><path fill="currentColor" fill-rule="evenodd" d="M11 3H5V1.25A.25.25 0 0 0 4.75 1h-1.5a.25.25 0 0 0-.25.25V3H1.5a.5.5 0 0 0-.5.5v11a.5.5 0 0 0 .5.5h13a.5.5 0 0 0 .5-.5v-11a.5.5 0 0 0-.5-.5H13V1.25a.25.25 0 0 0-.25-.25h-1.5a.25.25 0 0 0-.25.25zM4.75 7A.25.25 0 0 0 5 6.75v-1.5A.25.25 0 0 0 4.75 5h-1.5a.25.25 0 0 0-.25.25v1.5c0 .138.112.25.25.25zm0 3A.25.25 0 0 0 5 9.75v-1.5A.25.25 0 0 0 4.75 8h-1.5a.25.25 0 0 0-.25.25v1.5c0 .138.112.25.25.25zm-1.5 3a.25.25 0 0 1-.25-.25v-1.5a.25.25 0 0 1 .25-.25h1.5a.25.25 0 0 1 .25.25v1.5a.25.25 0 0 1-.25.25zm5.5-6A.25.25 0 0 0 9 6.75v-1.5A.25.25 0 0 0 8.75 5h-1.5a.25.25 0 0 0-.25.25v1.5c0 .138.112.25.25.25zm0 3A.25.25 0 0 0 9 9.75v-1.5A.25.25 0 0 0 8.75 8h-1.5a.25.25 0 0 0-.25.25v1.5c0 .138.112.25.25.25zm-1.5 3a.25.25 0 0 1-.25-.25v-1.5a.25.25 0 0 1 .25-.25h1.5a.25.25 0 0 1 .25.25v1.5a.25.25 0 0 1-.25.25zM13 6.75a.25.25 0 0 1-.25.25h-1.5a.25.25 0 0 1-.25-.25v-1.5a.25.25 0 0 1 .25-.25h1.5a.25.25 0 0 1 .25.25zm0 3a.25.25 0 0 1-.25.25h-1.5a.25.25 0 0 1-.25-.25v-1.5a.25.25 0 0 1 .25-.25h1.5a.25.25 0 0 1 .25.25zm-2 3c0 .138.112.25.25.25h1.5a.25.25 0 0 0 .25-.25v-1.5a.25.25 0 0 0-.25-.25h-1.5a.25.25 0 0 0-.25.25z" clip-rule="evenodd"/></svg>