<svg xmlns="http://www.w3.org/2000/svg" fill="none" viewBox="0 0 16 16"><path fill="currentColor" d="M6.71 9.48c.095 0 .188.029.266.083l1.535 1.053c.257.176.41.468.41.78v.919l-.196 2.401a.473.473 0 0 1-.47.434H1.676a.473.473 0 0 1-.471-.434l-.196-2.401v-.92a.95.95 0 0 1 .41-.78l1.535-1.052a.47.47 0 0 1 .267-.083zM10.801.326a4.4 4.4 0 0 1 1.281.025.295.295 0 0 1 .244.293l.003.319a.33.33 0 0 0 .224.303q.441.156.818.413a.33.33 0 0 0 .372.004l.273-.19a.296.296 0 0 1 .376.026c.307.298.569.64.776 1.015a.296.296 0 0 1-.077.373l-.25.202a.33.33 0 0 0-.097.364q.152.44.185.918a.33.33 0 0 0 .23.297l.312.093c.137.04.23.17.215.313l-.01.084-.008.056a4.3 4.3 0 0 1-.302 1.095c-.056.132-.2.2-.338.17l-.178-.04a.4.4 0 0 1-.16-.078l-1.082-.903c-.312-.261-.41-.688-.407-1.094q.002-.132-.013-.266a2.18 2.18 0 0 0-2.58-1.9q-.082.016-.168.026c-.123.014-.194.195-.099.274l1.272 1.062a.25.25 0 0 1 .03.349l-.951 1.14a.25.25 0 0 1-.349.03L9.091 4.055c-.097-.08-.27.028-.26.154q.007.081.007.162 0 .116.014.233a2.18 2.18 0 0 0 2.547 1.906c.392-.069.82-.043 1.125.213l1.082.904q.072.06.107.147l.071.176a.296.296 0 0 1-.112.364c-.36.226-.756.4-1.173.512a.296.296 0 0 1-.34-.16l-.149-.299a.33.33 0 0 0-.326-.177 3.6 3.6 0 0 1-.909-.035.33.33 0 0 0-.342.157l-.158.28a.296.296 0 0 1-.354.138 4.3 4.3 0 0 1-1.135-.6.296.296 0 0 1-.087-.366l.143-.302a.33.33 0 0 0-.066-.366 3.6 3.6 0 0 1-.523-.704.33.33 0 0 0-.335-.168l-.322.052a.296.296 0 0 1-.329-.189 4.3 4.3 0 0 1-.246-1.26.296.296 0 0 1 .231-.298l.335-.08a.31.31 0 0 0 .23-.264q.06-.45.218-.854a.33.33 0 0 0-.08-.364l-.244-.223a.296.296 0 0 1-.06-.373c.227-.37.505-.7.825-.984a.296.296 0 0 1 .38-.006l.255.2a.33.33 0 0 0 .375.014c.25-.154.521-.279.805-.368a.33.33 0 0 0 .234-.288l.022-.334a.296.296 0 0 1 .254-.278M4.978 3.744c.492 0 .946.159 1.315.427a5.1 5.1 0 0 0 .654 2.873 2.237 2.237 0 1 1-1.969-3.3"/></svg>