<svg xmlns="http://www.w3.org/2000/svg" fill="none" viewBox="0 0 16 16"><path fill="currentColor" fill-rule="evenodd" d="M15 2.003a.5.5 0 0 0-.5-.503h-13c-.276 0-.5.225-.5.503v9.057c0 .277.224.503.5.503h7.875l2.771 2.789a.5.5 0 0 0 .854-.356v-2.433h1.5c.276 0 .5-.226.5-.503zM4.5 7.538c.276 0 .5-.226.5-.503V6.028a.5.5 0 0 0-.5-.503h-1c-.276 0-.5.225-.5.503v1.007c0 .277.224.503.5.503zM9 7.035a.5.5 0 0 1-.5.503h-1a.5.5 0 0 1-.5-.503V6.028c0-.278.224-.503.5-.503h1c.276 0 .5.225.5.503zm3.5.503c.276 0 .5-.226.5-.503V6.028a.5.5 0 0 0-.5-.503h-1c-.276 0-.5.225-.5.503v1.007c0 .277.224.503.5.503z" clip-rule="evenodd"/></svg>