<svg xmlns="http://www.w3.org/2000/svg" fill="none" viewBox="0 0 16 16"><path fill="currentColor" d="M7.77 12.771c.035 0 .07 0 .087.017.018.017.035.034.035.067-.017.101-.087.253-.208.438a1.56 1.56 0 0 1-.675.522 2.8 2.8 0 0 1-.813.185H5.92c-.173 0-.346-.034-.502-.05-.138-.034-.276-.051-.363-.068h-.017c-.035-.017-.07-.034-.087-.05-.017-.034-.034-.05-.017-.068.07-.084.19-.202.38-.336.087-.068.208-.135.33-.202.12-.068.276-.118.432-.169.087-.033.173-.05.242-.067.087-.017.173-.034.243-.05.086-.018.155-.034.242-.034.086-.017.156-.034.242-.034.312-.067.571-.084.727-.101m.458 0c.155.017.414.034.726.101.086 0 .156.017.242.034.087 0 .156.016.242.033.07.017.156.034.243.05.069.018.155.035.242.068.156.05.311.101.433.169.12.067.242.134.328.202.19.134.312.252.381.336.017.017 0 .034-.017.068a.4.4 0 0 1-.087.05h-.017c-.087.017-.225.034-.363.068-.156.016-.33.05-.502.05h-.277a2.8 2.8 0 0 1-.813-.185 1.56 1.56 0 0 1-.675-.522c-.122-.185-.19-.337-.208-.438 0-.033.017-.05.035-.067.017-.017.052-.017.086-.017M4.23 11.597c.202 0 .404.043.607.065.112.022.225.022.315.044s.18.044.27.044c.36.087.674.175.854.219a.3.3 0 0 1 .09.065.065.065 0 0 1 0 .088 1.8 1.8 0 0 1-.427.416c-.225.153-.54.284-.99.328-.225 0-.45 0-.675-.044l-.337-.065c-.113-.022-.203-.066-.315-.11a5.7 5.7 0 0 1-.922-.46s-.023 0-.023-.021c-.022-.022-.067-.066-.068-.088-.022-.044 0-.066.023-.087.112-.066.292-.176.562-.263s.608-.131 1.035-.131m7.541 0c.428 0 .766.043 1.036.13s.45.198.562.264c.022.021.045.043.022.087 0 .022-.045.066-.067.088 0 .021-.022.021-.023.021a5.7 5.7 0 0 1-.922.46c-.112.044-.202.088-.315.11l-.337.065c-.225.044-.45.044-.675.044-.45-.044-.765-.175-.99-.328a1.8 1.8 0 0 1-.427-.416.065.065 0 0 1 0-.088.3.3 0 0 1 .09-.065c.18-.044.495-.132.854-.22.09 0 .18-.021.27-.043s.203-.022.315-.044c.203-.022.405-.065.608-.065M1.99 9.684c.135 0 .27.022.427.043.068.022.158.022.248.066.09.022.18.044.27.088.09.022.18.065.27.11.09.043.18.087.247.109.157.087.337.175.472.262s.293.175.405.24c.135.066.225.11.293.154.022.022.067.044.067.088 0 .022 0 .065-.022.065-.09.066-.27.175-.495.241-.248.066-.563.088-.967 0a3.4 3.4 0 0 1-1.08-.569 1.6 1.6 0 0 0-.225-.175l-.18-.175c-.113-.11-.203-.219-.27-.285 0 0 0-.022-.023-.022a.17.17 0 0 1-.045-.109c0-.044 0-.066.045-.066.113-.022.315-.065.563-.065m12.02 0c.248 0 .45.043.563.065.045 0 .045.022.045.066a.17.17 0 0 1-.045.11c-.023 0-.023.02-.023.021-.067.066-.157.175-.27.285l-.18.175a1.6 1.6 0 0 0-.225.175c-.315.24-.697.46-1.08.57-.405.087-.72.065-.967 0a1.7 1.7 0 0 1-.495-.242c-.022 0-.022-.043-.022-.065 0-.044.045-.066.067-.088.068-.044.158-.088.293-.153.112-.066.27-.153.405-.24.134-.088.314-.176.472-.263.068-.022.157-.066.247-.11s.18-.087.27-.11c.09-.043.18-.065.27-.087.09-.044.18-.044.248-.066.157-.021.292-.043.427-.043M1.055 7.422c.202 0 .742.088 1.282.504.135.11.27.219.383.35.135.11.225.24.337.35q.17.165.27.328c.135.044.18.132.225.197a.16.16 0 0 1 .045.088c0 .022-.022.044-.045.065-.09.022-.292.066-.517.066a1.53 1.53 0 0 1-.833-.263 2.7 2.7 0 0 1-.787-.787 4 4 0 0 1-.405-.745v-.021c0-.044-.022-.066 0-.088 0-.044.022-.044.045-.044m13.89 0c.022 0 .045 0 .045.044.022.022 0 .044 0 .088v.021c-.068.154-.203.46-.405.745a2.7 2.7 0 0 1-.787.787 1.53 1.53 0 0 1-.833.263c-.225 0-.427-.044-.517-.066-.023-.021-.045-.043-.045-.065s.022-.066.045-.088c.045-.065.09-.153.225-.197q.1-.165.27-.328c.112-.11.202-.24.337-.35.113-.131.248-.24.383-.35.54-.416 1.08-.504 1.282-.504M1.334 5.223c.18.044.63.24 1.012.744.36.525.585 1.182.697 1.423.023.044.023.065 0 .087 0 .022-.022.044-.045.044-.09 0-.27 0-.472-.087a1.43 1.43 0 0 1-.652-.438 1.7 1.7 0 0 1-.27-.416c-.045-.066-.068-.153-.113-.219-.022-.087-.067-.153-.09-.24-.112-.307-.135-.591-.157-.745v-.022c0-.043 0-.065.022-.087.023-.022.045-.044.068-.044m13.332 0c.023 0 .045.022.068.044.022.022.022.044.022.087v.022c-.022.154-.045.438-.157.744-.023.088-.068.154-.09.241-.045.066-.068.153-.113.22a1.7 1.7 0 0 1-.27.415 1.43 1.43 0 0 1-.652.438c-.202.087-.382.087-.472.087-.023 0-.045-.022-.045-.044-.023-.022-.023-.043 0-.087.112-.24.337-.898.697-1.423.383-.503.832-.7 1.012-.744M2.374 3.66c.067.044.202.131.337.263.135.153.27.35.383.612.202.526.224 1.138.247 1.38 0 .043 0 .065-.023.087-.022.022-.045.022-.067.022a1.1 1.1 0 0 1-.382-.175 2 2 0 0 1-.248-.22.4.4 0 0 1-.112-.153.7.7 0 0 1-.09-.175 1.5 1.5 0 0 1-.135-.415c-.023-.066-.023-.154-.045-.22-.023-.065 0-.153-.023-.218 0-.285.023-.547.045-.679v-.021c0-.022.023-.066.045-.066.023-.022.045-.022.068-.022m11.252 0c.023 0 .045 0 .068.022.022 0 .045.044.045.066v.021a4.6 4.6 0 0 1 .045.679c-.023.065 0 .153-.023.219-.022.065-.022.153-.045.219a1.5 1.5 0 0 1-.135.415.7.7 0 0 1-.09.175.4.4 0 0 1-.112.154c-.09.087-.157.153-.247.219a1.1 1.1 0 0 1-.383.175c-.023 0-.045 0-.068-.022-.022-.022-.022-.044-.022-.088.023-.24.045-.853.247-1.379a2.3 2.3 0 0 1 .383-.612c.135-.132.27-.22.337-.263m-1.493-1.238q.028-.037.066-.01c.026.02.029.04.054.06l.003.021c.06.102.159.31.26.54.003.021.031.061.034.083.026.019.03.04.035.084a.6.6 0 0 1 .05.192c.02.13.038.26.035.393a1.1 1.1 0 0 1-.065.34.9.9 0 0 1-.122.26c-.092.145-.194.225-.255.278q-.028.036-.067.009c-.022.003-.05-.037-.053-.06-.057-.234-.244-.74-.268-1.222a1.46 1.46 0 0 1 .293-.968M3.8 2.413q.038-.03.068.009c.095.123.319.463.292.968-.024.483-.21.988-.267 1.223-.004.022-.032.062-.054.059q-.039.027-.067-.01c-.06-.052-.163-.132-.256-.277a.9.9 0 0 1-.121-.26 1.1 1.1 0 0 1-.065-.34 2.3 2.3 0 0 1 .034-.393.6.6 0 0 1 .05-.192c.007-.044.01-.065.035-.084.004-.022.032-.062.035-.084.101-.229.2-.437.26-.539l.003-.022c.025-.018.028-.04.054-.058M5.414 2c.026 0 .053.026.054.026 0 .053.027.158.027.29 0 .13-.054.288-.135.472-.19.368-.54.656-.675.788-.027.026-.054.026-.081.026s-.054 0-.054-.026a.7.7 0 0 1-.054-.29v-.235c0-.08.027-.184.08-.263.19-.368.568-.683.73-.762h.027c.027 0 .054-.026.08-.026m5.173 0c.027 0 .054.026.081.026h.027c.162.079.54.394.73.762a.5.5 0 0 1 .08.263v.236a.7.7 0 0 1-.054.289c0 .026-.027.026-.054.026s-.054 0-.08-.026c-.136-.132-.487-.42-.676-.788-.08-.184-.135-.342-.135-.473s.027-.236.027-.289c0 0 .027-.026.054-.026"/></svg>