<svg xmlns="http://www.w3.org/2000/svg" fill="none" viewBox="0 0 16 16"><path fill="currentColor" d="M15.063 2.56a.5.5 0 0 0 0-.706l-.707-.708a.5.5 0 0 0-.707 0l-3.554 3.555V2.576a.5.5 0 0 0-.502-.5l-1 .003a.5.5 0 0 0-.498.5v5.036a.5.5 0 0 0 .5.5h5.039a.5.5 0 0 0 .5-.498l.003-1a.5.5 0 0 0-.5-.502H11.51zm-8.977 8.978L2.56 15.063a.5.5 0 0 1-.707 0l-.708-.707a.5.5 0 0 1 0-.707l3.526-3.525H2.546a.5.5 0 0 1-.5-.502l.004-1a.5.5 0 0 1 .5-.498h5.036a.5.5 0 0 1 .5.5v5.04a.5.5 0 0 1-.498.5l-1 .002a.5.5 0 0 1-.502-.5z"/></svg>