<svg xmlns="http://www.w3.org/2000/svg" fill="none" viewBox="0 0 16 16"><path fill="currentColor" d="m12.682 12.29-.943-.928-1.008.116-1.673-1.645.416-.8-2.192-2.159-1.327-.092-1.21-1.19a3 3 0 0 0-.335-.286L2.417 3.937c-.29-.19-1.14-.753-1.365-.53-.225.22.347 1.05.54 1.335l1.383 1.954q.146.193.319.363L4.48 8.225l.092 1.308 2.192 2.158.824-.41 1.666 1.64-.065.943.944.928.697-.321.537.529 1.474-1.443-.54-.53.38-.733zm2.068-3.453-.387-.38.298-.572-.725-.713-.788.09-1.302-1.28.325-.627-1.684-1.657-1.037-.073-.92-.906a2.4 2.4 0 0 0-.258-.22l-1.53-1.052c-.222-.146-.876-.578-1.05-.408s.268.807.415 1.025L7.17 3.566q.113.146.245.278l.904.89.071 1.017 1.684 1.658.641-.32-.008-.008 1.307 1.286-.05.734.725.714.543-.251.386.378 1.132-1.11z"/></svg>