<svg xmlns="http://www.w3.org/2000/svg" fill="none" viewBox="0 0 16 16"><path fill="currentColor" fill-rule="evenodd" d="M1.5 2c-.276 0-.5.226-.5.506v8.093c0 .28.224.506.5.506H10l2.34 2.762c.227.267.66.105.66-.247v-2.515h1.5c.276 0 .5-.227.5-.506V2.506A.503.503 0 0 0 14.5 2zm2 5.058c-.276 0-.5.227-.5.506v1.012c0 .279.224.505.5.505h9c.276 0 .5-.226.5-.505V7.564a.503.503 0 0 0-.5-.506zM3 4.53c0-.28.224-.506.5-.506h9c.276 0 .5.227.5.506v1.012c0 .28-.224.506-.5.506h-9A.503.503 0 0 1 3 5.54V4.529Z" clip-rule="evenodd"/></svg>