<svg xmlns="http://www.w3.org/2000/svg" fill="none" viewBox="0 0 16 16"><path fill="currentColor" fill-rule="evenodd" d="M13.014 1a2 2 0 1 1-1.435 3.393l-4.314 4.37H4.849q-.057.14-.134.266l3.422 3.422h2.566l-3-3h2.121l1.967 1.967a2 2 0 1 1-.537 2.534H7.516L3.5 9.936q-.239.062-.5.064a2 2 0 1 1 1.86-2.736h1.778L10.4 3.45H7.765L5.85 5.39H3.743l3.395-3.44h4.172c.353-.57.984-.951 1.704-.951m0 11a1 1 0 1 0 0 2 1 1 0 0 0 0-2M3 7a1 1 0 1 0 0 2 1 1 0 0 0 0-2m10.014-5a1 1 0 1 0 0 2 1 1 0 0 0 0-2" clip-rule="evenodd"/><path fill="currentColor" d="M12.25 6.137c.066-.247.416-.247.483 0l.291 1.082a.25.25 0 0 0 .177.176l1.081.291c.247.067.247.417 0 .483l-1.081.291a.25.25 0 0 0-.177.177l-.291 1.082c-.067.246-.417.246-.483 0l-.291-1.082a.25.25 0 0 0-.177-.177l-1.081-.29c-.247-.067-.247-.417 0-.484l1.081-.29a.25.25 0 0 0 .177-.177z"/></svg>