<svg xmlns="http://www.w3.org/2000/svg" fill="none" viewBox="0 0 16 16"><path fill="currentColor" d="M12.829 4.353V3.79a.706.706 0 0 0-.686-.71h-.562l-.27.416H4.63l-.27-.392h-.563c-.391 0-.685.319-.685.71v.563l.367.27v6.681l-.367.27v.562c0 .392.318.686.685.686h.563l.27-.392h6.681l.27.392h.563a.684.684 0 0 0 .685-.686v-.563l-.367-.269V4.622zm-1.762 6.73H4.874V4.867h6.193zM2.643 8.464v-.979H.98v.98zM2.64 6.282v-.98H.974v.98zm.007 4.365v-.98H.983v.98zm12.324-2.175v-.98h-1.664v.98zm-.004-2.182v-.98h-1.664v.98zm.008 4.364v-.979h-1.664v.98zM8.472.975h-.979v1.664h.98zm-2.178 0h-.98v1.664h.98zm4.356 0h-.979v1.664h.98zM8.472 13.31h-.979v1.665h.98zm-2.178 0h-.98v1.665h.98zm4.356 0h-.979v1.665h.98z"/></svg>