<svg xmlns="http://www.w3.org/2000/svg" fill="none" viewBox="0 0 16 16"><path fill="currentColor" d="M11.62 14.566c-.124-.37-.163-.426-.321-.78-.075-.166-.342-.353-.524-.355H5.281c-.181.002-.449.189-.523.355-.159.354-.195.41-.321.78-.124.368.05.436.369.434h6.443c.32 0 .493-.066.369-.434zm.743-13.549c-.586-.083-1.343.159-1.792.516-.156.125-.39.22-.586.222H6.076a1.04 1.04 0 0 1-.586-.222c-.45-.357-1.206-.6-1.792-.516-1.67.28-3.074 2.678.712 5.064.132.07.3.191.327.313.27 1.238.818 2.085 1.702 2.956 1.305 1.326.606 2.776-.35 3.23h3.884c-.955-.454-1.654-1.906-.35-3.23.885-.871 1.435-1.72 1.703-2.956.026-.124.195-.244.326-.313 3.787-2.386 2.383-4.786.713-5.064zM2.777 2.455c.285-.698 1.005-.888 1.427-.752.118.037.369.181.369.408 0 .918.011 2.094.011 3.052-1.173-.456-2.168-1.816-1.807-2.706zm8.696 2.706c0-.957.011-2.134.011-3.052 0-.225.25-.37.369-.408.422-.134 1.142.054 1.427.752.363.89-.634 2.25-1.807 2.706z"/></svg>