<svg xmlns="http://www.w3.org/2000/svg" fill="none" viewBox="0 0 24 24"><path fill="currentColor" fill-rule="evenodd" d="M10.007 4.994a.2.2 0 0 1 .192-.058l4.771 1.049a.205.205 0 0 1 .144.282l-.5 1.14a.205.205 0 0 0 .176.287l1.257.073a.205.205 0 0 1 .193.205v.536c0 .057.024.112.065.15l2.32 2.145a.205.205 0 0 1-.14.355h-.75a.205.205 0 0 0-.15.344l.852.915a.205.205 0 0 1-.035.309l-1.392.955a.2.2 0 0 1-.116.037h-1.492a.2.2 0 0 1-.145-.06l-.7-.7a.2.2 0 0 1-.06-.144v-.53a.205.205 0 0 0-.206-.205h-2.146a.2.2 0 0 1-.17-.091l-1.463-2.19a.205.205 0 0 0-.29-.052L8.77 10.793a.205.205 0 0 0-.006.328l3.198 2.475q.038.03.059.072l2.306 4.715a.2.2 0 0 1-.036.231l-2.117 2.223a.206.206 0 0 1-.289.009L10.46 19.51a.2.2 0 0 1-.065-.15l-.005-4.332c0-.24-.343-.284-.404-.051l-.555 2.13a.205.205 0 0 1-.348.09L7.27 15.285a.205.205 0 0 1-.02-.258l1.267-1.817c.13-.186-.094-.413-.282-.287l-2.48 1.654a.205.205 0 0 1-.26-.026l-1.921-1.919a.205.205 0 0 1 .064-.333l3.3-1.4c.212-.09.139-.405-.09-.392l-1.898.106a.205.205 0 0 1-.156-.35L6.327 8.74a.2.2 0 0 1 .14-.06l1.868-.037c.22-.005.28-.306.077-.393l-.822-.354a.205.205 0 0 1-.066-.33zm2.936 3.708a.205.205 0 0 0-.191.28l.109.28a.2.2 0 0 0 .12.12l2.263.831a.205.205 0 0 0 .258-.277l-.183-.402a.2.2 0 0 1-.019-.09l.013-.53a.205.205 0 0 0-.205-.21z" clip-rule="evenodd"/><path fill="currentColor" d="M18.269 13.882a.205.205 0 0 1 .296.202l-.132 1.45a.205.205 0 0 1-.35.127l-.924-.923a.205.205 0 0 1 .053-.328zM8.23 4.523a.41.41 0 0 1-.58-.58L11.3.3c.4-.4 1.05-.4 1.45 0l3.65 3.644a.409.409 0 1 1-.58.58L12.17.878a.205.205 0 0 0-.29 0z"/><path fill="currentColor" d="M18.171 18.99a1.224 1.224 0 1 1 .531-2.326l4.418-4.411c.08-.08.08-.21 0-.29l-4.618-4.61q-.158.044-.33.045a1.224 1.224 0 1 1 1.007-.528l4.52 4.514c.401.4.401 1.048 0 1.448l-4.42 4.413a1.224 1.224 0 0 1-1.108 1.744m-12.112.001a1.224 1.224 0 0 1-1.172-1.579L.3 12.832c-.4-.4-.4-1.048 0-1.448L4.953 6.74a1.224 1.224 0 1 1 .58.58L.88 11.962c-.08.08-.08.21 0 .29l4.502 4.494a1.224 1.224 0 1 1 .677 2.242M12.75 23.7c-.4.4-1.05.4-1.45 0l-3.65-3.644a.41.41 0 1 1 .58-.58l3.65 3.645c.08.08.21.08.29 0l3.65-3.644a.41.41 0 0 1 .58.58z"/></svg>