<svg xmlns="http://www.w3.org/2000/svg" fill="none" viewBox="0 0 16 16"><path fill="currentColor" d="M13.081 7.784a5.5 5.5 0 0 0-.405-1.649c-.081-.162-.325-.189-.433-.027a4.7 4.7 0 0 1-1.81 1.622c-.27.135-.541.216-.784.297l-.352-.865c.379-.432.757-1.027.892-1.784a3.9 3.9 0 0 0-.027-1.486c-.054-.27-.243-.46-.486-.568-.514-.189-1.081-.27-1.676-.27-.19 0-.378 0-.568.027s-.27.243-.162.378c.46.541.892 1.27 1.027 2.27.027.244.054.46.054.676l-1.054.081C7 6.027 6.541 5.595 5.946 5.27a3.9 3.9 0 0 0-1.46-.405c-.243 0-.486.08-.648.297a4.9 4.9 0 0 0-.892 2.108c-.027.19.162.352.324.27a4.6 4.6 0 0 1 2.46-.35c.297.053.567.107.81.215l-.216.865a3.37 3.37 0 0 0-1.756.92c-.406.378-.676.81-.838 1.188a.76.76 0 0 0 .08.757 5.3 5.3 0 0 0 1.622 1.487c.163.108.379-.027.352-.217-.027-.675.054-1.54.513-2.378.19-.351.406-.649.622-.892l.757.46a3.7 3.7 0 0 0 .46 2.162c.27.486.62.838.945 1.108.19.135.46.19.676.108a5 5 0 0 0 1.892-1.243c.135-.135.054-.379-.135-.406-.676-.135-1.46-.405-2.19-1.054a5 5 0 0 1-.73-.838L9.109 9c.568.297 1.324.54 2.216.432.568-.08 1.027-.243 1.379-.459.216-.135.378-.351.378-.622zm-4.351 1A.74.74 0 0 1 8.324 9 .6.6 0 0 1 8 9.081c-.108 0-.19 0-.297-.054a1.1 1.1 0 0 1-.514-.297 1.04 1.04 0 0 1-.297-.622c0-.054-.027-.108-.027-.162 0-.135.027-.297.08-.405.109-.27.325-.487.569-.595.135-.054.297-.108.459-.108.108 0 .216 0 .297.054.298.081.568.27.676.567.081.163.135.325.135.514 0 .054 0 .108-.027.19 0 .242-.135.459-.324.62"/><path fill="currentColor" d="M8 1.622c3.514 0 6.378 2.864 6.378 6.378S11.514 14.378 8 14.378 1.622 11.514 1.622 8 4.486 1.622 8 1.622M8 1C4.135 1 1 4.135 1 8s3.135 7 7 7 7-3.135 7-7-3.135-7-7-7"/></svg>