<svg xmlns="http://www.w3.org/2000/svg" fill="none" viewBox="0 0 16 16"><path fill="currentColor" d="M13.5 8a5.5 5.5 0 0 1-6.887 5.324.26.26 0 0 0-.247.065l-.806.806a.24.24 0 0 0 .083.398 7 7 0 1 0-4.28-4.358.24.24 0 0 0 .4.09l.818-.808a.26.26 0 0 0 .067-.242A5.5 5.5 0 1 1 13.5 8"/><path fill="currentColor" d="M3.933 13.695v.003h.003l.422-.422z"/><path fill="currentColor" d="M3.772 13.566a.25.25 0 0 0 .326-.025L7 10.639q.243.097.492.146t.529.048q1.215 0 2.066-.85.85-.852.85-2.066 0-.438-.121-.833a3 3 0 0 0-.187-.472c-.072-.144-.262-.166-.376-.052L8.7 8.11l-.875-.875 1.552-1.551c.114-.114.092-.305-.053-.376a3 3 0 0 0-.472-.187A2.8 2.8 0 0 0 8.021 5q-1.215 0-2.066.85a2.8 2.8 0 0 0-.85 2.067q0 .279.048.528t.146.492s-.077.09-2.92 2.875a.25.25 0 0 0-.026.332c.47.609.783.941 1.42 1.422"/></svg>