<svg xmlns="http://www.w3.org/2000/svg" fill="none" viewBox="0 0 16 16"><path fill="currentColor" fill-rule="evenodd" d="M10.5 1a.5.5 0 0 1 .5.5v1a.5.5 0 0 0 .5.5h3a.5.5 0 0 1 .5.5v1a.5.5 0 0 1-.5.5h-1.09l-.869 9.545a.5.5 0 0 1-.498.455H3.957a.5.5 0 0 1-.498-.455L2.59 5H1.5a.5.5 0 0 1-.5-.5v-1a.5.5 0 0 1 .5-.5h3a.5.5 0 0 0 .5-.5v-1a.5.5 0 0 1 .5-.5zM5.499 5A.5.5 0 0 0 5 5.5v7a.5.5 0 0 0 .5.5h1a.5.5 0 0 0 .5-.5v-7a.5.5 0 0 0-.499-.5zm4 0A.5.5 0 0 0 9 5.5v7a.5.5 0 0 0 .5.5h1a.5.5 0 0 0 .5-.5v-7a.5.5 0 0 0-.5-.5z" clip-rule="evenodd"/></svg>