<svg xmlns="http://www.w3.org/2000/svg" fill="none" viewBox="0 0 24 24"><path fill="currentColor" fill-rule="evenodd" d="M11.268 7.282c.418 0 .82.167 1.116.464l2.43 2.448a.79.79 0 0 0 .557.232h6.843c.434 0 .786.352.786.786v11.002a.786.786 0 0 1-.786.786H1.786A.786.786 0 0 1 1 22.214V8.068c0-.434.352-.786.786-.786zM3.358 18.29a.786.786 0 0 0-.787.786v1.572c0 .434.352.786.786.786h9.429a.786.786 0 0 0 .785-.786v-1.572a.786.786 0 0 0-.785-.786H3.357Zm4.32-9.341a.393.393 0 0 0-.392.393v5.183L4.662 11.9a.394.394 0 0 0-.556 0l-.557.557a.394.394 0 0 0 0 .555l4.245 4.244a.393.393 0 0 0 .555 0l4.219-4.22a.393.393 0 0 0 0-.555l-.556-.555a.393.393 0 0 0-.555 0l-2.6 2.6V9.34a.393.393 0 0 0-.393-.393H7.68Z" clip-rule="evenodd"/><path fill="currentColor" d="M18.24 1a1.601 1.601 0 0 1 0 3.2 1.6 1.6 0 0 1-.316-.032l-1.03 1.03.847.794c.317.297.497.712.497 1.146v1.618h-1.571V7.138l-2.563-2.4c-.186.075-.388.12-.602.12a1.601 1.601 0 0 1 0-3.201 1.6 1.6 0 0 1 1.58 1.842l.664.623.988-.987A1.597 1.597 0 0 1 18.24 1"/><path fill="currentColor" d="M20.597 4.727a1.6 1.6 0 0 1 .761 3.007v1.022h-1.571V7.703a1.597 1.597 0 0 1 .81-2.976"/></svg>