<svg xmlns="http://www.w3.org/2000/svg" fill="none" viewBox="0 0 16 16"><path fill="currentColor" d="M8.35 6.136a.5.5 0 0 1-.7 0L2.552 1.142a.5.5 0 0 0-.702.002l-.704.698a.49.49 0 0 0 .002.7L7.609 8.87a.5.5 0 0 0 .35.142h.082a.5.5 0 0 0 .35-.142l6.461-6.328a.49.49 0 0 0 .002-.7l-.704-.698a.5.5 0 0 0-.702-.002z"/><path fill="currentColor" d="M8.35 12.124a.5.5 0 0 1-.7 0L2.552 7.13a.5.5 0 0 0-.702.002l-.704.698a.49.49 0 0 0 .002.7l6.461 6.328a.5.5 0 0 0 .35.142h.082a.5.5 0 0 0 .35-.142l6.461-6.328a.49.49 0 0 0 .002-.7l-.704-.698a.5.5 0 0 0-.702-.002z"/></svg>