<svg xmlns="http://www.w3.org/2000/svg" fill="none" viewBox="0 0 16 16"><path fill="currentColor" d="M6.136 8.35a.5.5 0 0 0 0-.7L1.142 2.552a.5.5 0 0 1 .002-.702l.698-.704a.49.49 0 0 1 .7.002L8.87 7.609a.5.5 0 0 1 .142.35v.082a.5.5 0 0 1-.142.35l-6.328 6.461a.49.49 0 0 1-.7.002l-.698-.704a.5.5 0 0 1-.002-.702z"/><path fill="currentColor" d="M12.124 8.35a.5.5 0 0 0 0-.7L7.13 2.552a.5.5 0 0 1 .002-.702l.698-.704a.49.49 0 0 1 .7.002l6.328 6.461a.5.5 0 0 1 .142.35v.082a.5.5 0 0 1-.142.35L8.53 14.852a.49.49 0 0 1-.7.002l-.698-.704a.5.5 0 0 1-.002-.702z"/></svg>