<svg xmlns="http://www.w3.org/2000/svg" fill="none" viewBox="0 0 16 16"><path fill="currentColor" d="M9.864 8.35a.5.5 0 0 1 0-.7l4.994-5.098a.5.5 0 0 0-.003-.702l-.697-.704a.49.49 0 0 0-.7.002L7.13 7.609a.5.5 0 0 0-.142.35v.082a.5.5 0 0 0 .142.35l6.328 6.461a.49.49 0 0 0 .7.002l.697-.704a.5.5 0 0 0 .003-.702z"/><path fill="currentColor" d="M3.876 8.35a.5.5 0 0 1 0-.7L8.87 2.552a.5.5 0 0 0-.002-.702l-.698-.704a.49.49 0 0 0-.7.002L1.142 7.609a.5.5 0 0 0-.142.35v.082a.5.5 0 0 0 .142.35l6.328 6.461a.49.49 0 0 0 .7.002l.698-.704a.5.5 0 0 0 .002-.702z"/></svg>