<svg xmlns="http://www.w3.org/2000/svg" fill="none" viewBox="0 0 16 16"><path fill="currentColor" d="M7.65 9.864a.5.5 0 0 1 .7 0l5.098 4.994a.5.5 0 0 0 .702-.003l.704-.697a.49.49 0 0 0-.002-.7L8.391 7.13a.5.5 0 0 0-.35-.142h-.082a.5.5 0 0 0-.35.142l-6.461 6.328a.49.49 0 0 0-.002.7l.704.697a.5.5 0 0 0 .702.003z"/><path fill="currentColor" d="M7.65 3.876a.5.5 0 0 1 .7 0l5.098 4.994c.195.19.509.19.702-.002l.704-.698a.49.49 0 0 0-.002-.7L8.391 1.142A.5.5 0 0 0 8.041 1h-.082a.5.5 0 0 0-.35.142L1.148 7.47a.49.49 0 0 0-.002.7l.704.698a.5.5 0 0 0 .702.002z"/></svg>