<svg xmlns="http://www.w3.org/2000/svg" fill="none" viewBox="0 0 16 16"><path fill="currentColor" d="M7.024 13c0 .828-.677 1.5-1.512 1.5A1.506 1.506 0 0 1 4 13c0-.828.677-1.5 1.512-1.5s1.512.672 1.512 1.5M12 13c0 .828-.677 1.5-1.512 1.5A1.506 1.506 0 0 1 8.976 13c0-.828.677-1.5 1.512-1.5S12 12.172 12 13M7.024 8c0 .828-.677 1.5-1.512 1.5A1.506 1.506 0 0 1 4 8c0-.828.677-1.5 1.512-1.5s1.512.672 1.512 1.5M12 8c0 .828-.677 1.5-1.512 1.5A1.506 1.506 0 0 1 8.976 8c0-.828.677-1.5 1.512-1.5S12 7.172 12 8M7.024 3c0 .828-.677 1.5-1.512 1.5A1.506 1.506 0 0 1 4 3c0-.828.677-1.5 1.512-1.5s1.512.672 1.512 1.5M12 3c0 .828-.677 1.5-1.512 1.5A1.506 1.506 0 0 1 8.976 3c0-.828.677-1.5 1.512-1.5S12 2.172 12 3"/></svg>