<svg xmlns="http://www.w3.org/2000/svg" fill="none" viewBox="0 0 16 16"><path fill="currentColor" fill-rule="evenodd" d="M8.5 1a.25.25 0 0 1 .25.25v.956a5.8 5.8 0 0 1 4.989 5.044h1.011a.25.25 0 0 1 .25.25v1a.25.25 0 0 1-.25.25h-1.023A5.8 5.8 0 0 1 8.75 13.7v1.05a.25.25 0 0 1-.25.25h-1a.25.25 0 0 1-.25-.25v-1.046A5.8 5.8 0 0 1 2.242 8.75H1.25A.25.25 0 0 1 1 8.5v-1a.25.25 0 0 1 .25-.25h.98a5.8 5.8 0 0 1 5.02-5.048V1.25A.25.25 0 0 1 7.5 1zM7.25 3.719A4.3 4.3 0 0 0 3.745 7.25H5.75A.25.25 0 0 1 6 7.5v1a.25.25 0 0 1-.25.25H3.761a4.3 4.3 0 0 0 3.489 3.437V10.25A.25.25 0 0 1 7.5 10h1a.25.25 0 0 1 .25.25v1.932a4.3 4.3 0 0 0 3.457-3.432H10.25A.25.25 0 0 1 10 8.5v-1a.25.25 0 0 1 .25-.25h1.974A4.3 4.3 0 0 0 8.75 3.724V5.75A.25.25 0 0 1 8.5 6h-1a.25.25 0 0 1-.25-.25z" clip-rule="evenodd"/></svg>