<svg xmlns="http://www.w3.org/2000/svg" fill="none" viewBox="0 0 16 16"><path fill="currentColor" d="M14.847 1.905a.535.535 0 0 1 0 .75L7.942 9.643a.52.52 0 0 1-.332.154.13.13 0 0 1-.088.034H6.37a.13.13 0 0 1-.13-.133V8.532a.13.13 0 0 1 .079-.122.53.53 0 0 1 .142-.266l6.905-6.989a.52.52 0 0 1 .74 0z"/><path fill="currentColor" d="M7.286 3.999c0 .293-.235.53-.524.53H3.62a.527.527 0 0 0-.524.53v7.29c0 .293.235.53.524.53h7.203c.29 0 .524-.237.524-.53V9.17c0-.294.234-.531.524-.531h1.047c.29 0 .524.237.524.53v5.302c0 .293-.235.53-.524.53H1.524A.527.527 0 0 1 1 14.47V2.939c0-.293.235-.53.524-.53h5.238c.29 0 .524.237.524.53z"/></svg>