<svg xmlns="http://www.w3.org/2000/svg" fill="none" viewBox="0 0 16 16"><path fill="currentColor" fill-rule="evenodd" d="M8 15A7 7 0 1 0 8 1a7 7 0 0 0 0 14M6.687 6.031a1.313 1.313 0 1 1-2.625 0 1.313 1.313 0 0 1 2.625 0m5.105 0a1.313 1.313 0 1 1-2.625 0 1.313 1.313 0 0 1 2.625 0m-1.72 3.63c.202-.34.644-.541.987-.343l.444.256c.243.14.356.438.231.69a4.208 4.208 0 0 1-7.547.01c-.125-.253-.013-.55.231-.692l.444-.256c.343-.198.783.002.987.341a2.456 2.456 0 0 0 4.222-.005Z" clip-rule="evenodd"/></svg>