<svg xmlns="http://www.w3.org/2000/svg" fill="none" viewBox="0 0 16 16"><path fill="currentColor" fill-rule="evenodd" d="M8.332 2c-.033-.578-.044-.967-.044-.967S8.258.5 7.986.5c-.273 0-.303.533-.303.533s-.014.386-.05.96a5.945 5.945 0 0 0-5.638 5.638c-.575.036-.962.05-.962.05S.5 7.711.5 7.984c0 .272.533.303.533.303s.39.008.968.038a5.945 5.945 0 0 0 5.681 5.546c.042.633.057 1.068.057 1.068s.042.537.316.53c.271-.008.287-.54.287-.54s.002-.435.027-1.069a5.946 5.946 0 0 0 5.496-5.535c.636-.032 1.073-.038 1.073-.038s.533-.031.533-.303-.533-.303-.533-.303-.435-.012-1.068-.05A5.946 5.946 0 0 0 8.332 2m2.615 5.336c-.814-.133-1.5-.316-1.748-.565-.258-.258-.445-.983-.58-1.835a3.08 3.08 0 0 1 2.328 2.4m1.033.14a4.074 4.074 0 0 0-3.497-3.58 36 36 0 0 1-.128-1.52 5.57 5.57 0 0 1 5.138 5.232 35 35 0 0 1-1.513-.132M10.93 8.61c-.795.134-1.467.322-1.731.586s-.447.935-.574 1.728A3.08 3.08 0 0 0 10.93 8.61m-2.436 3.354A4.074 4.074 0 0 0 11.97 8.47a32 32 0 0 1 1.517-.124 5.57 5.57 0 0 1-5.102 5.137c.023-.462.057-.991.11-1.518M7.36 10.95c-.142-.808-.335-1.49-.594-1.748-.267-.268-.987-.459-1.83-.594A3.08 3.08 0 0 0 7.36 10.95M3.896 8.472a4.074 4.074 0 0 0 3.614 3.51c.064.525.111 1.052.146 1.512a5.57 5.57 0 0 1-5.278-5.147c.456.028.986.068 1.518.125m1.022-1.136c.87-.135 1.608-.32 1.854-.565.247-.247.43-.985.566-1.855-1.22.24-2.18 1.2-2.42 2.42m2.555-3.452a4.074 4.074 0 0 0-3.587 3.587c-.53.058-1.059.102-1.514.134A5.57 5.57 0 0 1 7.607 2.37c-.032.455-.076.983-.134 1.514" clip-rule="evenodd"/></svg>