<svg xmlns="http://www.w3.org/2000/svg" fill="none" viewBox="0 0 16 16"><path fill="currentColor" d="M8.416 3.97V1c.37.058.777.256 1.132.555.567.478 1.016 1.111 1.414 1.996.053.116.1.233.151.359l.025.06zm4.254 3.633-.034-.387c-.03-.354-.058-.69-.107-1.028-.05-.345-.124-.692-.196-1.028-.027-.12-.048-.224-.074-.346h1.972c.018 0 .05.023.06.044.456.916.688 1.799.709 2.699q0 .037-.002.046l-.037.003c-.428-.003-2.29-.003-2.29-.003zm-.34 3.233c.073-.336.147-.683.197-1.027.051-.34.08-.674.107-1.028l.034-.387s1.862 0 2.286-.004q.033-.001.04.004c0 .007.004.019.002.046-.02.9-.252 1.783-.709 2.699a.14.14 0 0 1-.063.053c-.593.007-1.972.009-1.972.009q.036-.183.077-.363zm-1.192 1.192-.025.06q-.073.185-.15.36c-.4.884-.848 1.517-1.415 1.995-.355.299-.762.497-1.132.555v-2.97zm.317-.9c-.02.074-.12.073-.12.073-.789-.006-2.888 0-2.917 0-.007-.023-.007-2.792-.007-2.792h3.422c-.051 1.083-.169 1.948-.378 2.72m-3.034-6.31s2.127.004 2.917 0c.08 0 .096.011.117.088.21.77.327 1.604.377 2.686h-3.42l.007-2.768zm3.654-.843c-.076 0-.091-.01-.113-.085-.187-.64-.508-1.264-.982-1.912-.134-.182-.278-.36-.416-.534 1.288.506 2.346 1.335 3.22 2.528zm-1.511 10.581c.138-.173.282-.352.416-.534.473-.648.795-1.272.982-1.912.021-.073.036-.08.113-.08h1.709c-.874 1.192-1.932 2.022-3.22 2.526m-2.98-2.526V15c-.37-.058-.777-.257-1.132-.555-.567-.478-1.016-1.111-1.414-1.996a10 10 0 0 1-.151-.359l-.025-.06zM4.862 3.972l.025-.06q.074-.185.15-.36c.4-.884.848-1.517 1.415-1.995.355-.299.762-.497 1.132-.555v2.97zm-.317.934c.02-.075.037-.089.114-.089h2.92s.009 0 .009.007v2.768H4.166c.05-1.082.168-1.915.377-2.686zm.12 6.295c-.078 0-.096-.013-.115-.089-.209-.771-.332-1.62-.383-2.704H7.59v2.775s-.003.018-.017.018zm.354-9.223c-.474.648-.795 1.272-.983 1.912-.021.073-.037.085-.112.085h-.006l-1.704-.003c.874-1.193 1.932-2.022 3.22-2.528-.138.173-.282.352-.415.534m-1.1 10.047h.005c.075 0 .09.01.112.083.188.64.509 1.265.983 1.912.133.182.277.36.415.534-1.288-.506-2.346-1.335-3.22-2.527l1.704-.004zM1.004 7.59q-.001.001-.003-.004c0-.007-.002-.004 0-.028.02-.9.252-1.783.709-2.7.01-.02.026-.044.063-.044h1.969l-.074.347c-.072.336-.146.683-.196 1.028-.051.34-.08.674-.107 1.027-.011.128-.023.24-.036.37l-2.323.004zm-.001.804s.017-.003.036-.003l2.29.003c.006.255.092 1.076.14 1.415.052.343.125.692.197 1.028l.078.363-1.975-.01c-.022 0-.05-.031-.061-.052-.456-.916-.688-1.8-.709-2.7q0-.035.002-.045z"/></svg>