<svg xmlns="http://www.w3.org/2000/svg" fill="none" viewBox="0 0 24 24"><path fill="currentColor" d="M17 3c-.395 0-.714.288-.714.643v1.916l-1.336-.003c-.84-.002-1.521.61-1.521 1.366v3.743c0 .517.324.99.839 1.222l4.48 2.016a.64.64 0 0 1 .395.575v.736c0 .355-.32.643-.714.643h-4.286c-.395 0-.714.288-.714.643v1.286c0 .355.32.643.714.643h2.143v1.928c0 .355.32.643.714.643h1.429c.394 0 .714-.288.714-.643V18.43h1.34c.837 0 1.517-.612 1.517-1.366v-3.728c0-.517-.325-.99-.84-1.222l-4.48-2.016a.64.64 0 0 1-.394-.575v-.747c0-.356.32-.644.716-.643l4.216.01c.395 0 .715-.287.716-.642l.004-1.286c0-.355-.318-.643-.713-.644l-2.082-.005V3.643c0-.355-.32-.643-.714-.643zM5.26 9.997c0 1.653.984 3.098 2.454 3.887v-2.527c0-.355.32-.643.715-.643h1.428c.395 0 .714.288.714.643v6.429c0 .355-.32.643-.714.643H2.714c-.394 0-.714-.288-.714-.643V16.5c0-.355.32-.643.714-.643h3.127c-2.076-1.277-3.439-3.425-3.439-5.86 0-2.903 1.939-5.4 4.715-6.497a.71.71 0 0 1 .848.266l.69 1.078c.24.373.008.85-.429 1.027C6.477 6.578 5.26 8.16 5.26 9.997"/></svg>