<svg xmlns="http://www.w3.org/2000/svg" fill="none" viewBox="0 0 24 24"><path fill="currentColor" fill-rule="evenodd" d="M11.747 4.111c.035-.214.174-.444.39-.444h1.397c.217 0 .36.23.395.444l.36 2.2c.024.151.127.28.27.337l1.26.512a.44.44 0 0 1 .27.487l-.283 1.579a.435.435 0 0 0 .219.458l5.428 2.996a.44.44 0 0 1 .079.717l-1.785 1.569a.44.44 0 0 1-.392.099l-2.443-.558a.442.442 0 0 0-.54.475l.762 7.531c.052.506-.654.683-.85.214l-.687-1.652a.44.44 0 0 0-.41-.272h-4.699a.44.44 0 0 0-.409.272l-.687 1.652c-.195.47-.901.292-.85-.214l.762-7.531a.443.443 0 0 0-.54-.475l-2.443.558a.44.44 0 0 1-.392-.1l-1.784-1.568a.44.44 0 0 1 .078-.718l5.429-2.995a.435.435 0 0 0 .218-.458l-.283-1.58a.44.44 0 0 1 .27-.486l1.26-.512a.44.44 0 0 0 .27-.337zM14.39 19.24a.442.442 0 0 0 .435-.526l-.464-2.387a.44.44 0 0 0-.435-.357H11.75a.44.44 0 0 0-.435.357l-.465 2.387a.442.442 0 0 0 .435.526h3.104Z" clip-rule="evenodd"/><path fill="currentColor" d="M5.455 1.238c-.085-.317-.536-.317-.622 0l-.608 2.25a.32.32 0 0 1-.227.227l-2.26.606c-.317.086-.317.535 0 .62l2.26.606c.11.03.197.116.227.227l.608 2.251c.086.317.537.317.622 0l.609-2.251a.32.32 0 0 1 .227-.227l2.26-.606c.317-.085.317-.534 0-.62l-2.26-.606a.32.32 0 0 1-.227-.226zM20.333 6.16c.056-.213.36-.213.416 0l.302 1.147c.02.074.076.131.15.152l1.142.314c.21.058.21.355 0 .413L21.2 8.5a.22.22 0 0 0-.15.152l-.302 1.147c-.056.213-.36.213-.416 0l-.302-1.147a.21.21 0 0 0-.15-.152l-1.142-.314c-.21-.058-.21-.355 0-.413l1.142-.314a.21.21 0 0 0 .15-.152zM6.22 20.625c.028-.107.18-.107.207 0l.199.754c.01.036.038.065.075.075l.747.206c.105.03.105.178 0 .206l-.747.206a.11.11 0 0 0-.075.076l-.199.754c-.028.107-.18.107-.207 0l-.199-.754a.11.11 0 0 0-.075-.076l-.747-.206c-.105-.028-.105-.177 0-.206l.747-.206a.11.11 0 0 0 .075-.075z"/></svg>