<svg xmlns="http://www.w3.org/2000/svg" fill="none" viewBox="0 0 16 16"><path fill="currentColor" fill-rule="evenodd" d="M1.5 2.5A.5.5 0 0 0 1 3v10a.5.5 0 0 0 .5.5h13a.5.5 0 0 0 .5-.5V5a.5.5 0 0 0-.5-.5h-4.293a.5.5 0 0 1-.353-.146L8.146 2.646a.5.5 0 0 0-.353-.146zM3 8a.5.5 0 0 0 .5.5h1A.5.5 0 0 0 5 8V7a.5.5 0 0 0-.5-.5h-1A.5.5 0 0 0 3 7zm4 0a.5.5 0 0 0 .5.5h5A.5.5 0 0 0 13 8V7a.5.5 0 0 0-.5-.5h-5A.5.5 0 0 0 7 7zm-3.5 3.5A.5.5 0 0 1 3 11v-1a.5.5 0 0 1 .5-.5h1a.5.5 0 0 1 .5.5v1a.5.5 0 0 1-.5.5zm4 0A.5.5 0 0 1 7 11v-1a.5.5 0 0 1 .5-.5h5a.5.5 0 0 1 .5.5v1a.5.5 0 0 1-.5.5z" clip-rule="evenodd"/></svg>