<svg xmlns="http://www.w3.org/2000/svg" fill="none" viewBox="0 0 16 16"><path fill="currentColor" fill-rule="evenodd" d="M5.161 8.016c.252-.763.367-1.466.367-2.115V4.62h-.956v1.32c0 1.287-.187 2.494-.586 3.602a14 14 0 0 1-.675 1.588l.104.066q.378-.445.713-.97a9.7 9.7 0 0 0 1.03-2.198zM2.573 9.037q.5-1.38.5-3.096V4.12a1 1 0 0 1 1-1h1.955a1 1 0 0 1 1 1v1.781q0 1.243-.442 2.584-.423 1.32-1.19 2.544a10 10 0 0 1-1.22 1.563c-.31.325-.808.36-1.185.116l-.846-.545c-.463-.3-.593-.916-.332-1.403q.445-.831.76-1.723m9.867-1.021c.25-.763.366-1.466.366-2.115V4.62h-.955v1.32c0 1.287-.187 2.494-.587 3.602a14 14 0 0 1-.675 1.588l.104.066q.378-.445.714-.97a9.7 9.7 0 0 0 1.029-2.198zM9.852 9.037q.499-1.38.499-3.096V4.12a1 1 0 0 1 1-1h1.955a1 1 0 0 1 1 1v1.781q0 1.243-.442 2.584-.422 1.32-1.19 2.544a10 10 0 0 1-1.22 1.563c-.31.325-.808.36-1.185.116l-.845-.545c-.464-.3-.594-.916-.333-1.403q.447-.831.76-1.723" clip-rule="evenodd"/></svg>