<svg xmlns="http://www.w3.org/2000/svg" fill="none" viewBox="0 0 16 16"><path fill="currentColor" fill-rule="evenodd" d="M3 14V2a1 1 0 0 1 1-1h3.69q1.173 0 2.097.23.932.232 1.579.703.646.47.988 1.192.34.711.341 1.692 0 .866-.378 1.596-.37.731-1.173 1.193-.15.086-.296.153.381.146.702.347.757.46 1.1 1.202.35.74.35 1.586 0 1.346-.563 2.27-.564.913-1.653 1.375-1.08.46-2.64.461H4a1 1 0 0 1-1-1m5.908-7.327q-.51.202-1.308.202H6.1a.5.5 0 0 1-.5-.5V3.76a.5.5 0 0 1 .5-.5h1.5q.808 0 1.317.182.52.183.76.587.25.404.25 1.058 0 .576-.26.98-.25.395-.76.606m.404 5.837q-.481.24-1.24.24H6.1a.5.5 0 0 1-.5-.5V9.356a.5.5 0 0 1 .5-.5h2.096q.74 0 1.192.25.453.24.654.692.212.452.212 1.067 0 .549-.23.972a1.65 1.65 0 0 1-.712.673" clip-rule="evenodd"/></svg>