<svg xmlns="http://www.w3.org/2000/svg" fill="none" viewBox="0 0 16 16"><path fill="currentColor" d="M10.562 10.555q.128.327.128.749 0 .552-.275.973-.274.42-.825.655-.54.234-1.347.234-.615 0-1.155-.14a2.8 2.8 0 0 1-.935-.431 2.1 2.1 0 0 1-.695-.918c-.193-.517-.605-.982-1.157-.982H4c-.552 0-1.017.454-.894.992q.113.49.343.908.45.805 1.21 1.348.761.533 1.687.795A7 7 0 0 0 8.243 15q1.073 0 1.943-.253a4.6 4.6 0 0 0 1.503-.739q.633-.486.972-1.17.339-.692.339-1.553 0-.824-.275-1.47a3.4 3.4 0 0 0-.825-1.17 4 4 0 0 0-.164-.145H6.691q.537.212 1.13.398.87.272 1.43.534.568.252.88.524.312.27.43.599M3.892 6.5h3.355a4.5 4.5 0 0 1-.828-.465 1.9 1.9 0 0 1-.532-.58 1.44 1.44 0 0 1-.174-.702q0-.543.266-.974t.806-.683 1.357-.252q.861 0 1.42.3.569.298.844.823.057.102.102.211c.212.51.63.977 1.182.977h.283c.552 0 1.015-.455.88-.99a3.9 3.9 0 0 0-.467-1.097q-.577-.945-1.66-1.506Q9.655 1 8.17 1q-1.055 0-1.925.28-.87.272-1.513.777a3.5 3.5 0 0 0-.98 1.18q-.34.682-.34 1.516 0 .841.33 1.488.069.133.15.259"/><path fill="currentColor" fill-rule="evenodd" d="M1 8a.75.75 0 0 1 .75-.75h12.5a.75.75 0 0 1 0 1.5H1.75A.75.75 0 0 1 1 8" clip-rule="evenodd"/></svg>