<svg xmlns="http://www.w3.org/2000/svg" fill="none" viewBox="0 0 16 16"><path fill="currentColor" d="M5.452 3.168a.75.75 0 0 1 .75-.75h7.5a.75.75 0 0 1 0 1.5h-7.5a.75.75 0 0 1-.75-.75m0 4.75a.75.75 0 0 1 .75-.75h7.5a.75.75 0 0 1 0 1.5h-7.5a.75.75 0 0 1-.75-.75m0 5a.75.75 0 0 1 .75-.75h7.5a.75.75 0 0 1 0 1.5h-7.5a.75.75 0 0 1-.75-.75M2.192 2.176l-.644.324v-.436l.744-.396h.368v2.8h-.468zm-.584 6.718q0-.232.084-.4a.8.8 0 0 1 .288-.304l.992-.644a.4.4 0 0 0 .124-.132.3.3 0 0 0 .048-.164v-.128a.26.26 0 0 0-.096-.208.34.34 0 0 0-.24-.084H2.44a.33.33 0 0 0-.276.128.53.53 0 0 0-.1.344h-.468q0-.412.224-.648t.612-.236h.376q.235 0 .42.088a.66.66 0 0 1 .284.248q.1.16.1.368v.128a.7.7 0 0 1-.088.352.7.7 0 0 1-.268.264l-.964.612a.5.5 0 0 0-.164.156.4.4 0 0 0-.048.208h1.556v.408H1.608zm1.764 3.962q.168.092.264.236t.096.312v.16a.72.72 0 0 1-.424.672 1.05 1.05 0 0 1-.46.096H2.46q-.405 0-.64-.236-.232-.24-.232-.652h.46q0 .22.108.348a.38.38 0 0 0 .304.128h.388a.46.46 0 0 0 .3-.096.33.33 0 0 0 .116-.26v-.16a.29.29 0 0 0-.116-.244.5.5 0 0 0-.312-.088h-.484v-.408h.484a.4.4 0 0 0 .272-.084.3.3 0 0 0 .104-.24v-.16a.26.26 0 0 0-.1-.216.38.38 0 0 0-.256-.084h-.388a.36.36 0 0 0-.288.128.54.54 0 0 0-.104.348h-.468q0-.412.228-.648.232-.24.632-.24h.388q.244 0 .428.088a.67.67 0 0 1 .396.624v.16a.55.55 0 0 1-.084.292.64.64 0 0 1-.224.224"/></svg>