<svg xmlns="http://www.w3.org/2000/svg" fill="none" viewBox="0 0 16 16"><path fill="currentColor" d="M14.485 9.692h-2.801a2.7 2.7 0 0 0-.946-.785L9.07 8.073a4.4 4.4 0 0 0 1.053-2.175l.214-.107a.3.3 0 0 1 .147-.035h2.47q.079 0 .147.035l1.537.768a.66.66 0 0 1 .363.586v.579l-.189 1.677a.33.33 0 0 1-.326.291ZM9.872 2.855a1.856 1.856 0 1 0 3.712 0 1.856 1.856 0 0 0-3.712 0M5.753 7.807a2.68 2.68 0 1 1-.001-5.36 2.68 2.68 0 0 1 .001 5.36m-4.48 6.773c.027.239.23.42.47.42h7.99a.474.474 0 0 0 .472-.42l.272-2.422v-.835a.95.95 0 0 0-.524-.847l-2.219-1.11a.5.5 0 0 0-.212-.05H3.955a.5.5 0 0 0-.212.05l-2.22 1.11a.95.95 0 0 0-.523.847v.835z"/></svg>