<svg xmlns="http://www.w3.org/2000/svg" fill="none" viewBox="0 0 16 16"><path fill="currentColor" d="M12.899 1H6.765L4.94 2.825h-.403l-.149-.133V2.47l-.568-.572h-.209L2 3.51v.226l.572.552h.234l.132.132v.403l-.306.306v8.793L3.712 15h9.187L14 13.906V2.156zM8.305 13.38a2.988 2.988 0 0 1-2.303-4.9c1.284-1.475 1.361-3.094 2.71-4.028-.403 1.57.842 2.819 1.865 4.027a2.989 2.989 0 0 1-2.288 4.906zM13.25 2.854H5.995L7.127 1.72h5.567l.556.532zM8.14 7.356A5.9 5.9 0 0 0 9.232 8.89c.117.133.233.262.346.403a1.667 1.667 0 1 1-2.55 0 6.5 6.5 0 0 0 1.056-1.809zm.165-1.12c-.56.656-.696 1.776-1.582 2.795a2.066 2.066 0 1 0 3.166 0c-.71-.842-1.584-1.587-1.584-2.795"/></svg>