<svg xmlns="http://www.w3.org/2000/svg" fill="none" viewBox="0 0 24 24"><path fill="currentColor" d="M10.516 1.495a.38.38 0 0 1 .336-.437 11 11 0 0 1 2.277 0 .38.38 0 0 1 .335.437l-.322 2.315a.41.41 0 0 1-.445.344 8 8 0 0 0-1.414 0 .41.41 0 0 1-.444-.344zm5.445.667a.38.38 0 0 1 .51-.21q.23.103.454.216a.4.4 0 0 1 .063.026A11 11 0 0 1 23 12c0 6.075-4.925 11-11 11a11 11 0 0 1-9.862-6.122.4.4 0 0 1-.025-.063q-.083-.171-.161-.345a.38.38 0 0 1 .21-.509l2.167-.876a.41.41 0 0 1 .521.213q.278.6.65 1.139a.4.4 0 0 1 .066.074 7.85 7.85 0 0 0 6.41 3.346h.014a8 8 0 0 0 .732-.033 7.8 7.8 0 0 0 2.534-.671l.042-.023a8 8 0 0 0 1.22-.705l.047-.03a7.9 7.9 0 0 0 1.831-1.83l.029-.047q.406-.575.705-1.22l.023-.042a7.8 7.8 0 0 0 .704-3.266 7.85 7.85 0 0 0-3.244-6.351.4.4 0 0 1-.075-.07 8 8 0 0 0-1.24-.72.41.41 0 0 1-.213-.52zM5.465 3.64a.38.38 0 0 1 .072-.546A11 11 0 0 1 7.51 1.952a.38.38 0 0 1 .509.21l.876 2.167a.41.41 0 0 1-.213.521 8 8 0 0 0-1.22.706.41.41 0 0 1-.557-.076zM2.162 8.019a.38.38 0 0 1-.21-.509q.471-1.052 1.142-1.973a.38.38 0 0 1 .545-.072l1.841 1.44c.171.134.2.38.076.558q-.406.575-.706 1.22a.41.41 0 0 1-.52.212zM1 11.99q0-.577.058-1.138a.38.38 0 0 1 .437-.336l2.315.322c.215.03.364.229.344.445a8 8 0 0 0 0 1.414.41.41 0 0 1-.344.445l-2.315.322a.38.38 0 0 1-.437-.335A11 11 0 0 1 1 11.99"/><path fill="currentColor" fill-rule="evenodd" d="M11.548 5.616h.904c.192 0 .356.14.387.33l.228 1.397a.39.39 0 0 0 .24.3l.756.308c.171.07.27.25.238.433l-.182 1.021a.3.3 0 0 0 .15.316l3.628 2.01a.393.393 0 0 1 .07.637l-1.102.972a.4.4 0 0 1-.347.088l-1.519-.348a.393.393 0 0 0-.478.423l.452 4.486c.046.45-.58.608-.753.19l-.222-.535a.39.39 0 0 0-.363-.242h-3.27a.39.39 0 0 0-.363.242l-.222.535c-.173.418-.799.26-.753-.19l.452-4.486a.393.393 0 0 0-.478-.423l-1.519.348a.4.4 0 0 1-.347-.088l-1.101-.972a.393.393 0 0 1 .07-.638L9.73 9.721a.3.3 0 0 0 .15-.316l-.182-1.02a.39.39 0 0 1 .238-.434l.757-.308a.39.39 0 0 0 .24-.3l.227-1.397c.03-.19.195-.33.387-.33Zm1.59 8.765a.39.39 0 0 0-.386-.319h-1.504a.39.39 0 0 0-.386.319l-.286 1.473a.393.393 0 0 0 .386.467h2.076a.393.393 0 0 0 .386-.467z" clip-rule="evenodd"/></svg>