<svg xmlns="http://www.w3.org/2000/svg" fill="none" viewBox="0 0 24 24"><path fill="currentColor" d="M8.794 15.713a.36.36 0 0 1 .157.292l.007 1.183c0 .116.06.225.157.292l5.457 3.735c.252.172.188.545-.111.609q-.567.121-1.16.175a.37.37 0 0 1-.24-.063l-5.413-3.704a.36.36 0 0 1-.157-.293l-.007-1.182a.36.36 0 0 0-.157-.293l-2.866-1.961a.35.35 0 0 1-.122-.143 9 9 0 0 1-.486-1.314c-.087-.31.264-.534.533-.35zM11.705 2c3.005 0 5.633 1.526 7.062 3.801.144.23-.032.513-.307.513h-7.972c-1.828 0-3.31 1.448-3.31 3.235 0 1.065.526 2.009 1.338 2.599l.057.048.03.022 6.027 4.123a.75.75 0 0 0 .488.127h4.324c.247 0 .423.234.341.462-.682 1.894-1.802 3.291-3.14 3.8a.35.35 0 0 1-.323-.042l-5.584-3.82a.72.72 0 0 1-.313-.585l-.005-.81a.71.71 0 0 0-.314-.586L3.67 10.483a.35.35 0 0 1-.154-.264 7 7 0 0 1-.015-.471C3.5 5.469 7.174 2 11.705 2"/><path fill="currentColor" d="M19.644 7.783c.503 1.29.812 2.812.852 4.447.02.869-.036 1.71-.16 2.503a.36.36 0 0 1-.358.298H15.51a.75.75 0 0 1-.422-.13l-2.844-1.946c-.24-.165-.198-.537.048-.694A3.22 3.22 0 0 0 13.8 9.549c0-.425-.085-.831-.237-1.203-.11-.267.074-.594.368-.594H19.6c.02 0 .038.013.043.031Zm-9.156-.031c1.016 0 1.84.804 1.84 1.797s-.824 1.797-1.84 1.797c-1.015 0-1.839-.805-1.839-1.797 0-.993.824-1.797 1.84-1.797Z"/></svg>