<svg xmlns="http://www.w3.org/2000/svg" fill="none" viewBox="0 0 24 24"><path fill="currentColor" d="M5.63 4h3.125a6.69 6.69 0 0 1 2.828 5.108 41 41 0 0 1-1.78-.159c-.242-2.218-1.946-3.987-4.11-4.284A38 38 0 0 1 5.63 4M1 6.89V4.925c0-.51.407-.925.908-.925h2.663q-.03.322-.065.651A4.78 4.78 0 0 0 1 6.891Zm0 7.844v-2.636a4.78 4.78 0 0 0 3.55 2.243c.075.63.13 1.26.171 1.81A6.45 6.45 0 0 1 1 14.735Z"/><path fill="currentColor" fill-rule="evenodd" d="M1 15.295a6.87 6.87 0 0 0 3.753 1.307c.049.758.066 1.279.066 1.279s.05.643.371.634c.32-.01.338-.646.338-.646s.002-.521.031-1.28c3.467-.255 6.233-3.087 6.46-6.623.748-.038 1.262-.046 1.262-.046s.626-.037.626-.363c0-.325-.626-.362-.626-.362s-.511-.015-1.255-.06A7.15 7.15 0 0 0 9.486 4h12.605c.502 0 .909.414.909.925v14.15c0 .51-.407.925-.909.925H1.909A.917.917 0 0 1 1 19.075zM18.286 7.6c0-.22.176-.4.393-.4h.785c.217 0 .393.18.393.4v1.196l1.146.003c.216 0 .392.18.391.401l-.002.8c0 .22-.176.4-.393.399l-2.32-.006a.396.396 0 0 0-.393.4v.465a.4.4 0 0 0 .217.358l2.464 1.255a.85.85 0 0 1 .462.76v2.319c0 .47-.374.85-.835.85h-.737V18c0 .22-.176.4-.393.4h-.785a.397.397 0 0 1-.393-.4v-1.2h-1.179a.396.396 0 0 1-.393-.4v-.8c0-.22.176-.4.393-.4h2.357c.217 0 .393-.18.393-.4v-.458a.4.4 0 0 0-.217-.358l-2.464-1.255a.85.85 0 0 1-.462-.76V9.64c0-.47.375-.851.837-.85l.735.002z" clip-rule="evenodd"/><path fill="currentColor" d="M6.535 8.105c.292.298 1.098.517 2.055.677C8.316 7.36 7.236 6.23 5.854 5.91c.158 1.02.378 1.888.68 2.196Zm0 2.905c.31-.317 1.1-.542 2.034-.702a3.65 3.65 0 0 1-2.708 2.769c.149-.95.363-1.752.674-2.068Zm3.257-.87c-.282 2.165-1.96 3.883-4.085 4.181a38 38 0 0 0-.128 1.817c3.206-.263 5.76-2.877 5.997-6.148-.543.033-1.165.08-1.784.15m-6.117.875c.304.31.53 1.126.698 2.092-1.413-.272-2.535-1.381-2.85-2.803.991.162 1.837.39 2.152.71Zm.008-2.91c-.29.295-1.158.515-2.18.677.282-1.46 1.411-2.61 2.845-2.896-.16 1.04-.376 1.925-.665 2.22Z"/></svg>