<svg xmlns="http://www.w3.org/2000/svg" fill="none" viewBox="0 0 16 16"><path fill="currentColor" fill-rule="evenodd" d="M2.168 4.517a.244.244 0 0 0-.301.107 7 7 0 0 0-.605 1.474.244.244 0 0 0 .137.288l.259.116a.25.25 0 0 1 .14.274.25.25 0 0 1-.236.205l-.28.008a.244.244 0 0 0-.237.214 7 7 0 0 0 0 1.593.244.244 0 0 0 .237.215l.295.008c.115.003.21.087.233.2a.246.246 0 0 1-.139.273l-.272.121a.244.244 0 0 0-.138.288q.22.78.605 1.475a.244.244 0 0 0 .302.107l.276-.106c.108-.041.23 0 .294.098a.25.25 0 0 1-.024.307L2.507 12a.244.244 0 0 0-.017.318c.328.419.703.8 1.118 1.134a.244.244 0 0 0 .32-.016l.208-.196a.254.254 0 0 1 .317-.023c.097.066.138.19.096.3l-.105.275c-.044.113 0 .24.105.3.458.26.949.47 1.464.623a.244.244 0 0 0 .291-.137l.114-.254a.26.26 0 0 1 .295-.143.26.26 0 0 1 .206.242l.008.288a.244.244 0 0 0 .212.238 7 7 0 0 0 1.59.015.244.244 0 0 0 .216-.238l.008-.277a.26.26 0 0 1 .228-.247.26.26 0 0 1 .284.145l.118.264c.049.11.17.17.287.138a7 7 0 0 0 1.473-.595.244.244 0 0 0 .108-.303l-.1-.264a.26.26 0 0 1 .1-.306l.022-.014a.26.26 0 0 1 .319.025l.21.2a.244.244 0 0 0 .32.017 7 7 0 0 0 1.129-1.114.244.244 0 0 0-.015-.321l-.198-.208a.26.26 0 0 1-.023-.322l.018-.026a.26.26 0 0 1 .304-.099l.274.105c.113.044.242 0 .301-.106q.388-.69.613-1.464a.244.244 0 0 0-.137-.29l-.262-.116a.26.26 0 0 1-.144-.288l.007-.037a.26.26 0 0 1 .243-.208l.287-.008a.244.244 0 0 0 .238-.214 7 7 0 0 0 0-1.586.244.244 0 0 0-.238-.215l-.274-.007a.26.26 0 0 1-.244-.211l-.008-.042a.26.26 0 0 1 .145-.285l.25-.112a.244.244 0 0 0 .137-.29 7 7 0 0 0-.614-1.463.244.244 0 0 0-.3-.106l-.241.092a.26.26 0 0 1-.306-.1l-.025-.04a.26.26 0 0 1 .024-.32l.172-.181a.244.244 0 0 0 .015-.321 7 7 0 0 0-1.13-1.115.244.244 0 0 0-.318.017l-.172.163a.26.26 0 0 1-.32.024l-.04-.027a.26.26 0 0 1-.1-.305l.081-.213a.244.244 0 0 0-.109-.303 7 7 0 0 0-1.473-.595.244.244 0 0 0-.287.138l-.091.205a.26.26 0 0 1-.285.146l-.043-.009a.26.26 0 0 1-.212-.244l-.006-.213a.244.244 0 0 0-.217-.238 7 7 0 0 0-1.589.016.244.244 0 0 0-.212.237l-.006.224a.26.26 0 0 1-.207.243l-.032.006a.26.26 0 0 1-.29-.144l-.087-.196a.244.244 0 0 0-.291-.137 7 7 0 0 0-1.465.623.244.244 0 0 0-.105.3l.085.223a.26.26 0 0 1-.096.302l-.014.01a.26.26 0 0 1-.323-.022l-.166-.158a.244.244 0 0 0-.321-.015q-.624.503-1.119 1.133a.244.244 0 0 0 .018.319l.177.186a.26.26 0 0 1 .026.317.26.26 0 0 1-.307.103zm1.283 3.452c0 2.525 2.036 4.572 4.549 4.572 2.512 0 4.55-2.047 4.55-4.572S10.511 3.397 8 3.397 3.45 5.444 3.45 7.969" clip-rule="evenodd"/><path fill="currentColor" fill-rule="evenodd" d="M6.742 5.143a.625.625 0 0 0-1.011.735l.746 1.028c-.2.28-.327.616-.349.982l-1.175.382a.625.625 0 0 0 .387 1.19l1.135-.37c.221.31.534.549.9.678v1.17a.625.625 0 0 0 1.25 0v-1.17a1.9 1.9 0 0 0 .9-.677l1.135.368a.625.625 0 0 0 .387-1.189l-1.175-.382a1.87 1.87 0 0 0-.35-.982l.747-1.028a.625.625 0 0 0-1.011-.735L8.495 6.19a1.9 1.9 0 0 0-.99 0zm2.091 1.646q.003.002 0 0" clip-rule="evenodd"/></svg>