<svg xmlns="http://www.w3.org/2000/svg" fill="none" viewBox="0 0 16 16"><path fill="currentColor" fill-rule="evenodd" d="M7.52 1a.324.324 0 0 0-.322.27l-.264 1.598a.32.32 0 0 1-.199.246l-.927.372a.32.32 0 0 0-.197.354l.208 1.147a.31.31 0 0 1-.161.333l-3.99 2.178a.318.318 0 0 0-.058.521l1.312 1.14a.33.33 0 0 0 .288.073l1.796-.406a.325.325 0 0 1 .397.345l-.56 5.475c-.038.368.48.497.624.155l.505-1.2c.05-.12.17-.198.3-.198h3.455c.132 0 .25.078.3.198l.506 1.2c.144.342.662.213.625-.155l-.56-5.475a.324.324 0 0 1 .396-.345l1.796.406a.33.33 0 0 0 .288-.072l1.312-1.14a.318.318 0 0 0-.058-.522l-3.99-2.178a.32.32 0 0 1-.16-.333l.207-1.147a.32.32 0 0 0-.197-.354l-.927-.372a.32.32 0 0 1-.199-.246L8.802 1.27A.324.324 0 0 0 8.481 1zM8.8 9.889c.155 0 .29.109.32.26l.34 1.735a.322.322 0 0 1-.32.382H6.86a.322.322 0 0 1-.32-.382l.34-1.735a.326.326 0 0 1 .32-.26z" clip-rule="evenodd"/></svg>