<svg xmlns="http://www.w3.org/2000/svg" fill="none" viewBox="0 0 16 16"><path fill="currentColor" d="M1 10.495c0-.28.195-.393.436-.253l1.823 1.061c.24.14.436.48.436.76v2.123c0 .28-.195.394-.436.254l-1.823-1.061A.97.97 0 0 1 1 12.618zm6-.253c.241-.14.436-.027.436.253v2.123c0 .28-.195.62-.435.76L5.177 14.44c-.24.14-.435.027-.435-.254v-2.122c0-.28.195-.62.435-.76zm1.564.253c0-.28.195-.393.435-.253l1.824 1.061c.24.14.435.48.435.76v2.123c0 .28-.195.394-.435.254l-1.824-1.061a.97.97 0 0 1-.436-.761zm6-.253c.24-.14.436-.027.436.253v2.123a.97.97 0 0 1-.436.76l-1.823 1.062c-.24.14-.436.027-.436-.254v-2.122c0-.28.195-.62.436-.76zm-10.788-2.3a1.05 1.05 0 0 1 .889 0l1.859.997c.245.131.245.344 0 .476l-1.86.996a1.05 1.05 0 0 1-.888 0l-1.859-.996c-.245-.132-.245-.345 0-.476zm7.564 0a1.05 1.05 0 0 1 .888 0l1.86.997c.245.131.245.344 0 .476l-1.86.996a1.05 1.05 0 0 1-.888 0l-1.86-.996c-.245-.132-.245-.345 0-.476zm-6.513-3.79c0-.28.195-.394.435-.254L7.086 4.96c.24.14.436.481.436.761v2.123c0 .28-.195.393-.436.253L5.262 7.035a.97.97 0 0 1-.435-.76zm6.001-.254c.24-.14.435-.026.435.254v2.122c0 .28-.195.621-.435.761L9.004 8.096c-.24.14-.436.027-.436-.253V5.72c0-.28.195-.62.436-.76zM7.603 1.599a1.05 1.05 0 0 1 .888 0l1.86.996c.245.132.245.345 0 .476l-1.86.997a1.05 1.05 0 0 1-.888 0l-1.86-.997c-.245-.131-.245-.344 0-.476z"/></svg>