<svg xmlns="http://www.w3.org/2000/svg" fill="none" viewBox="0 0 16 16"><path fill="currentColor" d="M5.52 4.844c0-.84.915-1.84 2.48-1.84s2.48 1 2.48 1.84c0 .617-.493 1.32-1.375 1.65l-.053.022-.075.033c-1.531.566-2.714 1.844-2.714 3.525v.792c0 .276.227.5.505.5h1.01a.503.503 0 0 0 .506-.5v-.792c0-.543.382-1.153 1.075-1.516l.042-.023a1 1 0 0 1 .194-.1c1.623-.526 2.905-1.84 2.905-3.59C12.5 2.544 10.29 1 8 1S3.5 2.545 3.5 4.844c0 .219.188.384.408.384h1.28c.195 0 .332-.19.332-.384m.743 9.655c0 .277.227.501.505.501h1.01a.503.503 0 0 0 .506-.501v-1.002a.503.503 0 0 0-.505-.502h-1.01a.503.503 0 0 0-.506.502z"/></svg>