<svg xmlns="http://www.w3.org/2000/svg" fill="none" viewBox="0 0 16 16"><path fill="currentColor" d="M11.976 4.287c0 .458-.28 1.004-1.003 1.483q-.377.251-.864.436a.377.377 0 0 0-.21.516l.13.26a.333.333 0 0 0 .413.17c1.507-.564 2.525-1.636 2.525-2.865C12.967 2.472 10.748 1 8.012 1S3.058 2.472 3.058 4.287c0 1.146.884 2.155 2.225 2.744H3.405a.35.35 0 0 0-.348.354l.001.299a.35.35 0 0 0 .348.352h3.267a.35.35 0 0 0 .348-.353V4.306a.35.35 0 0 0-.346-.353l-.295-.001a.35.35 0 0 0-.35.353v1.942c-.37-.13-.7-.292-.979-.477C4.33 5.291 4.05 4.745 4.05 4.287s.28-1.004 1.002-1.483c.714-.473 1.758-.799 2.961-.799 1.204 0 2.248.326 2.961.799.722.479 1.003 1.025 1.003 1.483ZM4.65 11.916l-1.155-.664 1.997-1.17a.253.253 0 0 0 .09-.343l-.247-.435a.246.246 0 0 0-.339-.092L3 10.382l.01-1.349a.25.25 0 0 0-.245-.253l-.495-.004a.25.25 0 0 0-.25.25L2 11.398c0 .092.047.176.126.221l2.036 1.17c.12.07.27.027.338-.094l.244-.437a.253.253 0 0 0-.093-.343Zm2.867-.676v2.338l-1.146-.683a.246.246 0 0 0-.339.09l-.251.432c-.07.12-.03.274.088.344l2.018 1.204a.25.25 0 0 0 .25 0l2.019-1.204a.253.253 0 0 0 .087-.344l-.25-.433a.246.246 0 0 0-.34-.089l-1.145.684v-2.34a.25.25 0 0 0-.248-.25h-.495a.25.25 0 0 0-.248.25Zm2.991-1.2 1.998 1.169-1.157.664a.253.253 0 0 0-.093.343l.244.437c.067.12.219.163.338.095l2.036-1.17a.25.25 0 0 0 .126-.222l-.019-2.374a.25.25 0 0 0-.25-.25l-.495.005a.25.25 0 0 0-.246.253l.01 1.348-1.996-1.17a.246.246 0 0 0-.338.093l-.248.435a.253.253 0 0 0 .09.343Z"/></svg>