<svg xmlns="http://www.w3.org/2000/svg" fill="none" viewBox="0 0 16 16"><path fill="currentColor" d="m8.508 2.43 1.145.688c.118.07.27.03.34-.09l.25-.436a.256.256 0 0 0-.087-.346L8.138 1.035a.24.24 0 0 0-.251 0L5.869 2.246a.256.256 0 0 0-.088.346l.251.436c.07.12.221.16.34.09l1.145-.688v2.213c0 .14.11.253.248.253h.495a.25.25 0 0 0 .248-.253zm4.439 3.229L11.07 6.765a.245.245 0 0 1-.339-.092l-.248-.438a.256.256 0 0 1 .091-.345l1.878-1.107-1.156-.669a.256.256 0 0 1-.094-.344l.244-.44a.245.245 0 0 1 .338-.095l2.037 1.177c.078.046.126.13.125.222l-.019 2.39a.25.25 0 0 1-.25.25l-.495-.004a.25.25 0 0 1-.245-.255zM4.65 11.897l-1.155-.668 1.997-1.177a.256.256 0 0 0 .09-.345l-.247-.438a.245.245 0 0 0-.339-.093L3 10.353l.01-1.356a.25.25 0 0 0-.245-.255l-.495-.004a.25.25 0 0 0-.25.25L2 11.378c0 .091.047.176.126.221l2.036 1.178c.12.069.27.026.338-.095l.244-.44a.256.256 0 0 0-.093-.345Zm2.867-.681v2.354l-1.146-.688a.245.245 0 0 0-.339.09l-.251.436c-.07.12-.03.275.088.346l2.018 1.211a.24.24 0 0 0 .25 0l2.019-1.211a.256.256 0 0 0 .087-.346l-.25-.436a.245.245 0 0 0-.34-.09l-1.145.688v-2.354a.25.25 0 0 0-.248-.252h-.495a.25.25 0 0 0-.248.252M3.548 4.74l1.156-.669a.256.256 0 0 0 .094-.344l-.244-.44a.245.245 0 0 0-.338-.096L2.179 4.37a.25.25 0 0 0-.125.222l.019 2.389a.25.25 0 0 0 .25.25l.495-.003a.25.25 0 0 0 .245-.255l-.01-1.356L4.93 6.722c.118.07.27.028.338-.093l.248-.437a.256.256 0 0 0-.091-.346zm6.96 5.269 1.998 1.176-1.157.669a.256.256 0 0 0-.093.345l.244.44a.245.245 0 0 0 .338.095l2.036-1.178a.25.25 0 0 0 .126-.222l-.019-2.389a.25.25 0 0 0-.25-.25l-.495.003a.25.25 0 0 0-.246.255L13 10.31l-1.996-1.177a.245.245 0 0 0-.338.092l-.248.438a.256.256 0 0 0 .09.346m-.514-2.016c0-1.117-.887-2.023-1.982-2.023S6.03 6.876 6.03 7.993s.888 2.022 1.982 2.022c1.095 0 1.982-.905 1.982-2.022"/></svg>