<svg xmlns="http://www.w3.org/2000/svg" fill="none" viewBox="0 0 16 16"><path fill="currentColor" fill-rule="evenodd" d="M1.743 12.308c.41.701.954 1.277 1.58 1.713a.37.37 0 0 0 .454-.028l.488-.415a.41.41 0 0 1 .432-.056q.157.068.316.123a.41.41 0 0 1 .277.331l.083.646a.37.37 0 0 0 .312.325 5.4 5.4 0 0 0 2.262-.159.37.37 0 0 0 .263-.371l-.02-.633a.41.41 0 0 1 .228-.374 4 4 0 0 0 .328-.186.41.41 0 0 1 .432-.01l.558.338a.37.37 0 0 0 .449-.041 5.4 5.4 0 0 0 1.282-1.861.37.37 0 0 0-.127-.438l-.507-.377a.41.41 0 0 1-.151-.413q.04-.203.062-.408a.41.41 0 0 1 .262-.347l.606-.222a.37.37 0 0 0 .247-.379 5.4 5.4 0 0 0-.72-2.234.25.25 0 0 0-.283-.114l-.71.186a.41.41 0 0 1-.414-.137 4 4 0 0 0-.29-.308.41.41 0 0 1-.111-.423l.2-.602a.37.37 0 0 0-.146-.43 5.5 5.5 0 0 0-2.113-.8.37.37 0 0 0-.394.222l-.263.592a.41.41 0 0 1-.362.238 4 4 0 0 0-.394.035.41.41 0 0 1-.403-.177l-.344-.528a.37.37 0 0 0-.43-.155 5.5 5.5 0 0 0-1.943 1.16.37.37 0 0 0-.071.444l.302.578a.41.41 0 0 1-.038.43q-.103.144-.195.295a.41.41 0 0 1-.389.202l-.632-.06a.37.37 0 0 0-.389.237 5.4 5.4 0 0 0-.313 2.241.37.37 0 0 0 .304.334l.637.124c.153.03.272.149.313.299q.045.158.1.313a.41.41 0 0 1-.085.426l-.494.507a.29.29 0 0 0-.046.347m5.718-.995a2.01 2.01 0 0 0 .725-2.755 2.02 2.02 0 0 0-2.76-.724 2.01 2.01 0 0 0-.726 2.755 2.02 2.02 0 0 0 2.761.724m.588 1.004a3.174 3.174 0 0 0 1.144-4.346A3.19 3.19 0 0 0 4.838 6.83a3.174 3.174 0 0 0-1.144 4.346 3.19 3.19 0 0 0 4.355 1.141m1.609-9.229a2.7 2.7 0 0 0-.028 1.174.19.19 0 0 0 .174.148l.322.02c.08.006.147.058.177.131q.032.08.071.156a.21.21 0 0 1-.016.216l-.197.264a.19.19 0 0 0 0 .227c.234.299.405.55.75.733.077.04.294.021.352-.042l.214-.237a.21.21 0 0 1 .215-.055 2 2 0 0 0 .184.047c.077.016.14.071.16.147l.084.318a.19.19 0 0 0 .177.142 2.7 2.7 0 0 0 1.118-.227.19.19 0 0 0 .108-.203l-.051-.314a.21.21 0 0 1 .09-.202q.086-.06.166-.126a.21.21 0 0 1 .217-.034l.297.131c.078.034.17.015.223-.051.243-.302.425-.661.524-1.062a.13.13 0 0 0-.063-.14l-.322-.181a.21.21 0 0 1-.102-.195q.006-.107.002-.213a.21.21 0 0 1 .109-.193l.284-.147a.19.19 0 0 0 .098-.208 2.75 2.75 0 0 0-.486-1.029.19.19 0 0 0-.22-.057l-.303.122a.21.21 0 0 1-.215-.04 2 2 0 0 0-.156-.125.21.21 0 0 1-.084-.205l.061-.312a.19.19 0 0 0-.101-.206A2.8 2.8 0 0 0 12.379 1a.19.19 0 0 0-.182.136l-.094.316a.21.21 0 0 1-.164.142q-.088.016-.175.04a.21.21 0 0 1-.212-.063l-.207-.244a.19.19 0 0 0-.225-.05 2.75 2.75 0 0 0-.901.704.19.19 0 0 0-.007.227l.188.268a.21.21 0 0 1 .008.218 2 2 0 0 0-.073.148.21.21 0 0 1-.181.125l-.357.011a.15.15 0 0 0-.139.11m2.423 1.64a1.016 1.016 0 1 0 .484-1.974 1.016 1.016 0 1 0-.484 1.974m-.14.57a1.603 1.603 0 1 0 .763-3.114 1.602 1.602 0 1 0-.763 3.114" clip-rule="evenodd"/></svg>