<svg xmlns="http://www.w3.org/2000/svg" fill="none" viewBox="0 0 16 16"><path fill="currentColor" d="M5.667 8.004a2.333 2.333 0 1 1 4.666-.008 2.333 2.333 0 0 1-4.666.008m-1.261.003a3.594 3.594 0 1 0 7.188-.014 3.594 3.594 0 0 0-7.188.014m6.483-3.749a.84.84 0 1 0 1.68-.004.84.84 0 0 0-1.68.004m-5.706 9.445c-.683-.03-1.053-.143-1.3-.238a2.2 2.2 0 0 1-.806-.522 2.2 2.2 0 0 1-.526-.804c-.095-.247-.21-.617-.243-1.3-.035-.738-.043-.959-.046-2.828s.003-2.09.035-2.829c.03-.682.144-1.053.239-1.3.126-.327.277-.56.522-.805.244-.246.477-.398.804-.525.246-.097.617-.211 1.299-.244.738-.035.96-.042 2.828-.046 1.869-.004 2.09.003 2.829.035.682.03 1.053.143 1.3.239.326.126.56.277.805.522.246.244.398.477.526.804.096.246.21.617.243 1.299.035.738.043.96.046 2.828.004 1.869-.003 2.09-.035 2.828-.03.683-.143 1.054-.239 1.3a2.16 2.16 0 0 1-.522.807 2.2 2.2 0 0 1-.804.525c-.246.096-.617.21-1.299.243-.738.035-.959.043-2.828.046s-2.09-.003-2.828-.035M5.1 1.048c-.745.036-1.254.155-1.698.33-.46.179-.85.419-1.238.809a3.4 3.4 0 0 0-.806 1.24c-.172.447-.289.955-.322 1.7-.032.747-.04.986-.036 2.886.003 1.901.012 2.14.047 2.886.036.745.155 1.254.33 1.698.179.46.419.85.809 1.239.39.388.78.626 1.241.805.446.172.955.289 1.7.322.746.033.985.04 2.885.036 1.901-.004 2.14-.012 2.886-.047.745-.036 1.253-.155 1.698-.329.46-.18.85-.42 1.239-.81.388-.39.626-.78.804-1.241.173-.445.29-.954.322-1.7s.04-.985.037-2.885c-.004-1.901-.012-2.14-.047-2.886-.036-.745-.155-1.253-.33-1.698a3.4 3.4 0 0 0-.809-1.239 3.4 3.4 0 0 0-1.241-.804c-.445-.173-.954-.29-1.7-.322-.746-.034-.984-.04-2.886-.037-1.9.003-2.138.012-2.885.047"/></svg>