<svg xmlns="http://www.w3.org/2000/svg" fill="none" viewBox="0 0 16 16"><path fill="currentColor" d="M2.139 11.725h.126V4.267h-.126C1.51 4.267 1 4.773 1 5.398v.31c0 .046.027.09.068.112l.454.237a.13.13 0 0 1 .067.112v3.565a.13.13 0 0 1-.073.114l-.444.206a.13.13 0 0 0-.073.114v.427c.001.624.51 1.13 1.139 1.13m11.723 0h-.126V4.267h.126c.628 0 1.138.506 1.138 1.131v.31a.13.13 0 0 1-.068.112l-.454.237a.13.13 0 0 0-.067.112v3.565c0 .049.028.094.072.114l.445.206c.045.02.073.065.073.114v.427a1.136 1.136 0 0 1-1.139 1.13m-6.88-3.698a5.5 5.5 0 0 0 .993.988 5.8 5.8 0 0 0 1.047-1.042 5.5 5.5 0 0 0-.993-.988 5.7 5.7 0 0 0-1.046 1.042m1.02-.35c.18 0 .325.145.325.324a.325.325 0 0 1-.65 0c0-.179.144-.324.325-.324m1.243-.022q.15-.234.248-.455c.154-.352.18-.64.067-.752q-.071-.07-.223-.07c-.14 0-.325.046-.533.137a3.4 3.4 0 0 0-.457.247 6 6 0 0 1 .898.893M6.688 6.368q-.167 0-.248.08c-.122.121-.104.41.05.771q.103.24.265.49.205-.256.452-.5a6 6 0 0 1 .503-.45 3.3 3.3 0 0 0-.493-.264 1.5 1.5 0 0 0-.529-.127m.068 1.978q-.15.233-.249.455c-.154.351-.18.639-.067.752.151.15.623.064 1.214-.314a6 6 0 0 1-.474-.425 6 6 0 0 1-.424-.468m2.039.444q-.241.24-.505.448.254.163.495.264c.363.154.653.172.775.05s.104-.41-.05-.771a3 3 0 0 0-.265-.49 6 6 0 0 1-.45.5"/><path fill="currentColor" d="M11.884 3.125H4.116l-1.015 1.01v7.73l1.015 1.01h7.768l1.015-1.01v-7.73zm.464 5.033-4.17 4.15a.24.24 0 0 1-.337 0l-4.17-4.15a.237.237 0 0 1 0-.335l4.17-4.148a.24.24 0 0 1 .336 0l4.171 4.15a.235.235 0 0 1 0 .333"/><path fill="currentColor" d="m4.175 7.99 3.834 3.816 3.834-3.815L8.01 4.176zm4.48-1.817c.52-.228.936-.224 1.172.01s.24.648.011 1.167a4 4 0 0 1-.355.624q.235.339.373.663c.222.522.212.942-.03 1.182-.125.125-.3.188-.514.188q-.295 0-.673-.157a4 4 0 0 1-.669-.373c-.464.315-.937.523-1.31.523a.66.66 0 0 1-.485-.18c-.236-.234-.24-.647-.011-1.166.088-.201.209-.412.355-.624a4 4 0 0 1-.374-.663c-.221-.522-.211-.942.03-1.182s.663-.251 1.188-.03q.326.139.666.372a3.6 3.6 0 0 1 .625-.354"/></svg>