<svg xmlns="http://www.w3.org/2000/svg" fill="none" viewBox="0 0 16 16"><path fill="currentColor" fill-rule="evenodd" d="M8 15A7 7 0 1 0 8 1a7 7 0 0 0 0 14m.591-2.93c-.217.586-.442.93-.591.93-.15 0-.374-.344-.591-.93l-.018-.047c-.28-.77-.545-1.935-.62-3.273H9.23c-.075 1.338-.34 2.503-.62 3.273l-.018.047Zm1.764-3.32a13.8 13.8 0 0 1-.508 3.102 8 8 0 0 1-.32.91 5.01 5.01 0 0 0 3.417-4.012zm2.59-1.5h-2.59a14 14 0 0 0-.503-3.1 8 8 0 0 0-.32-.911 5.01 5.01 0 0 1 3.412 4.011Zm-3.716 0H6.771c.075-1.345.339-2.514.62-3.284l.015-.04C7.622 3.342 7.846 3 8 3s.378.343.594.925l.016.041c.28.77.544 1.94.62 3.284Zm-3.585 0c.062-1.193.262-2.267.504-3.1a8 8 0 0 1 .32-.911A5.01 5.01 0 0 0 3.056 7.25zm-2.588 1.5a5.01 5.01 0 0 0 3.418 4.013 8 8 0 0 1-.321-.911 13.8 13.8 0 0 1-.508-3.102h-2.59Z" clip-rule="evenodd"/></svg>