<svg xmlns="http://www.w3.org/2000/svg" fill="none" viewBox="0 0 16 16"><path fill="currentColor" d="M1.146 13.44a.5.5 0 0 0 0 .707l.708.707a.5.5 0 0 0 .707 0L14.853 2.56a.5.5 0 0 0 0-.707l-.707-.707a.5.5 0 0 0-.707 0zm9.979-4.565h-.876l1.494-1.494a.875.875 0 0 1-.618 1.494"/><path fill="currentColor" d="M13.963 5.161 12.725 6.4c.326.356.525.83.525 1.351v.5a2 2 0 0 1-2 2H9.875a.875.875 0 0 0 0 1.75h1.375A3.75 3.75 0 0 0 15 8.25v-.5a3.74 3.74 0 0 0-1.037-2.589M4.288 8.65l1.524-1.525h-.937a.875.875 0 0 0-.587 1.524Z"/><path fill="currentColor" d="M2.75 8.25c0 .536.211 1.023.555 1.383L2.067 10.87A3.74 3.74 0 0 1 1 8.25v-.5A3.75 3.75 0 0 1 4.75 4h1.375a.875.875 0 1 1 0 1.75H4.75a2 2 0 0 0-2 2z"/></svg>