<svg xmlns="http://www.w3.org/2000/svg" fill="none" viewBox="0 0 16 16"><path fill="currentColor" d="M6.125 4a.875.875 0 1 1 0 1.75H4.75a2 2 0 0 0-2 2v.5a2 2 0 0 0 2 2h1.375a.875.875 0 0 1 0 1.75H4.75A3.75 3.75 0 0 1 1 8.25v-.5A3.75 3.75 0 0 1 4.75 4zm3.75 6.25a.875.875 0 0 0 0 1.75h1.375A3.75 3.75 0 0 0 15 8.25v-.5A3.75 3.75 0 0 0 11.25 4H9.875a.875.875 0 1 0 0 1.75h1.375a2 2 0 0 1 2 2v.5a2 2 0 0 1-2 2z"/><path fill="currentColor" d="M4.875 7.125a.875.875 0 1 0 0 1.75h6.25a.875.875 0 0 0 0-1.75z"/></svg>