<svg xmlns="http://www.w3.org/2000/svg" fill="none" viewBox="0 0 16 16"><path fill="currentColor" d="M7.058 1.315a.243.243 0 0 1 .214-.278q.725-.075 1.45 0a.243.243 0 0 1 .213.278L8.73 2.789a.26.26 0 0 1-.283.22 5 5 0 0 0-.9 0 .26.26 0 0 1-.283-.22zm3.467.425a.243.243 0 0 1 .324-.134C13.397 2.745 15 5.111 15 7.996A7.003 7.003 0 0 1 7.997 15c-2.886 0-5.254-1.606-6.39-4.15a.243.243 0 0 1 .133-.325l1.38-.558a.26.26 0 0 1 .331.136c.76 1.637 2.767 2.896 4.546 2.896a5 5 0 0 0 5.002-5.002c0-1.921-1.158-3.739-2.896-4.546a.26.26 0 0 1-.136-.331zm-6.682.94a.243.243 0 0 1 .045-.347 7 7 0 0 1 1.257-.727.243.243 0 0 1 .324.134l.558 1.38a.26.26 0 0 1-.136.331 5 5 0 0 0-.776.45.26.26 0 0 1-.355-.048zM1.74 5.469a.243.243 0 0 1-.134-.324q.301-.67.727-1.257a.243.243 0 0 1 .347-.045l1.173.917a.26.26 0 0 1 .047.355 5 5 0 0 0-.449.776.26.26 0 0 1-.331.136zm-.703 1.803a.243.243 0 0 1 .278-.214l1.474.206a.26.26 0 0 1 .22.283 5 5 0 0 0 0 .9.26.26 0 0 1-.22.283l-1.474.205a.243.243 0 0 1-.278-.213 7 7 0 0 1 0-1.45"/><path fill="currentColor" d="M6.121 5.107v5.702c0 .258.295.405.501.25l3.78-2.852a.313.313 0 0 0 0-.499l-3.78-2.85a.313.313 0 0 0-.5.25Z"/></svg>