<svg xmlns="http://www.w3.org/2000/svg" fill="none" viewBox="0 0 16 16"><path fill="currentColor" d="M7.997 7.82a1.64 1.64 0 0 1-1.648-1.63c0-.899.74-1.63 1.648-1.63a1.64 1.64 0 0 1 1.647 1.63 1.64 1.64 0 0 1-1.647 1.63"/><path fill="currentColor" fill-rule="evenodd" d="M8 1C5.105 1 2.75 3.34 2.75 6.216c0 .937.444 2.12 1.354 3.614.612 1.005 2.782 3.933 3.59 5.017.152.204.46.204.612 0 .807-1.084 2.976-4.012 3.59-5.017.91-1.495 1.354-2.677 1.354-3.614C13.25 3.34 10.895 1 8 1M4.3 6.193C4.3 8.22 5.96 9.87 8 9.87s3.7-1.65 3.7-3.676S10.04 2.519 8 2.519 4.3 4.166 4.3 6.193" clip-rule="evenodd"/></svg>