<svg xmlns="http://www.w3.org/2000/svg" fill="none" viewBox="0 0 16 16"><path fill="currentColor" fill-rule="evenodd" d="M7 1.5c-1.657 0-3 1.37-3 3.059v1.784H2.5c-.276 0-.5.228-.5.51v7.137c0 .282.224.51.5.51h11c.276 0 .5-.228.5-.51V6.853a.505.505 0 0 0-.5-.51H12V4.56c0-1.691-1.343-3.06-3-3.06zm3.25 4.843V4.56c0-.704-.56-1.275-1.25-1.275H7c-.69 0-1.25.57-1.25 1.275v1.784zm-1.344 5.372a.6.6 0 0 1 .284-.488 2.11 2.11 0 0 0 .935-1.761c0-1.162-.923-2.103-2.063-2.103C6.923 7.363 6 8.304 6 9.466c0 .716.351 1.349.888 1.728a.6.6 0 0 1 .268.48v1.297c0 .281.224.51.5.51h.75c.276 0 .5-.229.5-.51z" clip-rule="evenodd"/></svg>