<svg xmlns="http://www.w3.org/2000/svg" fill="none" viewBox="0 0 16 16"><path fill="currentColor" d="M3.005 13V3h5.512a.5.5 0 0 0 .501-.5v-1a.5.5 0 0 0-.5-.5H1.5a.5.5 0 0 0-.5.5v13a.5.5 0 0 0 .501.5h7.016a.5.5 0 0 0 .501-.5v-1a.5.5 0 0 0-.5-.5H3.004Z"/><path fill="currentColor" d="M5.949 8.5a.5.5 0 0 0 .501.5h4.92l-1.508 1.505a.5.5 0 0 0 .001.708l.711.705a.5.5 0 0 0 .708-.001l3.571-3.563a.5.5 0 0 0 0-.708l-3.57-3.56a.5.5 0 0 0-.707-.002l-.71.705a.5.5 0 0 0-.002.708L11.37 7H6.45a.5.5 0 0 0-.501.5z"/></svg>