<svg xmlns="http://www.w3.org/2000/svg" fill="none" viewBox="0 0 16 16"><path fill="currentColor" d="M6.495 2.901a.47.47 0 0 1 .505.48v1.002c0 .273-.22.493-.491.53a4.063 4.063 0 1 0 4.052 6.091l-2.048-.003a.5.5 0 0 1-.5-.503l.005-1a.5.5 0 0 1 .501-.497l4.99.008a.5.5 0 0 1 .5.5L14 14.5a.5.5 0 0 1-.5.5h-1a.5.5 0 0 1-.5-.5l.003-2.05A6.063 6.063 0 1 1 6.495 2.9"/><path fill="currentColor" fill-rule="evenodd" d="M11.438 1a3.563 3.563 0 1 1 0 7.125 3.563 3.563 0 0 1 0-7.125m-.813 1a.125.125 0 0 0-.125.125v.75c0 .069.056.125.125.125H11v3.875c0 .069.056.125.125.125h.75A.125.125 0 0 0 12 6.875v-4.75A.125.125 0 0 0 11.875 2z" clip-rule="evenodd"/></svg>