<svg xmlns="http://www.w3.org/2000/svg" fill="none" viewBox="0 0 16 16"><path fill="currentColor" d="m7.14 9.12-.306 1.798-.512.156v-.986a1.3 1.3 0 0 0-.385-.915l-.866-.867a1.3 1.3 0 0 0-.916-.384H3.148l.174-.513 1.8-.305a.98.98 0 0 1 .867.271l.9.9a.98.98 0 0 1 .25.846m-4.578 2.527 2.914-1.171-.03 1.77-.574-.724-3.17.992.995-3.18-.711-.558 1.76-.037zm2.1-2.746.65.65a.195.195 0 0 1-.07.32l-1.453.559.568-1.459a.195.195 0 0 1 .305-.067zm4.467-.65.9-.9a.98.98 0 0 1 .867-.272l1.8.305.174.513h-1.007a1.3 1.3 0 0 0-.915.385l-.858.894a1.3 1.3 0 0 0-.384.915v.986l-.513-.156-.305-1.797a.98.98 0 0 1 .25-.87zm3.116.485 1.763.037-.71.561.994 3.18-3.17-.992-.574.723-.03-1.77 2.914 1.172zm-.61.232.56 1.456-1.43-.55a.196.196 0 0 1-.07-.32l.65-.65a.195.195 0 0 1 .308.067zm-5.03-3.662c-1.663-1.05-4.03-1.003-4.03-1.003V3.5Q1.723 4.056 1 4.772a6.5 6.5 0 0 1 1.575.998v-.814s1.403-.235 4.049.347zm6.82-.35v.814A6.4 6.4 0 0 1 15 4.776 10 10 0 0 0 13.425 3.5v.803s-2.355-.046-4.046 1c2.643-.582 4.047-.347 4.047-.347"/></svg>