<svg xmlns="http://www.w3.org/2000/svg" fill="none" viewBox="0 0 24 24"><path fill="currentColor" d="M2.01 3.22c0-.397.32-.72.713-.72h18.554c.394 0 .713.323.713.72v7.206c0 .398-.32.72-.713.72h-2.141V6.103c0-.398-.32-.72-.714-.72h-1.427a.717.717 0 0 0-.713.72v5.043h-2.855V8.985c0-.398-.32-.72-.713-.72h-1.428a.717.717 0 0 0-.713.72v2.161H7.718V6.103c0-.398-.32-.72-.713-.72H5.578a.717.717 0 0 0-.714.72v5.043h-2.14a.717.717 0 0 1-.714-.72zm5.158 15.132h9.664l-.891.899a.725.725 0 0 0 0 1.019l1.01 1.019a.71.71 0 0 0 1.008 0l3.832-3.869a.725.725 0 0 0 0-1.019l-3.854-3.892a.71.71 0 0 0-1.01 0l-1.008 1.02a.725.725 0 0 0 0 1.018l.913.922H7.168l.913-.921a.726.726 0 0 0 0-1.02L7.072 12.51a.71.71 0 0 0-1.009 0L2.21 16.401a.725.725 0 0 0 0 1.019l3.832 3.869a.71.71 0 0 0 1.009 0l1.01-1.019a.726.726 0 0 0 0-1.019z"/></svg>