<svg xmlns="http://www.w3.org/2000/svg" fill="none" viewBox="0 0 24 24"><path fill="currentColor" fill-rule="evenodd" d="M8.418 1H6.535a.8.8 0 0 0-.307.062.8.8 0 0 0-.413.105L1.393 3.721a.786.786 0 0 0-.288 1.073L3.66 9.217a.786.786 0 0 0 1.073.288l1.017-.588V17.5c0 .434.352.786.786.786h1.917a6.9 6.9 0 0 1 6.833-7.858h3.034V8.957l.95.549a.786.786 0 0 0 1.073-.288l2.553-4.423a.786.786 0 0 0-.288-1.073l-4.422-2.554a.8.8 0 0 0-.342-.103.8.8 0 0 0-.31-.064H15.65a3.9 3.9 0 0 1-7.232 0Zm.65 3.726a1.964 1.964 0 1 1 0 3.928 1.964 1.964 0 0 1 0-3.928" clip-rule="evenodd"/><path fill="currentColor" fill-rule="evenodd" d="M15.078 13.571v.005a3.757 3.757 0 0 0 0 7.503v1.135c0 .434.352.786.786.786h6.284a.786.786 0 0 0 .786-.786v-7.857a.786.786 0 0 0-.786-.786zm0 1.975a1.793 1.793 0 0 0 0 3.563zm3.928-.145a1.964 1.964 0 1 1 0 3.928 1.964 1.964 0 0 1 0-3.928" clip-rule="evenodd"/></svg>