<svg xmlns="http://www.w3.org/2000/svg" fill="none" viewBox="0 0 16 16"><path fill="currentColor" fill-rule="evenodd" d="M14.5 1.5c.276 0 .5.225.5.503v9.057a.5.5 0 0 1-.5.503H13v2.433a.5.5 0 0 1-.854.356l-2.771-2.79H1.5a.5.5 0 0 1-.5-.502V2.003c0-.278.224-.503.5-.503zm-2.932 5.615c-.034-.125-.209-.125-.242 0l-.347 1.299a.13.13 0 0 1-.089.088l-1.29.35c-.124.034-.124.21 0 .243l1.29.35a.13.13 0 0 1 .089.089l.347 1.299c.033.124.208.124.242 0l.347-1.3a.13.13 0 0 1 .088-.088l1.291-.35c.124-.033.124-.21 0-.243l-1.29-.35a.13.13 0 0 1-.089-.088zm-4.896-4.77c-.057-.22-.366-.22-.424 0l-.672 2.58a.22.22 0 0 1-.154.157l-2.518.7c-.214.06-.214.365 0 .425l2.518.7a.22.22 0 0 1 .154.157l.672 2.58c.058.22.367.22.424 0l.672-2.58a.22.22 0 0 1 .154-.157l2.518-.7c.214-.06.214-.365 0-.425l-2.518-.7a.22.22 0 0 1-.154-.156z" clip-rule="evenodd"/></svg>