<svg xmlns="http://www.w3.org/2000/svg" fill="none" viewBox="0 0 16 16"><path fill="currentColor" d="M6.238 9.783a.26.26 0 0 1 .313-.093l3.436 1.436c.059.024.106.07.133.127l1.357 2.885a.255.255 0 0 1-.233.362H3.522a.254.254 0 0 1-.213-.396zm8.641-2.28a.253.253 0 0 1 .06.38l-1.568 1.846a.25.25 0 0 0-.018.304l1.178 1.773a.254.254 0 0 1-.144.384l-2.392.68-.44-.934 1.204-.342a.254.254 0 0 0 .144-.385l-.831-1.25a.25.25 0 0 1 .018-.304l1.298-1.527a.253.253 0 0 0-.062-.38l-1.192-.734.605-.826zM8.828 1.59a.26.26 0 0 1 .412.027l1.144 1.756-.64.898-.62-.952a.26.26 0 0 0-.411-.028L7.569 4.618a.26.26 0 0 1-.32.058l-1.421-.78a.258.258 0 0 0-.38.193l-.184 1.568a.256.256 0 0 1-.218.223l-1.572.233a.254.254 0 0 0-.19.37l.736 1.379c.053.1.033.224-.05.302L2.869 9.215a.253.253 0 0 0 .068.414l1.635.762-.574.858-2.85-1.329a.253.253 0 0 1-.068-.414L2.7 7.962a.25.25 0 0 0 .05-.302L1.698 5.689a.254.254 0 0 1 .189-.37l2.228-.331a.256.256 0 0 0 .218-.222l.27-2.304a.257.257 0 0 1 .38-.193l2.03 1.113a.26.26 0 0 0 .32-.058zm3.166 1.256a.26.26 0 0 1 .359-.06l.837.592a.255.255 0 0 1 .06.356l-2.66 3.684.53.374a.253.253 0 0 1-.044.439L8.353 9.457a.257.257 0 0 1-.363-.256l.289-2.948a.258.258 0 0 1 .405-.183l.651.46z"/></svg>