<svg xmlns="http://www.w3.org/2000/svg" fill="none" viewBox="0 0 16 16"><path fill="currentColor" d="M10.777 1.188a.247.247 0 0 1 .303-.18l.478.132c.132.036.21.176.175.311l-3.489 13.36a.247.247 0 0 1-.303.18l-.478-.131a.255.255 0 0 1-.175-.311l3.489-13.36ZM8.74 3.992c.163 0 .282.159.24.32l-1.992 7.62a.25.25 0 0 1-.24.189h-.54a.25.25 0 0 1-.24-.188l-.974-3.73-.974 3.73a.25.25 0 0 1-.239.188h-.54a.25.25 0 0 1-.24-.188c-.66-2.529-1.33-5.08-1.992-7.62a.253.253 0 0 1 .239-.32h.508c.112 0 .21.077.239.188.498 1.918 1.01 3.857 1.514 5.783l.838-3.208c.031-.121.116-.217.246-.217h.799c.12 0 .217.091.247.207l.84 3.218q.755-2.893 1.518-5.784a.25.25 0 0 1 .239-.188h.505Z"/><path fill="currentColor" fill-rule="evenodd" d="M12.763 3.985c.112 0 .21.078.24.189.653 2.544 1.32 5.086 1.988 7.627a.253.253 0 0 1-.239.32h-.51c-.122 0-.217-.093-.248-.21l-.474-1.822h-2.09l-.48 1.844a.25.25 0 0 1-.24.188h-.51a.253.253 0 0 1-.238-.32c.664-2.53 1.317-5.064 1.976-7.595a.3.3 0 0 1 .03-.069.25.25 0 0 1 .226-.152zm-1.068 5.088h1.56l-.78-2.994z" clip-rule="evenodd"/></svg>