<svg xmlns="http://www.w3.org/2000/svg" fill="none" viewBox="0 0 16 16"><path fill="currentColor" fill-rule="evenodd" d="M13 1H3v2.547c0 .2.12.382.304.46l4.5 1.915.004.001-.003.033s-.009.242-.031.602a3.723 3.723 0 0 0-3.528 3.532c-.36.022-.603.031-.603.031s-.333.02-.333.19.333.19.333.19.244.005.606.024a3.723 3.723 0 0 0 3.556 3.474c.026.396.035.669.035.669s.026.337.198.332c.17-.005.18-.338.18-.338s.001-.273.017-.67a3.72 3.72 0 0 0 3.44-3.467c.397-.02.671-.024.671-.024s.334-.02.334-.19-.334-.19-.334-.19-.272-.007-.668-.03A3.723 3.723 0 0 0 8.21 6.56c-.02-.361-.027-.605-.027-.605l-.002-.029.014-.005 4.5-1.915a.5.5 0 0 0 .304-.46zM8.754 9.55c.156.157.585.271 1.094.355a1.93 1.93 0 0 0-1.457-1.504c.085.534.202.988.363 1.15Zm-.448-1.8a2.55 2.55 0 0 1 2.189 2.243c.329.036.658.063.947.082a3.49 3.49 0 0 0-3.216-3.277c.018.286.044.618.08.952m.448 3.32c.165-.165.586-.283 1.083-.366a1.93 1.93 0 0 1-1.442 1.45c.08-.498.194-.918.359-1.083Zm1.734-.455a2.55 2.55 0 0 1-2.175 2.19c-.032.33-.054.661-.068.95a3.49 3.49 0 0 0 3.193-3.218c-.29.018-.62.043-.95.078m-3.257.459c.162.162.283.59.372 1.095a1.93 1.93 0 0 1-1.517-1.467c.527.085.978.204 1.145.372m.466 1.741a2.55 2.55 0 0 1-2.262-2.198 22 22 0 0 0-.95-.079 3.49 3.49 0 0 0 3.303 3.225 21 21 0 0 0-.09-.948Zm-.462-3.264c-.154.154-.616.27-1.16.354A1.93 1.93 0 0 1 7.589 8.39c-.084.545-.2 1.008-.354 1.162ZM5.43 9.99a2.55 2.55 0 0 1 2.245-2.247c.036-.333.064-.664.084-.949a3.49 3.49 0 0 0-3.277 3.28c.285-.02.616-.048.948-.084" clip-rule="evenodd"/></svg>