<svg xmlns="http://www.w3.org/2000/svg" fill="none" viewBox="0 0 16 16"><path fill="currentColor" d="M7.711 13.006a.5.5 0 0 0 .582 0L15 8.206v6.357a.5.5 0 0 1-.5.5h-13a.5.5 0 0 1-.5-.5v-6.36z"/><path fill="currentColor" fill-rule="evenodd" d="M13.005 7a.5.5 0 0 1-.201.318l-4.511 3.228a.5.5 0 0 1-.582 0l-4.51-3.228A.5.5 0 0 1 2.998 7L3 1.5a.5.5 0 0 1 .5-.5h9a.5.5 0 0 1 .5.5V7zM4.75 5a.25.25 0 0 0-.25.25v.5c0 .138.112.25.25.25h6.5a.25.25 0 0 0 .25-.25v-.5a.25.25 0 0 0-.25-.25zm0-2a.25.25 0 0 0-.25.25v.5c0 .138.112.25.25.25h6.5a.25.25 0 0 0 .25-.25v-.5a.25.25 0 0 0-.25-.25z" clip-rule="evenodd"/></svg>