<svg xmlns="http://www.w3.org/2000/svg" fill="none" viewBox="0 0 16 16"><path fill="currentColor" d="M1.146 13.44a.5.5 0 0 0 0 .707l.708.707a.5.5 0 0 0 .707 0L14.853 2.56a.5.5 0 0 0 0-.707l-.707-.707a.5.5 0 0 0-.707 0zm7.301.27-1.31-1.322 1.738-1.738v2.885a.25.25 0 0 1-.428.175m3.844-6.476-1.65 1.65v1.702c0 .193.209.31.362.193a3.49 3.49 0 0 0 1.288-3.545M2.124 10.33l6.751-6.75V2.374a.25.25 0 0 0-.428-.175L5.174 5.506a.25.25 0 0 1-.177.074H2.125a.25.25 0 0 0-.25.25v4.25c0 .138.112.25.25.25Z"/></svg>