<svg xmlns="http://www.w3.org/2000/svg" fill="none" viewBox="0 0 16 16"><path fill="currentColor" d="M6.577 2.89a5.05 5.05 0 0 0 4.73 6.784l.165 1.472c.025.22.21.385.431.385h.805c.24 0 .434.194.434.434v.867c0 .24-.195.433-.434.433H8.697v.045a1.735 1.735 0 0 1-3.469 0v-.045H1.434A.434.434 0 0 1 1 12.833v-.867c0-.24.194-.434.434-.434h.805c.22 0 .406-.166.43-.385l.545-4.84A3.88 3.88 0 0 1 6.577 2.89"/><path fill="currentColor" fill-rule="evenodd" d="M11.407 1a3.593 3.593 0 1 1 0 7.186 3.593 3.593 0 0 1 0-7.186m-.248 4.832a.496.496 0 0 0-.495.495v.186c0 .274.222.496.495.496h.496a.496.496 0 0 0 .495-.496v-.186a.496.496 0 0 0-.495-.495zm0-3.717a.496.496 0 0 0-.495.496v2.106c0 .274.222.495.495.495h.496a.496.496 0 0 0 .495-.495V2.61a.496.496 0 0 0-.495-.496z" clip-rule="evenodd"/></svg>