<svg xmlns="http://www.w3.org/2000/svg" fill="none" viewBox="0 0 16 16"><path fill="currentColor" d="M5.994 2.796a5 5 0 0 0-.382 1.916c0 2.868 2.436 5.193 5.44 5.193A5.7 5.7 0 0 0 12.14 9.8l.146 1.235a.46.46 0 0 0 .464.396h.867c.258 0 .468.2.468.446v.892c0 .247-.21.446-.468.446H9.294v.046C9.267 14.226 8.44 15 7.423 15c-1.015 0-1.842-.774-1.868-1.738v-.046H1.467A.457.457 0 0 1 1 12.77v-.892c0-.246.21-.446.467-.446h.868a.46.46 0 0 0 .464-.396l.587-4.977c.177-1.503 1.212-2.732 2.608-3.263"/><path fill="currentColor" fill-rule="evenodd" d="M11.128 1C13.267 1 15 2.654 15 4.695S13.267 8.39 11.128 8.39 7.257 6.736 7.257 4.695 8.99 1 11.128 1m2.413 2.136a.55.55 0 0 0-.756 0l-2.167 2.069-.975-.931a.55.55 0 0 0-.755 0l-.378.36a.493.493 0 0 0 0 .72L10.234 7a.55.55 0 0 0 .755 0l.08-.077a.5.5 0 0 0 .08-.062l2.77-2.643a.493.493 0 0 0 0-.721z" clip-rule="evenodd"/></svg>