<svg xmlns="http://www.w3.org/2000/svg" fill="none" viewBox="0 0 16 16"><path fill="currentColor" d="M6 2.805a5 5 0 0 0-.376 1.902c0 2.865 2.433 5.188 5.434 5.188q.547-.001 1.065-.1l.147 1.246a.46.46 0 0 0 .464.395h.866c.258 0 .467.2.467.446v.89a.457.457 0 0 1-.467.446H9.283v.046C9.257 14.227 8.43 15 7.417 15s-1.84-.773-1.866-1.736l-.001-.046H1.467A.456.456 0 0 1 1 12.773v-.891c0-.246.209-.446.467-.446h.866a.46.46 0 0 0 .464-.395l.586-4.972C3.56 4.563 4.6 3.332 6 2.805"/><path fill="currentColor" fill-rule="evenodd" d="M11.133 1C13.27 1 15 2.652 15 4.69c0 2.04-1.731 3.692-3.867 3.692-2.135 0-3.866-1.653-3.866-3.691C7.267 2.652 8.997 1 11.133 1m.463.634a.55.55 0 0 0-.755 0l-.377.36a.493.493 0 0 0 0 .72l1.214 1.158h-.408c-.99 0-1.94.376-2.64 1.044l-.351.335a.493.493 0 0 0 0 .72l.377.36a.55.55 0 0 0 .754 0l.351-.335c.4-.382.943-.596 1.509-.596h.256l-1.045.997a.493.493 0 0 0 0 .72l.377.36a.55.55 0 0 0 .754 0l2.676-2.553a.493.493 0 0 0 0-.72z" clip-rule="evenodd"/></svg>