<svg xmlns="http://www.w3.org/2000/svg" fill="none" viewBox="0 0 16 16"><path fill="currentColor" d="m8.154 9.303 4.839-4.86v2.146c0 .279.225.505.503.504l1.004-.004c.276 0 .5-.226.5-.504v-5.08A.503.503 0 0 0 14.498 1H9.443c-.276 0-.5.225-.502.503L8.938 2.51c0 .279.224.506.502.506h2.133l-4.838 4.86a.506.506 0 0 0 0 .713l.71.713a.5.5 0 0 0 .709 0Z"/><path fill="currentColor" d="M6.52 5.043a.503.503 0 0 0 .502-.504V3.531a.503.503 0 0 0-.502-.504H1.502A.503.503 0 0 0 1 3.53v10.965c0 .278.225.504.502.504h10.915a.503.503 0 0 0 .502-.504V9.454a.503.503 0 0 0-.502-.504h-1.004a.503.503 0 0 0-.502.504v3.025a.503.503 0 0 1-.502.504h-6.9a.503.503 0 0 1-.502-.504V5.547c0-.278.225-.504.502-.504z"/></svg>