<svg xmlns="http://www.w3.org/2000/svg" fill="none" viewBox="0 0 16 16"><path fill="currentColor" d="M1 1.504C1 1.226 1.224 1 1.5 1H3v2.016H1zm3 1.512V1h8v2.016zm9 0V1h1.5c.276 0 .5.226.5.504v1.512zm0 1.009h2v5.79a.5.5 0 0 1-.21.41L13 11.515z"/><path fill="currentColor" fill-rule="evenodd" d="M12 4.025v8.21l-3.71 2.671a.5.5 0 0 1-.58 0L4 12.235v-8.21zm-3.793.85a.25.25 0 0 0-.476 0l-.642 2.006a.25.25 0 0 1-.238.175l-2.09-.005c-.242 0-.343.313-.147.456l1.694 1.235a.25.25 0 0 1 .09.282l-.65 2.003c-.075.232.19.426.386.282l1.687-1.242a.25.25 0 0 1 .295 0l1.688 1.242c.196.144.46-.05.385-.282l-.65-2.003a.25.25 0 0 1 .091-.282l1.693-1.235c.197-.143.096-.457-.147-.456l-2.09.005a.25.25 0 0 1-.238-.175l-.641-2.005Z" clip-rule="evenodd"/><path fill="currentColor" d="M3 4.025v7.49l-1.79-1.29a.5.5 0 0 1-.21-.41v-5.79z"/></svg>