<svg xmlns="http://www.w3.org/2000/svg" fill="none" viewBox="0 0 16 16"><path fill="currentColor" d="m3.853 1.293.127.214a.13.13 0 0 0 .122.06l.526-.06a.125.125 0 0 1 .139.128L4.673 4.82a.126.126 0 0 0 .096.126c.202.05.485.123.51.15.03.029-.009-1.556-.034-2.449a.125.125 0 0 1 .105-.127l.994-.154a.125.125 0 0 1 .143.11c.044.462.108 1.195.09 1.244-.017.043-.374.189-.661.299a.126.126 0 0 0-.036.215l.186.154a.13.13 0 0 0 .118.022l1.598-.522a.124.124 0 0 0 .085-.14l-.014-.076a.125.125 0 0 0-.126-.103l-.491.013a.125.125 0 0 1-.128-.134l.085-1.132a.13.13 0 0 0-.06-.116l-.456-.275a.13.13 0 0 0-.08-.017l-1.165.139a.125.125 0 0 1-.138-.145l.073-.444a.125.125 0 0 0-.059-.128l-.489-.29a.13.13 0 0 0-.076-.018l-.795.082a.125.125 0 0 0-.095.188m2.838 3.302c-.144.106-.339.25-.483.362-.08.063-.045.166.058.171l.224.011a.125.125 0 0 1 .12.13c-.032.738-.088 2.015-.097 2.059-.009.037.19.044.347.041a.12.12 0 0 0 .117-.099l.435-2.145A.13.13 0 0 0 7.366 5l-.525-.404a.124.124 0 0 0-.15-.002m2.173-2.161c-.007.028-.177-.137-.327-.284-.079-.078-.034-.252.074-.279l.757-.187c.05-.012.1.007.13.048l.114.154a.126.126 0 0 1-.049.189c-.289.134-.69.326-.699.359m1.351-.891-.237-.06c-.114-.028-.144-.201-.045-.264l.274-.175a.13.13 0 0 1 .136.001l.511.334a.13.13 0 0 1 .055.127l-.317 1.778a.13.13 0 0 1-.069.09l-.11.054a.125.125 0 0 1-.179-.118l.075-1.64a.125.125 0 0 0-.094-.127m1.487.01-.447.431a.122.122 0 0 0 .024.194l.145.084q.047.027.098.012l.728-.218c.1-.03.122-.163.036-.222l-.426-.294a.125.125 0 0 0-.158.013M8.676 4.225l-.148-.297a.125.125 0 0 1 .105-.18l3.298-.206a.13.13 0 0 1 .1.041l.376.418c.027.03.038.07.03.108-.233 1.15-.685 3.341-.725 3.372-.051.038-.648.086-.712.125-.049.03.288-2.092.484-3.29a.125.125 0 0 0-.13-.145l-2.56.123a.13.13 0 0 1-.118-.07m-4.54 5.694c-.047 0-.289-.255-.456-.435a.128.128 0 0 1 .058-.209L7.247 8.27a.125.125 0 0 1 .154.083l.032.106a.125.125 0 0 1-.067.15c-.498.228-1.346.608-1.413.608-.065 0-.05.722-.03 1.173a.124.124 0 0 0 .121.118l.568.014a.125.125 0 0 0 .128-.127l-.008-.666a.125.125 0 0 1 .189-.109l.467.28c.04.023.064.068.06.115l-.283 4.42a.13.13 0 0 1-.066.103l-.345.184a.125.125 0 0 1-.184-.114l.104-3.435a.125.125 0 0 0-.125-.129H4.953a.125.125 0 0 0-.123.105l-.096.58a.125.125 0 0 0 .136.145l.841-.083c.04-.004.08.012.107.042l.4.461c.038.045.04.11.004.158-.64.84-1.815 2.384-1.845 2.429-.025.037-.147-.093-.237-.201a.12.12 0 0 1-.009-.143 816 816 0 0 0 1.416-2.252c.037-.064-.797.077-1.325.176a.125.125 0 0 1-.148-.114 103 103 0 0 1-.09-1.226c-.001-.028-.124-.152-.257-.275a.13.13 0 0 1 .079-.223l1.305-.072a.125.125 0 0 0 .118-.125v-.767a.125.125 0 0 0-.175-.115c-.364.158-.875.375-.918.375m5.55-.615L9.438 9.2a.125.125 0 0 1-.026-.217l.886-.647a.13.13 0 0 1 .116-.017l.45.162a.125.125 0 0 1 .017.228l-1.087.588a.13.13 0 0 1-.108.006m-1.231.783-.33-.398c-.06-.072-.016-.162.077-.164l3.252-.071q.054 0 .092.037l.508.518a.12.12 0 0 1 .036.095c-.09 1.462-.27 4.296-.29 4.349-.025.067-.686.51-.724.548-.03.03.043-3.184.086-4.92a.125.125 0 0 0-.134-.128l-2.469.178a.12.12 0 0 1-.104-.044"/><path fill="currentColor" d="m8.982 11.276-.137-.09a.125.125 0 0 1 .02-.22l1.14-.477a.12.12 0 0 1 .124.016c.194.148.485.38.439.38-.05 0-.976.262-1.483.407a.13.13 0 0 1-.103-.016m.439 1.092-.344-.188a.125.125 0 0 1 .01-.224l1.176-.511a.12.12 0 0 1 .168.088c.013.085.022.17.01.198-.02.043-.567.415-.891.631a.13.13 0 0 1-.129.006"/></svg>