<svg xmlns="http://www.w3.org/2000/svg" fill="none" viewBox="0 0 24 24"><path fill="currentColor" fill-rule="evenodd" d="M11.42 1.21a.25.25 0 0 1 .247-.21h.738a.25.25 0 0 1 .247.21l.202 1.248a.25.25 0 0 0 .153.192l.71.29a.25.25 0 0 1 .152.276l-.16.896a.25.25 0 0 0 .123.26l3.062 1.699a.25.25 0 0 1 .044.406l-1.006.89a.25.25 0 0 1-.221.057l-1.378-.317a.25.25 0 0 0-.304.27l.43 4.272c.029.287-.37.387-.48.12l-.387-.936a.25.25 0 0 0-.23-.155h-2.65a.25.25 0 0 0-.232.155l-.387.937c-.11.266-.508.165-.48-.121l.43-4.273a.25.25 0 0 0-.304-.269l-1.378.317a.25.25 0 0 1-.22-.057l-1.007-.89a.25.25 0 0 1 .044-.406l3.061-1.7a.25.25 0 0 0 .124-.26l-.16-.895a.25.25 0 0 1 .152-.276l.71-.29a.25.25 0 0 0 .153-.192zm1.475 6.93a.25.25 0 0 0-.246-.204h-1.226a.25.25 0 0 0-.245.203l-.262 1.354a.25.25 0 0 0 .245.298h1.75a.25.25 0 0 0 .246-.298z" clip-rule="evenodd"/><path fill="currentColor" d="M11.406 13.656c.152-.152.121-.357-.069-.459L5.59 10.134a.56.56 0 0 0-.619.093l-2.373 2.38c-.152.152-.122.357.068.458l5.748 3.064c.19.1.467.06.619-.093zm1.281 0c-.152-.152-.122-.357.068-.459l5.656-3.014a.56.56 0 0 1 .618.093l2.374 2.38c.152.152.122.357-.068.458l-1.487.793v.098l-.064-.064-4.105 2.188a.56.56 0 0 1-.619-.093zm.931 3.208v5.888c0 .216.154.308.344.207l5.542-2.954a.71.71 0 0 0 .344-.573v-3.584l-4.437 2.365a.47.47 0 0 1-.526-.079zm-3.114 5.888v-5.924l-1.292 1.295a.47.47 0 0 1-.526.079l-4.414-2.353v3.581c0 .216.154.473.344.574l5.545 2.955c.19.101.343.009.343-.207"/></svg>