<svg xmlns="http://www.w3.org/2000/svg" fill="none" viewBox="0 0 16 16"><path fill="currentColor" d="m10.096 13.308-1.158 1.165a.52.52 0 0 1-.742 0l-2.224-2.237-2.594 2.61a.52.52 0 0 1-.742 0l-1.482-1.492a.53.53 0 0 1 0-.745l2.594-2.61-2.224-2.236a.53.53 0 0 1 0-.746l1.159-1.165zm1.177-11.617c.723.278 1.55.909 1.825 1.516.297.658.419 1.051.847 1.618a.56.56 0 0 1-.034.733l-2.838 2.854a.165.165 0 0 0 0 .232.16.16 0 0 0 .203.022l2.798-1.81c.255-.165.606-.085.732.192.16.353.264.763.137 1.292a.5.5 0 0 1-.127.222l-3.608 3.628-7.413-7.456 3.501-3.521a.5.5 0 0 1 .185-.117c.479-.156.916-.104 1.326.03.308.099.408.474.228.744L6.504 5.653a.16.16 0 0 0 .02.206.16.16 0 0 0 .229 0l4.025-4.048a.47.47 0 0 1 .495-.12"/></svg>