<svg xmlns="http://www.w3.org/2000/svg" fill="none" viewBox="0 0 16 16"><path fill="currentColor" fill-rule="evenodd" d="M11.626 1.809a.5.5 0 0 1 .33.146l2.12 2.12a.5.5 0 0 1 .09.587.5.5 0 0 1-.09.121l-1.972 1.973.735.736a.5.5 0 0 1 0 .707l-.707.707a.5.5 0 0 1-.707 0l-.735-.736-5.704 5.703a.5.5 0 0 1-.36.154h-2.12a.5.5 0 0 1-.5-.5v-2.122c0-.14.056-.265.148-.356l5.707-5.707-.805-.805a.5.5 0 0 1 0-.707l.707-.707a.5.5 0 0 1 .707 0l.805.805 1.973-1.973a.5.5 0 0 1 .378-.146m-8.62 9.803v1.415h1.413l5.563-5.564L8.568 6.05z" clip-rule="evenodd"/></svg>