<svg xmlns="http://www.w3.org/2000/svg" fill="none" viewBox="0 0 16 16"><path fill="currentColor" d="M13 3.5a.5.5 0 0 0-.5-.5h-3a.5.5 0 0 1-.5-.5v-1a.5.5 0 0 1 .5-.5h5a.5.5 0 0 1 .5.5v5a.5.5 0 0 1-.5.5h-1a.5.5 0 0 1-.5-.5zM7.37 8.364 4.732 4.55a1 1 0 0 1 1.645-1.138l1.065 1.54 3.203.007c.202 0 .384.124.46.312l1.74 4.331a.5.5 0 0 1-.104.53l-2.473 2.557a.5.5 0 0 1-.579.099l-4.93-2.458a1 1 0 0 1 .284-1.958l2.329-.008ZM3.5 13a.5.5 0 0 1-.5-.5v-3a.5.5 0 0 0-.5-.5h-1a.5.5 0 0 0-.5.5v5a.5.5 0 0 0 .5.5h5a.5.5 0 0 0 .5-.5v-1a.5.5 0 0 0-.5-.5z"/></svg>