<svg xmlns="http://www.w3.org/2000/svg" fill="none" viewBox="0 0 16 16"><path fill="currentColor" fill-rule="evenodd" d="M6.729 3a5 5 0 0 0-.204 2H3.5a.5.5 0 0 0-.5.5v1a.5.5 0 0 0 .5.5h3.669q.318.549.76 1H3.5a.5.5 0 0 0-.5.5v1a.5.5 0 0 0 .5.5h4.997a.5.5 0 0 0 .5-.5v-.671A5 5 0 0 0 11 9.475v2.99a1 1 0 0 1-.288.702L9.2 14.702a1 1 0 0 1-.712.298H1.5a.5.5 0 0 1-.5-.5v-11a.5.5 0 0 1 .5-.5zM3.5 11a.5.5 0 0 0-.5.5v1a.5.5 0 0 0 .5.5h3.543a.5.5 0 0 0 .5-.5v-1a.5.5 0 0 0-.5-.5z" clip-rule="evenodd"/><path fill="currentColor" fill-rule="evenodd" d="M11.5 1a3.5 3.5 0 1 1 0 7 3.5 3.5 0 0 1 0-7m-.607 1.588a.25.25 0 0 0-.393.205v3.414a.25.25 0 0 0 .393.205l2.44-1.707a.25.25 0 0 0 0-.41z" clip-rule="evenodd"/></svg>