<svg xmlns="http://www.w3.org/2000/svg" fill="none" viewBox="0 0 16 16"><path fill="currentColor" d="M2.75 14a.25.25 0 0 1 .25.25v.5a.25.25 0 0 1-.25.25h-1.5a.25.25 0 0 1-.25-.25v-.5a.25.25 0 0 1 .25-.25zm3 0a.25.25 0 0 1 .25.25v.5a.25.25 0 0 1-.25.25h-1.5a.25.25 0 0 1-.25-.25v-.5a.25.25 0 0 1 .25-.25zm3 0a.25.25 0 0 1 .25.25v.5a.25.25 0 0 1-.25.25h-1.5a.25.25 0 0 1-.25-.25v-.5a.25.25 0 0 1 .25-.25zm3 0a.25.25 0 0 1 .25.25v.5a.25.25 0 0 1-.25.25h-1.5a.25.25 0 0 1-.25-.25v-.5a.25.25 0 0 1 .25-.25zm3 0a.25.25 0 0 1 .25.25v.5a.25.25 0 0 1-.25.25h-1.5a.25.25 0 0 1-.25-.25v-.5a.25.25 0 0 1 .25-.25zm-12-2a.25.25 0 0 1 .25.25v.5a.25.25 0 0 1-.25.25h-1.5a.25.25 0 0 1-.25-.25v-.5a.25.25 0 0 1 .25-.25zm3 0a.25.25 0 0 1 .25.25v.5a.25.25 0 0 1-.25.25h-1.5a.25.25 0 0 1-.25-.25v-.5a.25.25 0 0 1 .25-.25zm3 0a.25.25 0 0 1 .25.25v.5a.25.25 0 0 1-.25.25h-1.5a.25.25 0 0 1-.25-.25v-.5a.25.25 0 0 1 .25-.25zm3 0a.25.25 0 0 1 .25.25v.5a.25.25 0 0 1-.25.25h-1.5a.25.25 0 0 1-.25-.25v-.5a.25.25 0 0 1 .25-.25zm3 0a.25.25 0 0 1 .25.25v.5a.25.25 0 0 1-.25.25h-1.5a.25.25 0 0 1-.25-.25v-.5a.25.25 0 0 1 .25-.25zm-12-2a.25.25 0 0 1 .25.25v.5a.25.25 0 0 1-.25.25h-1.5a.25.25 0 0 1-.25-.25v-.5a.25.25 0 0 1 .25-.25zm3 0a.25.25 0 0 1 .25.25v.5a.25.25 0 0 1-.25.25h-1.5a.25.25 0 0 1-.25-.25v-.5a.25.25 0 0 1 .25-.25zm3 0a.25.25 0 0 1 .25.25v.5a.25.25 0 0 1-.25.25h-1.5a.25.25 0 0 1-.25-.25v-.5a.25.25 0 0 1 .25-.25zm6 0a.25.25 0 0 1 .25.25v.5a.25.25 0 0 1-.25.25h-1.5a.25.25 0 0 1-.25-.25v-.5a.25.25 0 0 1 .25-.25zm-12-2a.25.25 0 0 1 .25.25v.5a.25.25 0 0 1-.25.25h-1.5A.25.25 0 0 1 1 8.75v-.5A.25.25 0 0 1 1.25 8zm3 0a.25.25 0 0 1 .25.25v.5a.25.25 0 0 1-.25.25h-1.5A.25.25 0 0 1 4 8.75v-.5A.25.25 0 0 1 4.25 8z"/><path fill="currentColor" fill-rule="evenodd" d="M11.5 1a3.5 3.5 0 1 1 0 7 3.5 3.5 0 0 1 0-7m-.605 1.654a.25.25 0 0 0-.395.204v3.284a.25.25 0 0 0 .395.204l2.317-1.642a.25.25 0 0 0 0-.408z" clip-rule="evenodd"/><path fill="currentColor" d="M2.75 6a.25.25 0 0 1 .25.25v.5a.25.25 0 0 1-.25.25h-1.5A.25.25 0 0 1 1 6.75v-.5A.25.25 0 0 1 1.25 6zm3 0a.25.25 0 0 1 .25.25v.5a.25.25 0 0 1-.25.25h-1.5A.25.25 0 0 1 4 6.75v-.5A.25.25 0 0 1 4.25 6zm0-2a.25.25 0 0 1 .25.25v.5a.25.25 0 0 1-.25.25h-1.5A.25.25 0 0 1 4 4.75v-.5A.25.25 0 0 1 4.25 4zm0-2a.25.25 0 0 1 .25.25v.5a.25.25 0 0 1-.25.25h-1.5A.25.25 0 0 1 4 2.75v-.5A.25.25 0 0 1 4.25 2z"/></svg>