<svg xmlns="http://www.w3.org/2000/svg" fill="none" viewBox="0 0 16 16"><path fill="currentColor" d="M13.473 12.062a.3.3 0 0 1-.205-.077c-.18-.128-.23-.357-.103-.537a6.2 6.2 0 0 0 1.047-3.475 6.2 6.2 0 0 0-1.047-3.475c-.127-.18-.077-.41.103-.537s.41-.078.537.102a6.94 6.94 0 0 1 1.177 3.885c0 1.406-.41 2.76-1.177 3.884-.103.18-.205.23-.332.23m-10.993 0a.37.37 0 0 1-.307-.152A6.9 6.9 0 0 1 .999 8.023c0-1.407.41-2.761 1.177-3.885.127-.18.357-.205.537-.103.18.128.23.358.102.538-.714.996-1.074 2.173-1.074 3.45a6.1 6.1 0 0 0 1.046 3.474c.128.18.078.41-.102.538-.05 0-.127.024-.205.024zm9.176-9.176a.3.3 0 0 1-.205-.077c-2.018-1.38-4.906-1.38-6.927 0-.18.127-.41.077-.538-.103-.127-.18-.077-.41.103-.537C6.365.61 9.585.61 11.859 2.17c.18.128.229.357.102.537a.34.34 0 0 1-.308.18zM7.976 15c-1.406 0-2.76-.41-3.884-1.177-.18-.127-.23-.357-.103-.537.128-.18.357-.23.537-.102 2.019 1.379 4.907 1.379 6.928 0 .18-.128.41-.078.537.102s.078.41-.102.537A7.03 7.03 0 0 1 7.979 15zM9.53 3.898H6.741l-.766 4.457h1.559l-.93 3.829h.383l3.063-4.922H8.218z"/></svg>