<svg xmlns="http://www.w3.org/2000/svg" fill="none" viewBox="0 0 24 24"><path fill="currentColor" fill-rule="evenodd" d="M11.765 11.788a.4.4 0 0 0 .594 0l5.84-6.565a.4.4 0 0 0 .012-.512l-2.85-3.562a.4.4 0 0 0-.31-.149H9.074a.4.4 0 0 0-.31.15L5.913 4.71a.4.4 0 0 0 .013.513zm.297-2.058 4.28-4.812-1.864-2.33H9.647l-1.865 2.33z" clip-rule="evenodd"/><path fill="currentColor" d="M13.652 16.753v5.995c0 .219.157.313.35.21l5.66-3.007a.73.73 0 0 0 .351-.584V15.72l-4.53 2.407a.485.485 0 0 1-.537-.08l-1.294-1.293Zm6.296-2.975-4.191 2.227a.57.57 0 0 1-.632-.095L12.7 13.488c-.155-.155-.124-.365.07-.468l5.775-3.068a.57.57 0 0 1 .631.094l2.424 2.423c.155.155.124.364-.07.467l-1.518.807v.1l-.066-.065Zm-9.475 2.938v6.032c0 .219-.158.313-.351.21L4.46 19.95a.73.73 0 0 1-.35-.584V15.72l4.506 2.395a.485.485 0 0 0 .538-.08zm.85-3.696c.194.103.225.313.07.468L8.97 15.91a.57.57 0 0 1-.632.095l-5.868-3.12c-.194-.102-.226-.311-.07-.466l2.423-2.423a.57.57 0 0 1 .632-.094l5.87 3.118Z"/></svg>