<svg xmlns="http://www.w3.org/2000/svg" fill="none" viewBox="0 0 16 16"><path fill="currentColor" d="M3 1.5a.5.5 0 0 1 .5-.5h9a.5.5 0 0 1 .5.5V4H3z"/><path fill="currentColor" fill-rule="evenodd" d="M1.5 5a.5.5 0 0 0-.5.5v7a.5.5 0 0 0 .5.5H3v1.5a.5.5 0 0 0 .5.5h9a.5.5 0 0 0 .5-.5V13h1.5a.5.5 0 0 0 .5-.5v-7a.5.5 0 0 0-.5-.5zM4 13.5v-2a.5.5 0 0 1 .5-.5h7a.5.5 0 0 1 .5.5v2a.5.5 0 0 1-.5.5h-7a.5.5 0 0 1-.5-.5M12.5 8a.5.5 0 0 1-.5-.5v-1a.5.5 0 0 1 .5-.5h1a.5.5 0 0 1 .5.5v1a.5.5 0 0 1-.5.5z" clip-rule="evenodd"/></svg>