<svg xmlns="http://www.w3.org/2000/svg" fill="none" viewBox="0 0 16 16"><path fill="currentColor" d="M3.771 10.005c.047-.46.468-.663.86-.465.118.06.211.153.277.269.05.088.101.18.129.277.058.21.187.362.356.48q.303.21.617.4c.406.25.842.442 1.266.655.2.1.403.192.602.293.083.042.16.05.246.008.582-.284 1.181-.532 1.743-.859.23-.134.46-.27.678-.424.213-.15.376-.335.466-.587a1.4 1.4 0 0 1 .13-.276.618.618 0 0 1 .983-.103c.093.098.15.214.155.352.001.044.006.089.002.132a.33.33 0 0 0 .079.243q.099.12.13.274a.534.534 0 0 1-.302.595.7.7 0 0 1-.42.067c-.05-.008-.102-.012-.146-.033-.162-.079-.304-.026-.448.052-.31.168-.62.337-.935.497-.308.157-.62.304-.932.454-.057.028-.122.043-.166.09-.01.03.007.046.025.054.51.213 1.016.439 1.543.608.176.056.346.08.526.025a.9.9 0 0 1 .51-.008c.328.085.507.334.49.677a.55.55 0 0 1-.196.4.7.7 0 0 1-.24.144c-.105.033-.158.091-.183.21-.05.233-.209.376-.43.449a.5.5 0 0 1-.395-.043.63.63 0 0 1-.31-.377 1 1 0 0 1-.027-.129c-.04-.358-.087-.348-.33-.487-.332-.19-.685-.337-1.032-.495-.288-.13-.583-.246-.87-.378a.33.33 0 0 0-.307.002c-.156.074-.317.136-.475.206-.236.106-.47.216-.713.306-.33.123-.641.292-.95.465a1 1 0 0 0-.125.084.32.32 0 0 0-.133.217 2 2 0 0 1-.04.193.64.64 0 0 1-.535.477c-.231.027-.402-.075-.526-.27a.9.9 0 0 1-.115-.283c-.02-.1-.073-.153-.165-.177a.59.59 0 0 1-.394-.672c.07-.392.401-.619.799-.542a1 1 0 0 1 .205.063c.168.08.33.062.5.003.435-.15.867-.306 1.292-.484l.384-.163c-.027-.075-.07-.09-.108-.107-.591-.284-1.162-.607-1.744-.909-.134-.07-.274-.127-.409-.196a.27.27 0 0 0-.248-.005q-.098.046-.202.074c-.252.064-.501-.027-.624-.23-.102-.167-.124-.344-.027-.52q.07-.123.157-.236a.22.22 0 0 0 .051-.162 1 1 0 0 1 .001-.175"/><path fill="currentColor" fill-rule="evenodd" d="M7.945 1a4.6 4.6 0 0 1 2.097.561c.919.515 1.5 1.216 1.623 2.432.122 1.216.03 1.902-.046 2.136s.107.826.107 1.17c0 .342-.413.841-1.026.857-.612.016-1.071.109-1.056.748.009.375.008.507.004.563a.2.2 0 0 1-.022.07c-.158.265-.681.734-1.681.74h-.016c-1-.006-1.523-.475-1.68-.74a.2.2 0 0 1-.023-.07 9 9 0 0 1 .004-.563c.015-.639-.444-.732-1.057-.748-.612-.016-1.025-.515-1.025-.858s.183-.935.107-1.169c-.077-.234-.169-.92-.046-2.136.122-1.216.704-1.917 1.623-2.432a4.64 4.64 0 0 1 2.097-.56V1zm-.167 6.713c0-.09-.089-.147-.16-.095-.194.14-.417.4-.391.776.022.325.183.468.339.522.116.04.212-.07.212-.196zm.524-.095c-.072-.052-.16.006-.16.095V8.72c0 .125.095.236.212.196.155-.054.316-.197.339-.522.026-.376-.197-.637-.39-.776M6.135 5.396c-1.018 0-1.294.636-1.133 1.287.172.693.77 1.387 1.397.927.235-.156.898-.646.93-1.231.05-.905-.176-.983-1.194-.983m3.65 0c-1.018 0-1.244.078-1.194.983.032.585.695 1.075.93 1.231.628.46 1.225-.234 1.397-.927.161-.65-.115-1.287-1.133-1.287" clip-rule="evenodd"/></svg>