<svg xmlns="http://www.w3.org/2000/svg" fill="none" viewBox="0 0 16 16"><path fill="currentColor" d="m11.476 7.39.025 1.17c1.46 1.338 1.875 2.337 1.68 2.678-.146.243-.804.34-1.948.073-.317-.098-.633-.17-.974-.293.146-.95.22-1.996.22-3.019 0-1.022-.098-2.07-.22-2.994.316-.098.657-.22.974-.293 1.169-.292 1.826-.17 1.948.073.146.268-.098.974-.974 1.973l.608.584c1.17-1.266 1.535-2.289 1.096-3.02-.292-.462-1.022-.924-2.897-.437-.292.097-.584.146-.925.292C9.723 2.327 8.993 1.01 7.97 1.01c-.876 0-1.607.999-2.045 2.727-.122.463-.243.974-.316 1.559l.973-.585c.366-1.947.999-2.848 1.388-2.848.439 0 .974.974 1.34 2.605-.853.34-1.778.828-2.679 1.388a23 23 0 0 0-2.24 1.607 10 10 0 0 1-.852-.877c-.755-.9-.974-1.534-.803-1.777.146-.292.95-.365 2.288.024.049-.243.098-.584.146-.852-1.631-.487-2.727-.365-3.165.34-.292.463-.34 1.316.901 2.776.243.293.536.585.877.901-.317.317-.61.585-.877.901-1.242 1.461-1.193 2.313-.9 2.776.267.438.754.633 1.509.633.438 0 .974-.098 1.534-.244-.05-.267-.098-.633-.147-.827-1.266.34-1.996.243-2.166 0-.147-.244.048-.877.803-1.802a10 10 0 0 1 .852-.877 21 21 0 0 0 2.24 1.607 23.5 23.5 0 0 0 2.678 1.388c-.365 1.631-.9 2.605-1.339 2.605-.39 0-1.022-.925-1.412-2.946l-.974-.608c.365 2.75 1.266 4.406 2.386 4.406 1.023 0 1.753-1.314 2.143-3.165.317.098.633.195.925.292.536.122.998.195 1.388.195.9 0 1.315-.316 1.51-.633.584-.974-.341-2.556-2.46-4.31m-2.02 3.288a19 19 0 0 1-2.387-1.242c-.73-.463-1.412-.95-2.02-1.437.584-.511 1.29-.974 2.02-1.436.804-.487 1.632-.925 2.387-1.218.097.78.17 1.68.17 2.679.024.95-.049 1.85-.17 2.654M7.97 7.268c.39 0 .73.317.73.731s-.316.73-.73.73A.717.717 0 0 1 7.24 8c0-.414.34-.73.73-.73"/></svg>