<svg xmlns="http://www.w3.org/2000/svg" fill="none" viewBox="0 0 16 16"><path fill="currentColor" d="M1.926 4.506c.53-.923 1.707-1.2 3.575-.83.254-.808.6-1.454 1.015-1.915C6.954 1.254 7.44 1 7.992 1c1.084 0 1.915.9 2.514 2.675 1.845-.369 3.045-.092 3.575.83.53.923.162 2.1-1.084 3.507.577.645.969 1.268 1.153 1.845.208.622.185 1.176-.069 1.637-.392.646-1.107.992-2.19.992a6.2 6.2 0 0 1-1.362-.162C9.93 14.102 9.1 15 8.015 15c-.53 0-1.038-.254-1.476-.761-.415-.461-.76-1.107-1.015-1.937-.507.092-.968.16-1.383.16-1.084 0-1.822-.322-2.168-.99-.277-.462-.323-1.016-.093-1.638.185-.577.577-1.2 1.154-1.846-1.292-1.406-1.638-2.56-1.108-3.482m10.38 6.804c.391-.07.645-.185.76-.392q.174-.278-.069-.83c-.161-.393-.438-.808-.83-1.27-.277.278-.669.577-1.13.946-.046.508-.139.992-.23 1.454.576.115 1.083.138 1.498.092m-5.698.738c.185.576.416 1.015.67 1.36.253.3.484.462.691.462.23 0 .462-.162.715-.461.254-.323.485-.785.67-1.361l-1.385-.53zm-.392-1.43.07.3.3-.093zm3.46.3.07-.3-.185.115-.185.092zM6.424 5.29l.184-.115-.3-.093-.069.3zm2.952-.115.37.207-.07-.3zm.554 3.967v-2.26l-.946-.577c-.07-.046-.415-.208-.992-.53-.53.3-.876.484-.991.53l-.946.576a9 9 0 0 0-.07 1.13q0 .59.07 1.108c.438.3.761.484.946.6l.991.53zm1.2-1.338v.415l.253-.207zm1.867-1.868c.162-.37.185-.646.07-.854-.093-.184-.347-.323-.762-.369-.415-.069-.922-.046-1.499.07.092.46.162.945.23 1.476.439.3.808.622 1.131.922q.588-.657.83-1.245M8.684 2.638c-.253-.323-.484-.485-.715-.485-.207 0-.461.162-.692.485-.253.322-.484.76-.669 1.337l1.361.53 1.384-.53C9.17 3.4 8.938 2.96 8.684 2.638M3.68 11.31c.415.046.923.023 1.5-.093a9 9 0 0 1-.231-1.453c-.461-.346-.83-.668-1.153-.945-.392.461-.646.876-.808 1.268q-.242.554-.069.83c.116.208.37.324.761.393m.923-3.298.254.207-.023-.207.023-.208zm.576-3.206a6.4 6.4 0 0 0-1.06-.116c-.646 0-1.061.139-1.2.415-.115.185-.092.485.07.854.16.392.415.807.807 1.245.369-.323.76-.622 1.153-.922.023-.392.115-.877.23-1.476"/></svg>