<svg xmlns="http://www.w3.org/2000/svg" fill="none" viewBox="0 0 16 16"><path fill="currentColor" d="M6.602 2.68q.015-.11.015-.222c0-.472-.202-.898-.523-1.195A7 7 0 0 1 8 1c1.442 0 2.783.436 3.897 1.184L10.81 3.27a5.5 5.5 0 0 0-4.208-.592M4.297 3.933a1.63 1.63 0 0 1-.913-1.195 7 7 0 1 0 10.452 1.396l-1.088 1.088a5.5 5.5 0 1 1-8.45-1.289"/><path fill="currentColor" d="M6.065 10.12a1.63 1.63 0 0 1-1.01.582 3.937 3.937 0 0 0 6.488-4.275l-.88.879a2.816 2.816 0 0 1-2.718 3.534 2.8 2.8 0 0 1-1.88-.72m-.884-2.61a2.82 2.82 0 0 1 1.548-2.018 1.62 1.62 0 0 1-.05-1.193A3.94 3.94 0 0 0 4.026 7.66a1.62 1.62 0 0 1 1.156-.152"/><path fill="currentColor" d="M13.36 3.498a7 7 0 0 0-.79-.8L8.498 6.77a1.374 1.374 0 1 0 .755.836zm-8.372-.162a.878.878 0 1 0 0-1.756.878.878 0 0 0 0 1.756m-.186 6.635a.878.878 0 1 0 0-1.756.878.878 0 0 0 0 1.756"/><path fill="currentColor" d="M8.218 5.712a.878.878 0 1 0 0-1.757.878.878 0 0 0 0 1.757"/></svg>