<svg xmlns="http://www.w3.org/2000/svg" fill="none" viewBox="0 0 16 16"><path fill="currentColor" d="M14.6 6.39c-.317-.385-.761-.578-1.268-.578-.443 0-.824.129-1.204.45-.95-.578-2.154-.963-3.484-1.091V3.888c0-.385.19-.641.633-.641.19 0 .507.128.95.256.444.129 1.014.321 1.711.321.19.385.634.641 1.14.641.698 0 1.268-.577 1.268-1.282S13.776 1.9 13.079 1.9c-.444 0-.887.257-1.077.641-.57 0-.95-.128-1.33-.256-.444-.128-.825-.32-1.395-.32-1.077 0-1.9.897-1.9 1.923v1.283c-1.331.128-2.535.513-3.549 1.09-.316-.256-.76-.449-1.14-.449-.507 0-.95.193-1.267.578a1.9 1.9 0 0 0 .317 2.693c-.064.129-.064.385-.064.577 0 1.283.76 2.438 1.964 3.271 1.14.77 2.661 1.219 4.372 1.219s3.231-.449 4.372-1.219c1.14-.77 1.964-1.924 1.964-3.27 0-.193-.063-.45-.063-.642.823-.641.95-1.924.316-2.63m-1.521-3.785c.38 0 .633.257.633.642s-.253.641-.633.641-.634-.256-.634-.641.254-.642.634-.642M2.37 7.672c-.127.257-.317.45-.38.706q-.19-.193-.19-.385c-.127-.257-.127-.577-.063-.834.063-.128.126-.256.19-.32a.9.9 0 0 1 .76-.385c.19 0 .443.064.634.128a5 5 0 0 0-.95 1.09m3.738.064c.507 0 .95.45.95.962 0 .514-.443.962-.95.962s-.95-.448-.95-.962c0-.513.443-.962.95-.962m1.901 4.49c-1.267 0-2.28-.77-2.598-1.604.57.45 1.52.77 2.598.77s2.027-.32 2.598-.834c-.317.898-1.33 1.668-2.598 1.668m1.9-2.566c-.506 0-.95-.448-.95-.962 0-.513.444-.962.95-.962.508 0 .951.45.951.962 0 .514-.443.962-.95.962m4.182-1.346c-.126-.257-.253-.513-.38-.706-.126-.128-.19-.32-.316-.449-.19-.192-.38-.385-.634-.577.19-.128.443-.128.633-.128.317 0 .57.128.76.32.064.064.128.193.19.321.064.128.064.257.064.385-.063.32-.127.641-.317.834"/></svg>