<svg xmlns="http://www.w3.org/2000/svg" fill="none" viewBox="0 0 16 16"><path fill="currentColor" d="M3.948 1.09a.12.12 0 0 0-.232 0L3.39 2.333a.12.12 0 0 1-.084.087l-1.216.334c-.119.033-.119.204 0 .237l1.216.334a.12.12 0 0 1 .084.086l.327 1.242c.032.12.2.12.232 0l.327-1.242a.12.12 0 0 1 .085-.086l1.216-.334c.118-.033.118-.204 0-.237L4.36 2.42a.12.12 0 0 1-.085-.087zm7.495.475a.09.09 0 0 1 .174 0l.229.89a.09.09 0 0 0 .063.065l.856.242c.088.025.088.152 0 .177l-.856.242a.09.09 0 0 0-.063.065l-.229.89a.09.09 0 0 1-.174 0l-.228-.89a.09.09 0 0 0-.063-.065l-.857-.242c-.088-.025-.088-.152 0-.177l.857-.242a.09.09 0 0 0 .063-.065zm-3.032.281a.209.209 0 0 0-.406 0l-.527 2.055a.21.21 0 0 1-.147.152l-1.98.559c-.205.058-.205.355 0 .413l1.98.559c.072.02.128.078.147.152l.527 2.055a.209.209 0 0 0 .406 0l.528-2.055a.21.21 0 0 1 .147-.152l1.98-.559c.205-.058.205-.355 0-.413l-1.98-.559a.21.21 0 0 1-.147-.152zm-.629 7.29c.094-.095.075-.224-.042-.288L4.2 6.925a.34.34 0 0 0-.381.059L2.357 8.477c-.094.096-.075.225.042.288l3.54 1.923a.34.34 0 0 0 .381-.059zm.789 0c-.093-.095-.074-.224.043-.288l3.483-1.892a.34.34 0 0 1 .381.059l1.463 1.493c.093.096.074.224-.043.288l-.916.497v.062l-.04-.04-2.527 1.373a.34.34 0 0 1-.381-.059zm.574 2.013v3.695c0 .136.095.194.212.13l3.414-1.854a.45.45 0 0 0 .211-.36v-2.248l-2.732 1.484a.29.29 0 0 1-.324-.05zm-1.918 3.695v-3.717l-.796.812a.29.29 0 0 1-.324.05l-2.719-1.477v2.248a.45.45 0 0 0 .212.36l3.415 1.854c.117.064.212.006.212-.13"/></svg>