<svg xmlns="http://www.w3.org/2000/svg" fill="none" viewBox="0 0 16 16"><path fill="currentColor" d="M12.018 5.028a5.01 5.01 0 0 0-4.006-1.994c-2.766 0-5.009 2.233-5.009 4.986 0 2.754 2.243 4.986 5.009 4.986 1.515 0 2.872-.67 3.79-1.728a.544.544 0 0 1 .717-.106l.821.572a.47.47 0 0 1 .108.685A7.01 7.01 0 0 1 8.012 15C4.139 15 1 11.875 1 8.02s3.14-6.98 7.012-6.98c1.95 0 3.714.792 4.985 2.071V1.5a.5.5 0 0 1 .502-.5l1.002.003a.5.5 0 0 1 .499.499v5.022a.5.5 0 0 1-.5.498H9.45a.5.5 0 0 1-.5-.497l-.004-.997a.5.5 0 0 1 .501-.5h2.57Z"/></svg>