<svg xmlns="http://www.w3.org/2000/svg" fill="none" viewBox="0 0 16 16"><path fill="currentColor" d="m7.923 5.827 1.421 1.432a.48.48 0 0 1-.001.675l-.671.671a.47.47 0 0 1-.668 0L4.634 5.21a.48.48 0 0 1 0-.674L8.006 1.14a.47.47 0 0 1 .668-.001l.671.671a.48.48 0 0 1 .001.675L7.921 3.92H8c3.038 0 5.5 2.48 5.5 5.54S11.038 15 8 15s-5.5-2.48-5.5-5.54q0-.154.008-.307a.45.45 0 0 1 .456-.418h.919c.3 0 .524.278.512.58l-.003.145c0 2.007 1.616 3.634 3.608 3.634s3.607-1.627 3.607-3.634S9.992 5.826 8 5.826z"/></svg>