<svg xmlns="http://www.w3.org/2000/svg" fill="none" viewBox="0 0 16 16"><path fill="currentColor" d="M11.797 9.403c.89-.637 1.212-1.34 1.212-1.915s-.322-1.279-1.212-1.916c-.886-.634-2.212-1.088-3.767-1.088s-2.88.454-3.766 1.088c-.89.637-1.212 1.34-1.212 1.916s.322 1.278 1.212 1.915q.34.244.761.446V8.004c0-.274.224-.497.5-.496l.995.003a.497.497 0 0 1 .497.496v4.997a.497.497 0 0 1-.498.496H1.5a.497.497 0 0 1-.498-.495L1 12.014c0-.274.222-.497.498-.497h2.421c-1.733-.908-2.858-2.374-2.858-4.028C1.06 4.733 4.18 2.5 8.03 2.5 11.878 2.5 15 4.733 15 7.488c0 1.753-1.264 3.295-3.175 4.184a.477.477 0 0 1-.623-.223l-.449-.875c-.136-.265-.007-.588.263-.716q.433-.206.781-.455"/></svg>