<svg xmlns="http://www.w3.org/2000/svg" fill="none" viewBox="0 0 16 16"><path fill="currentColor" fill-rule="evenodd" d="M1 2.5a.5.5 0 0 1 .5-.5h13a.5.5 0 0 1 .5.5v6a.5.5 0 0 1-.5.5h-13a.5.5 0 0 1-.5-.5zm2 2.25c0 .138.112.25.25.25h9.5a.25.25 0 0 0 .25-.25v-.5a.25.25 0 0 0-.25-.25h-9.5a.25.25 0 0 0-.25.25zm0 2c0 .138.112.25.25.25h9.5a.25.25 0 0 0 .25-.25v-.5a.25.25 0 0 0-.25-.25h-9.5a.25.25 0 0 0-.25.25z" clip-rule="evenodd"/><path fill="currentColor" d="M3.25 12a.25.25 0 0 1-.25-.25v-.5a.25.25 0 0 1 .25-.25h9.5a.25.25 0 0 1 .25.25v.5a.25.25 0 0 1-.25.25zm0 2a.25.25 0 0 1-.25-.25v-.5a.25.25 0 0 1 .25-.25h9.5a.25.25 0 0 1 .25.25v.5a.25.25 0 0 1-.25.25z"/></svg>