<svg xmlns="http://www.w3.org/2000/svg" fill="none" viewBox="0 0 16 16"><path fill="currentColor" fill-rule="evenodd" d="M1 1.5a.5.5 0 0 1 .5-.5h13a.5.5 0 0 1 .5.5v6a.5.5 0 0 1-.5.5H3.936v3.375c0 .345.28.625.625.625H6v-1.5a.5.5 0 0 1 .5-.5h7a.5.5 0 0 1 .5.5v4a.5.5 0 0 1-.5.5h-7a.5.5 0 0 1-.5-.5V13H4.56a1.625 1.625 0 0 1-1.624-1.625V8H1.5a.5.5 0 0 1-.5-.5zm2 2.25c0 .138.112.25.25.25h9.5a.25.25 0 0 0 .25-.25v-.5a.25.25 0 0 0-.25-.25h-9.5a.25.25 0 0 0-.25.25zm0 2c0 .138.112.25.25.25h9.5a.25.25 0 0 0 .25-.25v-.5a.25.25 0 0 0-.25-.25h-9.5a.25.25 0 0 0-.25.25zM7.25 12a.25.25 0 0 1-.25-.25v-.5a.25.25 0 0 1 .25-.25h5.5a.25.25 0 0 1 .25.25v.5a.25.25 0 0 1-.25.25zm0 2a.25.25 0 0 1-.25-.25v-.5a.25.25 0 0 1 .25-.25h5.498a.25.25 0 0 1 .25.25v.5a.25.25 0 0 1-.25.25z" clip-rule="evenodd"/></svg>