<svg xmlns="http://www.w3.org/2000/svg" fill="none" viewBox="0 0 16 16"><path fill="currentColor" d="M9.6 11.125c.136 0 .246.112.246.25v3.375c0 .138-.11.25-.246.25H6.4a.25.25 0 0 1-.246-.25v-3.375c0-.138.11-.25.246-.25zM5.58 6.863q.051.001.087.037l.61.618a.126.126 0 0 1 0 .176L4.16 9.845a.13.13 0 0 0-.036.089v2.76c0 .138-.11.25-.246.25h-.119a.25.25 0 0 1-.24-.192l-.756-3.249a.5.5 0 0 1 .091-.422l1.664-2.17a.12.12 0 0 1 .097-.048zm5.805 0a.12.12 0 0 1 .097.049l1.664 2.169c.092.12.125.275.09.422l-.756 3.249a.25.25 0 0 1-.24.192h-.118a.25.25 0 0 1-.246-.25v-2.76a.13.13 0 0 0-.036-.089l-2.117-2.15a.126.126 0 0 1 0-.177l.61-.618a.12.12 0 0 1 .087-.037zM10.461 1c.136 0 .246.112.246.25v.376c0 .138-.11.25-.246.25h-1.23A.124.124 0 0 0 9.106 2v1.964a.12.12 0 0 0 .04.09l1.334 1.279c.082.077.027.216-.084.216h-.668a.12.12 0 0 0-.084.034l-.66.633a.12.12 0 0 1-.085.034H7.103a.12.12 0 0 1-.085-.034l-.66-.633a.12.12 0 0 0-.084-.034h-.671c-.111 0-.165-.139-.084-.216l1.335-1.278a.13.13 0 0 0 .039-.091V2a.124.124 0 0 0-.123-.125H5.539a.25.25 0 0 1-.246-.25V1.25c0-.138.11-.25.246-.25z"/></svg>