<svg xmlns="http://www.w3.org/2000/svg" fill="none" viewBox="0 0 16 16"><path fill="currentColor" fill-rule="evenodd" d="M8.364 2.02a3.928 3.928 0 1 1 2.011 6.63.26.26 0 0 0-.234.069l-.708.708a.25.25 0 0 1-.177.073H7.75a.25.25 0 0 0-.25.25v1.51a.24.24 0 0 1-.24.24H5.75a.25.25 0 0 0-.25.25v1.506a.25.25 0 0 1-.073.177l-.373.373a.012.012 0 0 1-.017 0 .012.012 0 0 0-.017.001.5.5 0 0 1-.395.193H2.5a.5.5 0 0 1-.5-.5v-2.125a.5.5 0 0 1 .206-.404c.042-.03.086-.06.123-.097L7.253 5.95a.26.26 0 0 0 .067-.244A3.93 3.93 0 0 1 8.364 2.02m4.596.952a1.437 1.437 0 1 0-2.033 2.033 1.437 1.437 0 0 0 2.033-2.033" clip-rule="evenodd"/></svg>