<svg xmlns="http://www.w3.org/2000/svg" fill="none" viewBox="0 0 16 16"><path fill="currentColor" d="M7.997 7.826a1.572 1.572 0 0 1 0-3.143 1.572 1.572 0 0 1 0 3.143"/><path fill="currentColor" fill-rule="evenodd" d="M8 1.25c-2.757 0-5 2.256-5 5.03 0 .903.423 2.043 1.29 3.485.583.969 2.65 3.792 3.419 4.837a.36.36 0 0 0 .582 0c.77-1.045 2.834-3.869 3.42-4.837C12.576 8.323 13 7.183 13 6.28c0-2.774-2.243-5.03-5-5.03M4.477 6.258c0 1.954 1.58 3.544 3.523 3.544s3.523-1.59 3.523-3.544c0-1.955-1.58-3.545-3.523-3.545s-3.523 1.59-3.523 3.545" clip-rule="evenodd"/></svg>