<svg xmlns="http://www.w3.org/2000/svg" fill="none" viewBox="0 0 16 16"><path fill="currentColor" fill-rule="evenodd" d="M1.362 8.165a.49.49 0 0 0-.36.502c.05.72.208 1.412.455 2.058.083.22.312.339.539.295l.519-.1a.53.53 0 0 1 .548.26q.37.621.876 1.13c.156.157.21.394.122.598l-.216.503a.49.49 0 0 0 .158.599c.565.399 1.19.715 1.858.933a.475.475 0 0 0 .566-.245l.243-.467a.53.53 0 0 1 .545-.274 5.7 5.7 0 0 0 1.462.014.53.53 0 0 1 .535.275l.253.487a.475.475 0 0 0 .557.247c.671-.205 1.3-.51 1.87-.896a.49.49 0 0 0 .165-.604l-.207-.482a.55.55 0 0 1 .13-.606c.364-.353.683-.753.947-1.192.115-.191.33-.3.547-.258l.524.101a.48.48 0 0 0 .539-.293 7.2 7.2 0 0 0 .462-2.046.49.49 0 0 0-.361-.505l-.508-.138a.54.54 0 0 1-.384-.478 6 6 0 0 0-.34-1.502.55.55 0 0 1 .142-.603l.394-.345a.49.49 0 0 0 .109-.616 7.2 7.2 0 0 0-1.299-1.632.47.47 0 0 0-.608-.025l-.432.324a.52.52 0 0 1-.601.01 5.7 5.7 0 0 0-1.343-.644.54.54 0 0 1-.376-.488l-.02-.524a.484.484 0 0 0-.406-.471 7 7 0 0 0-2.069.02.485.485 0 0 0-.397.47l-.02.549a.54.54 0 0 1-.365.484 5.7 5.7 0 0 0-1.286.646.52.52 0 0 1-.607-.007l-.42-.315a.47.47 0 0 0-.613.029 7.2 7.2 0 0 0-1.283 1.655.49.49 0 0 0 .111.61l.406.356a.55.55 0 0 1 .144.595 6 6 0 0 0-.308 1.391.54.54 0 0 1-.383.475zm6.64 2.29c1.212 0 2.226-1.015 2.226-2.307S9.214 5.84 8 5.84c-1.212 0-2.226 1.015-2.226 2.307S6.789 10.455 8 10.455Zm0 2.042c2.336 0 4.231-1.947 4.231-4.35 0-2.401-1.895-4.348-4.232-4.348S3.77 5.746 3.77 8.148s1.894 4.35 4.231 4.35Z" clip-rule="evenodd"/></svg>