<svg xmlns="http://www.w3.org/2000/svg" fill="none" viewBox="0 0 16 16"><path fill="currentColor" d="M13.474 12.062a.3.3 0 0 1-.205-.077c-.18-.128-.23-.357-.103-.537a6.2 6.2 0 0 0 1.047-3.475 6.2 6.2 0 0 0-1.047-3.475c-.127-.18-.077-.41.103-.537s.41-.078.537.102a6.94 6.94 0 0 1 1.177 3.885c0 1.406-.41 2.76-1.177 3.884-.102.18-.205.23-.332.23m-10.993 0a.37.37 0 0 1-.307-.152A6.9 6.9 0 0 1 1 8.023c0-1.407.41-2.761 1.177-3.885.127-.18.357-.205.537-.103.18.128.23.358.102.538-.714.996-1.074 2.173-1.074 3.45 0 1.276.357 2.453 1.047 3.474.127.18.077.41-.103.538-.05 0-.127.024-.205.024zm9.176-9.176a.3.3 0 0 1-.205-.077c-2.018-1.38-4.906-1.38-6.927 0-.18.127-.41.077-.537-.103s-.078-.41.102-.537C6.366.61 9.586.61 11.86 2.17c.18.128.23.357.102.537a.34.34 0 0 1-.307.18zM7.978 15a6.9 6.9 0 0 1-3.885-1.177c-.18-.127-.23-.357-.103-.537.128-.18.358-.23.538-.102 2.018 1.379 4.906 1.379 6.927 0 .18-.128.41-.078.537.102s.078.41-.102.537A7.03 7.03 0 0 1 7.98 15zm2.735-9.508L8.26 4.47l-.282-.127-.283.127-2.453 1.022-.46.18v2.326c0 1.251.615 2.403 1.637 3.092l1.149.767.41.283.41-.283 1.123-.767a3.72 3.72 0 0 0 1.637-3.092V5.672zm-.282 2.506c0 .996-.485 1.916-1.33 2.478l-1.124.767V5.135l2.454 1.021z"/></svg>