<svg xmlns="http://www.w3.org/2000/svg" fill="none" viewBox="0 0 16 16"><path fill="currentColor" d="M6.226 14.933a.23.23 0 0 1-.322 0l-4.837-4.837a.23.23 0 0 1 0-.322l.322-.323a.23.23 0 0 1 .323 0l4.837 4.837a.23.23 0 0 1 0 .323zm8.384-8.384a.23.23 0 0 1-.322 0L9.451 1.712a.23.23 0 0 1 0-.323l.323-.322a.226.226 0 0 1 .322 0l4.837 4.837c.09.089.09.233 0 .322l-.322.323Zm-6.414 3.529H7.05l3.027-3.027v1.145c0 .252.204.456.456.456h.684a.456.456 0 0 0 .456-.456v-3.37a.456.456 0 0 0-.456-.456h-3.35a.456.456 0 0 0-.455.456v.685c0 .251.204.456.456.456h1.036L5.967 8.905V7.869a.456.456 0 0 0-.456-.456h-.685a.456.456 0 0 0-.456.456v3.349c0 .252.205.456.456.456h3.37a.456.456 0 0 0 .456-.456v-.684a.456.456 0 0 0-.456-.456"/></svg>