<svg xmlns="http://www.w3.org/2000/svg" fill="none" viewBox="0 0 16 16"><path fill="currentColor" d="M12.977 7.012a.26.26 0 0 0-.023.245c.645 1.512.656 3.242-.035 4.612a.24.24 0 0 1-.217.13H3.129a.24.24 0 0 1-.222-.14c-.642-1.431-.642-3.308.1-4.877.792-1.67 2.43-3 5.113-3 .74 0 1.415.141 2.016.392.08.033.172.025.243-.023l.969-.654a.24.24 0 0 0-.013-.41 6.6 6.6 0 0 0-3.215-.805c-3.276 0-5.435 1.677-6.468 3.858-1.01 2.133-.94 4.742.154 6.66.183.321.52.5.864.5h10.468c.33 0 .653-.165.84-.461 1.28-2.024 1.219-4.659.175-6.762q-.052-.105-.108-.208a.24.24 0 0 0-.411-.017z"/><path fill="currentColor" d="M12.887 4.488a.01.01 0 0 0-.001-.011.01.01 0 0 0-.011-.002l-.699.472-4.905 3.084a1.5 1.5 0 1 0 2 2.03l3.666-5.592-.065.041z"/></svg>