<svg xmlns="http://www.w3.org/2000/svg" fill="none" viewBox="0 0 16 16"><path fill="currentColor" d="m8.168 4.354 2.194-1.28c.164-.11.164-.388 0-.5L8.168 1.295a.35.35 0 0 0-.33 0l-2.193 1.28c-.165.11-.165.389 0 .5l2.194 1.279q.165.082.329 0M4.923 6.932l2.229 1.287c.18.09.422-.05.434-.25L7.58 5.405a.36.36 0 0 0-.167-.29L5.185 3.829c-.18-.089-.422.05-.435.25l.006 2.565q.01.186.167.289m6.321-.29.006-2.565c-.013-.2-.254-.339-.435-.25L8.587 5.116a.36.36 0 0 0-.167.289l-.006 2.564c.012.2.254.34.434.25l2.228-1.287a.36.36 0 0 0 .168-.29m-6.826 4.212 2.194-1.28c.164-.11.164-.389 0-.5L4.418 7.795a.35.35 0 0 0-.33 0l-2.193 1.28c-.165.11-.165.389 0 .5l2.194 1.279q.165.083.329 0m-3.245 2.578 2.229 1.287c.18.09.422-.05.434-.25l-.006-2.564a.35.35 0 0 0-.167-.29l-2.228-1.287c-.18-.089-.422.05-.435.25l.006 2.565q.01.186.167.289m6.321-.289.006-2.565c-.013-.2-.254-.339-.435-.25l-2.228 1.288a.35.35 0 0 0-.167.289l-.006 2.564c.012.2.254.34.434.25l2.229-1.287a.35.35 0 0 0 .167-.29m4.424-2.288 2.194-1.28c.164-.11.164-.389 0-.5l-2.194-1.279a.35.35 0 0 0-.33 0l-2.193 1.28c-.165.11-.165.388 0 .5l2.194 1.279q.165.082.329 0m-3.245 2.578 2.229 1.287c.18.09.422-.05.434-.25l-.006-2.564a.36.36 0 0 0-.167-.29l-2.228-1.287c-.18-.089-.422.05-.435.25l.006 2.565q.01.186.167.289m6.321-.289L15 10.578c-.013-.2-.254-.339-.435-.25l-2.228 1.288a.36.36 0 0 0-.167.289l-.006 2.564c.013.2.254.34.434.25l2.228-1.287a.36.36 0 0 0 .168-.29"/></svg>