<svg xmlns="http://www.w3.org/2000/svg" fill="none" viewBox="0 0 16 16"><path fill="currentColor" d="M4 1.25A.25.25 0 0 1 4.25 1h7.5a.25.25 0 0 1 .25.25v.5a.25.25 0 0 1-.25.25h-7.5A.25.25 0 0 1 4 1.75zm0 13a.25.25 0 0 1 .25-.25h7.5a.25.25 0 0 1 .25.25v.5a.25.25 0 0 1-.25.25h-7.5a.25.25 0 0 1-.25-.25zm2.237-7.709.888-.888v4.694l-.888-.888a.5.5 0 0 0-.707 0l-.53.53a.5.5 0 0 0 0 .707l2.612 2.613a.5.5 0 0 0 .707 0l2.597-2.597a.5.5 0 0 0 0-.707l-.53-.53a.5.5 0 0 0-.708 0l-.803.803V5.722l.803.803a.5.5 0 0 0 .707 0l.53-.53a.5.5 0 0 0 0-.707L8.32 2.692a.5.5 0 0 0-.707 0L5 5.304a.5.5 0 0 0 0 .707l.53.53a.5.5 0 0 0 .707 0"/></svg>