<svg xmlns="http://www.w3.org/2000/svg" fill="none" viewBox="0 0 16 16"><path fill="currentColor" d="M8.037 7.269c-1.163 0-2.106-.956-2.106-2.135C5.93 3.956 6.874 3 8.037 3s2.106.956 2.106 2.134c0 1.18-.943 2.135-2.106 2.135m-3.521 5.396c.021.19.18.335.37.335h6.278c.19 0 .349-.144.37-.335l.214-1.93v-.665a.76.76 0 0 0-.412-.675l-1.743-.883a.4.4 0 0 0-.167-.04H6.624a.4.4 0 0 0-.167.04l-1.743.883a.76.76 0 0 0-.412.675v.666zM2.565 10.07c0-.818.391-1.576 1.034-2.044h-1q-.061 0-.115.028l-1.2.608A.52.52 0 0 0 1 9.127v.458l.147 1.328a.26.26 0 0 0 .255.231H2.6l-.034-1.074Zm1.628-4.936q0-.36.063-.701a1.4 1.4 0 0 0-.685-.174c-.8 0-1.45.658-1.45 1.47s.65 1.47 1.45 1.47c.383 0 .732-.151.991-.397a3.9 3.9 0 0 1-.369-1.668m7.687 0c0 .611-.139 1.19-.386 1.704.255.224.587.36.95.36a1.46 1.46 0 0 0 1.45-1.47 1.46 1.46 0 0 0-1.45-1.469c-.226 0-.44.053-.631.147q.066.355.067.728m1.571 6.01h1.147c.13 0 .24-.1.255-.23L15 9.584v-.458a.52.52 0 0 0-.283-.465l-1.2-.608a.25.25 0 0 0-.115-.028h-.951a2.53 2.53 0 0 1 1.035 2.044l-.035 1.074Z"/></svg>