<svg xmlns="http://www.w3.org/2000/svg" fill="none" viewBox="0 0 16 16"><path fill="currentColor" d="m10.299 11.084.865.87V4.046l-.865.87a.485.485 0 0 1-.69 0l-.516-.52a.49.49 0 0 1 0-.692l2.545-2.56a.485.485 0 0 1 .69 0l2.53 2.544c.19.192.19.502 0 .693l-.518.52a.485.485 0 0 1-.688 0l-.783-.787v7.772l.783-.787a.485.485 0 0 1 .689 0l.516.52c.19.191.19.502 0 .693l-2.53 2.545a.485.485 0 0 1-.689 0l-2.545-2.56a.49.49 0 0 1 0-.694l.517-.52a.485.485 0 0 1 .689 0Z"/><path fill="currentColor" fill-rule="evenodd" d="M5.297 3.038a.3.3 0 0 0-.295.253L4.83 4.36a.3.3 0 0 1-.182.23l-.576.236a.3.3 0 0 0-.181.331l.138.781a.23.23 0 0 1-.114.242l-2.76 1.537a.302.302 0 0 0-.053.489l.838.743c.072.064.17.09.264.068L3.36 8.75a.3.3 0 0 1 .364.323l-.345 3.434c-.034.344.442.465.574.145l.169-.41a.3.3 0 0 1 .276-.185h2.488a.3.3 0 0 1 .276.185l.169.41c.131.32.608.199.573-.146L7.56 9.075a.3.3 0 0 1 .364-.323l1.155.266a.3.3 0 0 0 .265-.068l.837-.743a.302.302 0 0 0-.053-.489L7.367 6.18a.23.23 0 0 1-.114-.242l.139-.781a.3.3 0 0 0-.182-.331l-.575-.236a.3.3 0 0 1-.183-.23L6.28 3.29a.3.3 0 0 0-.295-.252h-.687Zm.916 6.464a.3.3 0 0 1 .294.244l.217 1.127a.3.3 0 0 1-.294.358H4.851a.3.3 0 0 1-.293-.358l.217-1.127a.3.3 0 0 1 .293-.244z" clip-rule="evenodd"/></svg>