<svg xmlns="http://www.w3.org/2000/svg" fill="none" viewBox="0 0 24 24"><path fill="currentColor" d="M19.414 4.977a2.25 2.25 0 0 0-.8-1.886 2.26 2.26 0 0 0-2.438-.3c-.205.1-.47.024-.548-.19l-.299-.817a.316.316 0 0 1 .152-.396 3.83 3.83 0 0 1 4.14.505 3.8 3.8 0 0 1 1.366 2.964l.733-.872a.337.337 0 0 1 .474-.041l.686.574c.142.119.16.33.041.473l-2.234 2.656a.337.337 0 0 1-.474.041L17.55 5.46a.335.335 0 0 1-.04-.472l.574-.684a.337.337 0 0 1 .474-.042zM4.568 18.828c-.11.688.1 1.418.633 1.949a2.26 2.26 0 0 0 2.33.536c.252-.086.553.029.621.285l.194.722a.364.364 0 0 1-.216.441 3.83 3.83 0 0 1-4.038-.878A3.8 3.8 0 0 1 2.99 18.81l-.767.765a.393.393 0 0 1-.554 0l-.554-.553a.39.39 0 0 1 0-.553l2.379-2.373a.393.393 0 0 1 .554 0l2.38 2.373a.39.39 0 0 1 0 .553l-.555.553a.393.393 0 0 1-.554 0l-.75-.748Z"/><path fill="currentColor" fill-rule="evenodd" d="M11.002 2.96c.032-.195.158-.405.357-.405h1.274c.198 0 .329.21.36.405l.329 2.01a.4.4 0 0 0 .246.309l1.15.467a.4.4 0 0 1 .246.445l-.258 1.443a.4.4 0 0 0 .2.418l4.953 2.737c.245.135.281.47.072.655l-1.628 1.434a.4.4 0 0 1-.358.09l-2.23-.51a.404.404 0 0 0-.492.434l.695 6.882c.047.462-.597.624-.775.195l-.628-1.509a.4.4 0 0 0-.373-.249H9.853a.4.4 0 0 0-.373.249l-.627 1.509c-.178.429-.823.267-.776-.195l.696-6.882a.404.404 0 0 0-.493-.433l-2.23.51a.4.4 0 0 1-.357-.091l-1.629-1.434a.403.403 0 0 1 .072-.655L9.09 8.052a.4.4 0 0 0 .2-.418L9.03 6.19a.4.4 0 0 1 .246-.445l1.15-.467a.4.4 0 0 0 .247-.31l.328-2.009Zm2.412 13.822a.404.404 0 0 0 .397-.48l-.424-2.181a.404.404 0 0 0-.397-.327h-1.985a.404.404 0 0 0-.397.327l-.424 2.18a.404.404 0 0 0 .397.481z" clip-rule="evenodd"/></svg>