<svg xmlns="http://www.w3.org/2000/svg" fill="none" viewBox="0 0 16 16"><path fill="currentColor" d="m4.898 14.236-.042.41c-.037.368.474.497.616.155l.498-1.2a.32.32 0 0 1 .296-.198H9.67a.32.32 0 0 1 .296.198l.498 1.2c.142.342.653.213.616-.155l-.552-5.475a.32.32 0 0 1 .39-.345l1.77.406a.32.32 0 0 0 .284-.072l1.293-1.14a.32.32 0 0 0-.057-.522l-1.656-.917-3.501 3.501q.012.032.02.067l.336 1.735a.32.32 0 0 1-.315.382H6.867zM9.653 3.293l-.439-.18a.32.32 0 0 1-.195-.245l-.26-1.599A.32.32 0 0 0 8.441 1h-.948a.32.32 0 0 0-.316.27l-.26 1.598a.32.32 0 0 1-.196.246l-.914.372a.32.32 0 0 0-.195.354l.205 1.147a.32.32 0 0 1-.158.333L1.728 7.498a.32.32 0 0 0-.057.521l1.293 1.14a.32.32 0 0 0 .284.073l.605-.139zM1.147 14.147a.5.5 0 0 1 0-.708L13.438 1.146a.5.5 0 0 1 .707 0l.707.707a.5.5 0 0 1 0 .707L2.561 14.853a.5.5 0 0 1-.707 0z"/></svg>