<svg xmlns="http://www.w3.org/2000/svg" fill="none" viewBox="0 0 16 16"><path fill="currentColor" d="M1.25 12a.25.25 0 0 1-.25-.25v-7.5A.25.25 0 0 1 1.25 4h.5a.25.25 0 0 1 .25.25v7.5a.25.25 0 0 1-.25.25zm13 0a.25.25 0 0 1-.25-.25v-7.5a.25.25 0 0 1 .25-.25h.5a.25.25 0 0 1 .25.25v7.5a.25.25 0 0 1-.25.25zM6.541 9.763l-.888-.888h4.694l-.888.888a.5.5 0 0 0 0 .707l.53.53a.5.5 0 0 0 .707 0l2.613-2.612a.5.5 0 0 0 0-.707l-2.597-2.597a.5.5 0 0 0-.707 0l-.53.53a.5.5 0 0 0 0 .708l.803.803H5.722l.803-.803a.5.5 0 0 0 0-.707l-.53-.53a.5.5 0 0 0-.707 0L2.692 7.68a.5.5 0 0 0 0 .707L5.304 11a.5.5 0 0 0 .707 0l.53-.53a.5.5 0 0 0 0-.707"/></svg>