<svg xmlns="http://www.w3.org/2000/svg" fill="none" viewBox="0 0 16 16"><path fill="currentColor" fill-rule="evenodd" d="M1.49 1a.494.494 0 0 0-.49.498v.995c0 .275.22.498.49.498h1.35l1.339 7.555c.042.237.245.41.483.41h7.753a.49.49 0 0 0 .47-.353l2.093-6.969a.497.497 0 0 0-.47-.643h-8.6V1.498A.494.494 0 0 0 5.418 1zm10.86 14c.813 0 1.472-.669 1.472-1.493s-.66-1.494-1.472-1.494c-.814 0-1.473.669-1.473 1.494 0 .824.66 1.493 1.473 1.493m-5.522-1.556c0 .825-.66 1.494-1.472 1.494a1.483 1.483 0 0 1-1.473-1.494c0-.824.66-1.493 1.473-1.493s1.472.669 1.472 1.493m1.258-8.96c0-.274.22-.497.49-.497h.491c.271 0 .491.223.491.497v1.743h1.718c.27 0 .49.223.49.497v.498c0 .275-.22.498-.49.498H9.558v1.742c0 .275-.22.498-.49.498h-.491a.494.494 0 0 1-.491-.498V7.72H6.368a.494.494 0 0 1-.49-.498v-.498c0-.274.219-.497.49-.497h1.718z" clip-rule="evenodd"/></svg>