<svg xmlns="http://www.w3.org/2000/svg" fill="none" viewBox="0 0 16 16"><path fill="currentColor" d="M5.438 14.938a1.5 1.5 0 0 1-.744-.196l2.047-2.038c.125.218.197.471.197.74 0 .825-.672 1.494-1.5 1.494m7.192-3.982H8.497l6.476-6.447-1.865 6.094a.5.5 0 0 1-.478.353M6 2.991h3.426L3.873 8.52l-.998-5.53H1.5a.5.5 0 0 1-.5-.498v-.995C1 1.223 1.224 1 1.5 1h4a.5.5 0 0 1 .5.498zM12.563 15c.828 0 1.5-.669 1.5-1.493s-.672-1.494-1.5-1.494c-.829 0-1.5.669-1.5 1.494 0 .824.671 1.493 1.5 1.493M1.146 13.384a.496.496 0 0 0 0 .704l.708.704a.5.5 0 0 0 .707 0L14.854 2.554a.496.496 0 0 0 0-.704l-.708-.704a.5.5 0 0 0-.707 0z"/></svg>