<svg xmlns="http://www.w3.org/2000/svg" fill="none" viewBox="0 0 16 16"><path fill="currentColor" d="M3.282 7.245c0 1.324.689 2.482 1.718 3.114V8.334c0-.284.224-.515.5-.515h1c.276 0 .5.23.5.515v5.15a.51.51 0 0 1-.5.516h-5c-.276 0-.5-.23-.5-.515v-1.03c0-.285.224-.515.5-.515h2.189a5.73 5.73 0 0 1-2.407-4.695c0-2.327 1.357-4.327 3.3-5.206.22-.1.473-.001.593.213l.484.863c.168.3.005.682-.3.824-1.225.566-2.077 1.834-2.077 3.306M14.5 5.759c.276 0 .5-.23.5-.515v-1.03a.51.51 0 0 0-.5-.515h-5c-.276 0-.5.23-.5.515v1.03c0 .284.224.515.5.515zm0 4.121c.276 0 .5-.231.5-.516v-1.03a.51.51 0 0 0-.5-.515h-5c-.276 0-.5.23-.5.515v1.03c0 .285.224.515.5.515zM9.5 14c-.276 0-.5-.23-.5-.515v-1.03c0-.285.224-.515.5-.515h5c.276 0 .5.23.5.515v1.03a.51.51 0 0 1-.5.515z"/></svg>