<svg xmlns="http://www.w3.org/2000/svg" fill="none" viewBox="0 0 16 16"><path fill="currentColor" fill-rule="evenodd" d="M8.324 2.402c-.03-.54-.04-.904-.04-.904S8.253 1 8 1s-.283.498-.283.498-.013.362-.047.899a5.56 5.56 0 0 0-5.272 5.272c-.537.034-.9.047-.9.047S1 7.745 1 8s.498.283.498.283.365.008.905.036a5.56 5.56 0 0 0 5.313 5.186c.04.592.053 1 .053 1s.04.502.296.495c.253-.007.268-.505.268-.505s.002-.407.025-1a5.56 5.56 0 0 0 5.14-5.176c.595-.03 1.004-.036 1.004-.036S15 8.254 15 8c0-.255-.498-.284-.498-.284s-.407-.011-1-.046a5.56 5.56 0 0 0-5.178-5.268m2.446 4.992c-.762-.125-1.403-.296-1.636-.53-.24-.24-.415-.919-.542-1.715a2.88 2.88 0 0 1 2.178 2.245m.965.13a3.81 3.81 0 0 0-3.27-3.348 34 34 0 0 1-.12-1.42 5.21 5.21 0 0 1 4.806 4.892 33 33 0 0 1-1.416-.124m-.982 1.062c-.743.125-1.371.301-1.619.548-.246.247-.417.874-.536 1.616a2.88 2.88 0 0 0 2.155-2.164m-2.277 3.137a3.81 3.81 0 0 0 3.25-3.269c.492-.053.987-.09 1.419-.116a5.21 5.21 0 0 1-4.771 4.805c.021-.433.053-.927.102-1.42m-1.061-.95c-.134-.755-.314-1.392-.556-1.634-.25-.25-.923-.429-1.711-.556a2.88 2.88 0 0 0 2.267 2.19m-3.24-2.317a3.81 3.81 0 0 0 3.38 3.283c.06.49.104.984.137 1.414A5.21 5.21 0 0 1 2.756 8.34c.427.026.922.064 1.42.117Zm.956-1.062c.813-.127 1.504-.299 1.735-.53.23-.23.402-.92.528-1.734a2.88 2.88 0 0 0-2.263 2.264m2.39-3.229A3.81 3.81 0 0 0 4.165 7.52c-.496.054-.99.096-1.415.126a5.21 5.21 0 0 1 4.895-4.897c-.03.426-.07.92-.125 1.416Z" clip-rule="evenodd"/></svg>