<svg xmlns="http://www.w3.org/2000/svg" fill="none" viewBox="0 0 24 24"><path fill="currentColor" fill-rule="evenodd" d="M12.318 1.434s.008.316.035.787c2.422.161 4.353 2.133 4.474 4.585.51.03.862.04.862.04s.43.025.43.247-.43.247-.43.247-.353.005-.867.03c-.156 2.407-2.057 4.333-4.44 4.507-.02.516-.02.87-.02.87s-.014.434-.233.44c-.221.006-.255-.431-.255-.431s-.012-.355-.046-.87c-2.452-.102-4.43-2.059-4.59-4.515-.466-.024-.781-.031-.781-.031s-.43-.025-.43-.247.43-.246.43-.246.313-.012.777-.041c.122-2.48 2.095-4.467 4.554-4.59.029-.468.04-.782.04-.782S11.854 1 12.073 1s.245.434.245.434m.735 4.671c.201.203.755.352 1.413.461a2.5 2.5 0 0 0-1.881-1.955c.109.694.26 1.285.468 1.494m-.578-2.34A3.305 3.305 0 0 1 15.3 6.679c.424.048.85.083 1.222.108-.128-2.268-1.911-4.09-4.15-4.259.023.372.057.803.103 1.237m.578 4.316c.213-.215.756-.369 1.398-.477a2.5 2.5 0 0 1-1.861 1.883c.102-.645.25-1.191.463-1.406m2.238-.592a3.305 3.305 0 0 1-2.807 2.845c-.042.43-.07.86-.088 1.236 2.204-.179 3.959-1.957 4.121-4.182-.373.022-.8.054-1.226.1Zm-4.204.596c.21.21.365.766.48 1.423A2.49 2.49 0 0 1 9.61 7.6c.68.11 1.262.266 1.478.484Zm.602 2.263A3.3 3.3 0 0 1 8.77 7.49a27 27 0 0 0-1.226-.101c.167 2.272 1.994 4.078 4.264 4.19a28 28 0 0 0-.118-1.231Zm-.596-4.243c-.199.2-.796.35-1.498.46a2.49 2.49 0 0 1 1.955-1.97c-.11.708-.258 1.31-.457 1.51m-2.331.57a3.304 3.304 0 0 1 2.897-2.92c.047-.432.082-.862.108-1.232C9.492 2.655 7.67 4.49 7.54 6.785c.367-.026.794-.062 1.223-.11Z" clip-rule="evenodd"/><path fill="currentColor" d="M11.424 13.902c.148-.148.118-.348-.066-.447l-5.566-2.983a.54.54 0 0 0-.6.09L2.894 12.88c-.148.149-.118.349.066.447l5.566 2.983a.54.54 0 0 0 .6-.09zm1.241 0c-.147-.148-.118-.348.066-.447l5.477-2.935a.54.54 0 0 1 .6.09l2.298 2.317c.148.149.118.349-.066.447l-1.44.772v.096l-.062-.063-3.975 2.13a.54.54 0 0 1-.6-.09zm.902 3.123v5.734c0 .21.149.3.333.201l5.367-2.876a.7.7 0 0 0 .333-.559v-3.489l-4.296 2.303a.46.46 0 0 1-.51-.077zm-3.016 5.734V16.99l-1.25 1.261a.46.46 0 0 1-.51.077l-4.275-2.291v3.487c0 .21.149.46.333.558l5.37 2.878c.183.099.332.008.332-.201"/></svg>