<svg xmlns="http://www.w3.org/2000/svg" fill="none" viewBox="0 0 16 16"><path fill="currentColor" d="M3.902 1.693c-.07-.257-.437-.257-.507 0L2.968 3.27a.26.26 0 0 1-.185.183l-1.589.425a.26.26 0 0 0 0 .503l1.589.425c.09.024.16.094.185.184l.427 1.578c.07.257.437.257.507 0l.427-1.578a.26.26 0 0 1 .186-.184l1.588-.425a.26.26 0 0 0 0-.503l-1.588-.425a.26.26 0 0 1-.186-.183l-.427-1.578Zm5.348.687c-.103-.39-.658-.39-.761 0L7.397 6.515a.39.39 0 0 1-.276.277L3.027 7.917a.39.39 0 0 0 0 .753l4.094 1.124c.135.037.24.143.276.278l1.092 4.136c.103.39.658.39.76 0l1.093-4.136a.39.39 0 0 1 .276-.278L14.71 8.67a.39.39 0 0 0 0-.753l-4.093-1.124a.39.39 0 0 1-.276-.277z"/></svg>