<svg xmlns="http://www.w3.org/2000/svg" fill="none" viewBox="0 0 24 24"><path fill="currentColor" d="M10.101 12.94c0-.229-.382-.28-.453-.062-.573 1.775-1.663 4.68-3.122 6.41-1.076 1.277-3.01 2.697-3.942 3.349-.16.112-.076.363.122.363h6.993a.396.396 0 0 0 .402-.388zm3.219-.155c0-.226.362-.278.434-.063.609 1.803 1.8 4.935 3.214 6.588 1.076 1.255 2.976 2.678 3.886 3.33.158.113.074.36-.123.36h-7.008a.396.396 0 0 1-.403-.388zM11.337 2.104c.105-.386.674-.386.779 0l1.006 3.705a.4.4 0 0 0 .282.276l3.776 1.008a.385.385 0 0 1 0 .748L13.404 8.85a.4.4 0 0 0-.282.276l-1.006 3.705c-.105.386-.674.386-.779 0l-1.006-3.705a.4.4 0 0 0-.282-.276L6.272 7.841a.385.385 0 0 1 0-.748l3.777-1.008a.4.4 0 0 0 .282-.276zm7.388-.959c.052-.193.336-.193.389 0l.44 1.623a.2.2 0 0 0 .142.138l1.656.442a.192.192 0 0 1 0 .374l-1.656.442a.2.2 0 0 0-.141.138l-.441 1.623c-.053.194-.337.194-.39 0l-.44-1.623a.2.2 0 0 0-.141-.138l-1.657-.442a.192.192 0 0 1 0-.374l1.657-.442a.2.2 0 0 0 .14-.138zM4.308 3.344c.04-.145.253-.145.292 0l.33 1.218a.15.15 0 0 0 .107.103l1.242.332a.144.144 0 0 1 0 .28l-1.242.332a.15.15 0 0 0-.106.103L4.6 6.93c-.04.145-.253.145-.293 0l-.33-1.218a.15.15 0 0 0-.106-.103l-1.243-.332a.144.144 0 0 1 0-.28l1.243-.332a.15.15 0 0 0 .106-.103l.33-1.218Z"/></svg>