<svg xmlns="http://www.w3.org/2000/svg" fill="none" viewBox="0 0 16 16"><path fill="currentColor" d="m11.362 4.034-1.51-1.49a.49.49 0 0 1 .001-.701l.713-.699a.507.507 0 0 1 .71.001l3.577 3.53a.49.49 0 0 1 0 .7l-3.58 3.533a.507.507 0 0 1-.71 0l-.712-.698a.49.49 0 0 1 0-.702l1.511-1.491h-6.25a.5.5 0 0 1-.503-.496V4.53a.5.5 0 0 1 .503-.496zM4.638 9.981l1.51-1.49a.49.49 0 0 0-.001-.701l-.713-.699a.507.507 0 0 0-.71.001l-3.577 3.53a.49.49 0 0 0 0 .7l3.58 3.533a.507.507 0 0 0 .71.001l.712-.699a.49.49 0 0 0 0-.702l-1.511-1.491h6.25a.5.5 0 0 0 .502-.496v-.991a.5.5 0 0 0-.502-.496z"/></svg>