<svg xmlns="http://www.w3.org/2000/svg" fill="none" viewBox="0 0 16 16"><path fill="currentColor" d="m4.034 4.638-1.49 1.51a.49.49 0 0 1-.701-.001l-.699-.713a.507.507 0 0 1 .001-.71l3.53-3.577a.49.49 0 0 1 .7 0l3.533 3.58a.507.507 0 0 1 0 .71l-.698.712a.49.49 0 0 1-.702 0l-1.491-1.51v6.25a.5.5 0 0 1-.496.502H4.53a.5.5 0 0 1-.496-.502zm5.947 6.724-1.49-1.51a.49.49 0 0 0-.701.001l-.699.713a.507.507 0 0 0 .001.71l3.53 3.577a.49.49 0 0 0 .7 0l3.533-3.58a.507.507 0 0 0 .001-.71l-.699-.712a.49.49 0 0 0-.702 0l-1.491 1.511v-6.25a.5.5 0 0 0-.496-.503h-.991a.5.5 0 0 0-.496.503z"/></svg>