<svg xmlns="http://www.w3.org/2000/svg" fill="none" viewBox="0 0 16 16"><path fill="currentColor" d="M8.066 5.106a1 1 0 0 1 .81.431l1.065 1.54 3.203.007a.5.5 0 0 1 .46.312l1.74 4.331a.5.5 0 0 1-.104.53l-2.473 2.557a.5.5 0 0 1-.579.099l-4.93-2.458A1 1 0 0 1 6.678 11l.006-.011.007-.012.007-.012.013-.019.001-.002.016-.024.007-.008.011-.016.005-.007.037-.045.006-.008.014-.014.006-.007.018-.019.002-.002.02-.02.007-.006.015-.014.007-.007.018-.014.004-.004.023-.019.004-.003.047-.035.003-.002.051-.032.004-.003.054-.03h.003l.054-.026.004-.002.028-.011.006-.003a1 1 0 0 1 .115-.036l.01-.002.027-.007h.002l.03-.006.009-.001.023-.004h.006l.03-.005h.002l.03-.002.01-.001.02-.001h.013l.029-.001 2.328-.008-2.639-3.814a1 1 0 0 1 .81-1.569z"/><path fill="currentColor" fill-rule="evenodd" d="M14 1a1 1 0 0 1 1 1v4.848l-.005-.012a2 2 0 0 0-1.848-1.252l-2.418-.006-.62-.894-.037-.053a2.5 2.5 0 0 0-3.387-.617l-.054.036a2.5 2.5 0 0 0-.633 3.479l1.05 1.517A2.5 2.5 0 0 0 5.095 11H2a1 1 0 0 1-1-1V2a1 1 0 0 1 1-1zM3 4.964a1 1 0 1 0 0 2 1 1 0 0 0 0-2" clip-rule="evenodd"/></svg>