<svg xmlns="http://www.w3.org/2000/svg" fill="none" viewBox="0 0 16 16"><path fill="currentColor" d="M4.53 13c0 .828-.679 1.5-1.515 1.5A1.507 1.507 0 0 1 1.5 13c0-.828.678-1.5 1.515-1.5s1.514.672 1.514 1.5Zm4.985 0c0 .828-.679 1.5-1.515 1.5A1.507 1.507 0 0 1 6.485 13c0-.828.679-1.5 1.515-1.5s1.515.672 1.515 1.5m4.985 0c0 .828-.678 1.5-1.515 1.5a1.507 1.507 0 0 1-1.514-1.5c0-.828.678-1.5 1.514-1.5.837 0 1.515.672 1.515 1.5M9.515 8c0 .828-.679 1.5-1.515 1.5A1.507 1.507 0 0 1 6.485 8c0-.828.679-1.5 1.515-1.5s1.515.672 1.515 1.5M14.5 8c0 .828-.678 1.5-1.515 1.5A1.507 1.507 0 0 1 11.471 8c0-.828.678-1.5 1.514-1.5.837 0 1.515.672 1.515 1.5m0-5c0 .828-.678 1.5-1.515 1.5A1.507 1.507 0 0 1 11.471 3c0-.828.678-1.5 1.514-1.5.837 0 1.515.672 1.515 1.5"/></svg>