<svg xmlns="http://www.w3.org/2000/svg" fill="none" viewBox="0 0 24 24"><path fill="currentColor" fill-rule="evenodd" d="M1.786 5A.78.78 0 0 0 1 5.778v2.918c1.745.051 3.143 1.467 3.143 3.207S2.745 15.058 1 15.11v3.112c0 .43.352.778.786.778h20.428a.78.78 0 0 0 .786-.778V15.11c-1.745-.052-3.143-1.468-3.143-3.207 0-1.74 1.398-3.156 3.143-3.207V5.778A.78.78 0 0 0 22.214 5zm13.75 3.111a.39.39 0 0 1-.393-.389v-.778a.39.39 0 0 1 .393-.388h.785a.39.39 0 0 1 .393.388v.778a.39.39 0 0 1-.393.39h-.785Zm.785 6.222a.39.39 0 0 0 .393-.389v-.777a.39.39 0 0 0-.393-.39h-.785a.39.39 0 0 0-.393.39v.777a.39.39 0 0 0 .393.39h.785Zm-.785-3.11a.39.39 0 0 1-.393-.39v-.777a.39.39 0 0 1 .393-.39h.785a.39.39 0 0 1 .393.39v.777a.39.39 0 0 1-.393.39zm.785 6.221a.39.39 0 0 0 .393-.388v-.778a.39.39 0 0 0-.393-.39h-.785a.39.39 0 0 0-.393.39v.778a.39.39 0 0 0 .393.388z" clip-rule="evenodd"/></svg>