<svg xmlns="http://www.w3.org/2000/svg" fill="none" viewBox="0 0 16 16"><path fill="currentColor" d="M12.725 3.994a3 3 0 0 1-.279-.16 4 4 0 0 1-.714-.602 3.3 3.3 0 0 1-.803-1.645C10.868 1.23 10.893 1 10.897 1H8.47v9.297q.001.187-.005.37 0 .023-.003.046l-.001.02v.006a2 2 0 0 1-.315.938 2.05 2.05 0 0 1-1.727.945 2.044 2.044 0 0 1-2.047-2.042A2.044 2.044 0 0 1 7.05 8.637l.003-2.448a4.55 4.55 0 0 0-3.475 1.007c-.418.36-.77.79-1.04 1.27-.102.175-.488.878-.535 2.02-.03.647.167 1.318.26 1.595v.006c.06.164.288.72.66 1.19.3.378.654.709 1.051.983v-.006l.006.006c1.175.791 2.478.74 2.478.74.225-.01.981 0 1.839-.403.952-.447 1.493-1.112 1.493-1.112.347-.398.622-.85.814-1.34.22-.572.293-1.258.293-1.532V5.681c.03.017.422.274.422.274s.565.359 1.446.593C13.398 6.714 14 6.6 14 6.6V4.3c-.299.032-.655 0-1.275-.306"/></svg>