<svg xmlns="http://www.w3.org/2000/svg" fill="none" viewBox="0 0 16 16"><path fill="currentColor" fill-rule="evenodd" d="M2.5 1a.5.5 0 0 0-.5.5v13a.5.5 0 0 0 .5.5h6.99a1 1 0 0 0 .71-.296l3.51-3.537a1 1 0 0 0 .29-.704V1.5a.5.5 0 0 0-.5-.5zm2 10a.5.5 0 0 0-.5.5v1a.5.5 0 0 0 .5.5h4a.5.5 0 0 0 .5-.5v-1a.5.5 0 0 0-.5-.5zM4 7.5a.5.5 0 0 1 .5-.5h7a.5.5 0 0 1 .5.5v1a.5.5 0 0 1-.5.5h-7a.5.5 0 0 1-.5-.5zM4.5 3a.5.5 0 0 0-.5.5v1a.5.5 0 0 0 .5.5h7a.5.5 0 0 0 .5-.5v-1a.5.5 0 0 0-.5-.5z" clip-rule="evenodd"/></svg>