<svg xmlns="http://www.w3.org/2000/svg" fill="none" viewBox="0 0 24 24"><path fill="currentColor" fill-rule="evenodd" d="M4.325 14.205c.034-.162.065-.325.103-.486.046-.19.052-.374.017-.57a7 7 0 0 1-.092-1.81c.01-.124.012-.25.018-.375-.153.17-.274.343-.39.52a.3.3 0 0 0-.03.131c-.034.886.084 1.75.374 2.59m15.383.011c.016-.05.035-.099.049-.15.2-.708.276-1.43.313-2.165.02-.41-.223-.65-.421-.937a1 1 0 0 0-.004.255c.059.613.05 1.227-.074 1.829-.085.413.047.782.137 1.168M5.733 16.9c-.036-.197-.071-.352-.09-.51a1.6 1.6 0 0 0-.214-.591 14 14 0 0 1-.552-1.124c-.122-.278-.206-.572-.32-.896l-.162.744c.308.87.87 1.88 1.338 2.377m12.578-.03q.028-.027.052-.057c.479-.619.847-1.3 1.157-2.018.156-.362-.036-.658-.08-.984-.191.653-.422 1.285-.787 1.85-.243.377-.295.787-.341 1.21ZM16.922 5.926l-.014.027.072.062a7.2 7.2 0 0 1 1.416 1.614c.197.314.519.447.802.644a7.4 7.4 0 0 0-1.569-2.192zM4.792 8.263l.03.03c.132-.093.261-.194.4-.279.174-.107.299-.253.41-.423a7.4 7.4 0 0 1 1.367-1.554l.133-.12-.756.162A7.9 7.9 0 0 0 4.79 8.263Zm-1.253 2.392c-.016.013-.031.018-.035.029q-.01.027-.012.057c-.093.857-.094 1.712.054 2.564.045.26.328.654.569.798 0-.013.005-.027.002-.038A8.2 8.2 0 0 1 3.82 11.5a.4.4 0 0 0-.018-.135q-.128-.354-.263-.71M4.581 7.59a8 8 0 0 0-1.02 2.716l.265.72c.112-.8.289-1.57.616-2.293.171-.376.134-.756.14-1.143Zm14.835.002c0 .151.004.302 0 .453-.008.23.058.439.135.655q.255.714.452 1.444c.078.286.107.585.166.916l.274-.755a7.9 7.9 0 0 0-1.027-2.713M5.05 12.79c.35 3.305 3.188 5.778 6.029 6.023v-.268c-3.205-.647-5.113-2.555-5.75-5.754zm7.766-7.486c3.207.639 5.12 2.55 5.758 5.752h.278c-.36-3.411-3.355-5.84-6.036-6.01zm-1.734-.277c-3.26.347-5.777 3.144-6.023 6.03h.268c.646-3.204 2.555-5.112 5.755-5.752zm7.493 7.769c-.65 3.208-2.56 5.112-5.755 5.748v.277c3.044-.306 5.7-2.886 6.032-6.025zm-6.62 5.397a6.27 6.27 0 0 0 6.263-6.276 6.265 6.265 0 0 0-6.26-6.258 6.27 6.27 0 0 0-6.276 6.264c-.001 3.457 2.816 6.274 6.272 6.27Zm-4.015.185-.08-.039.054.065c.08.139.166.273.235.416a.57.57 0 0 0 .328.3l1.475.554q.107.041.215.085l-.012.06c-.078-.007-.162.001-.233-.025-.494-.178-.984-.368-1.478-.545a2.7 2.7 0 0 0-.495-.128c-.175-.028-.355-.03-.533-.042.537.436 1.939 1.04 2.588 1.145.026.004.054.01.078.005.459-.101.816.148 1.227.341l-.782.467.014.041c.256.011.525.075.767.02.248-.057.47-.23.742-.37.39.42.885.462 1.44.313l-.805-.477c.252-.111.457-.22.675-.293.141-.047.3-.043.45-.058.118-.013.24-.003.352-.032a8.5 8.5 0 0 0 2.307-.983q.07-.047.14-.096c-.163-.015-.314.01-.465.01-.239-.001-.449.077-.668.167-.46.191-.933.351-1.403.518-.068.024-.148.013-.223.018l-.008-.058q.099-.041.198-.08c.468-.172.933-.355 1.405-.513.378-.126.46-.475.659-.76-.043-.005-.056-.01-.065-.007a3 3 0 0 0-.14.079 8.2 8.2 0 0 1-1.827.793c-.148.044-.293.12-.423.207a5.2 5.2 0 0 1-1.377.67.93.93 0 0 1-.568-.01 5 5 0 0 1-1.404-.705.8.8 0 0 0-.243-.131 8 8 0 0 1-2.117-.922m9.406-13.244L17.3 5.1l-.018.018.035.047c.045.117.094.233.135.352.082.243.226.439.41.622.53.528.964 1.131 1.326 1.786.02.036.046.067.081.119v-.758a8.6 8.6 0 0 0-1.922-2.15Zm2.587 8.958c.121-.133.251-.259.359-.401a.8.8 0 0 0 .15-.312c.147-.744.164-1.495.111-2.25-.01-.157-.037-.313-.056-.47a5 5 0 0 0-.285.674.5.5 0 0 0-.027.175 8.4 8.4 0 0 1-.291 2.55l-.013.092zm-1.02 2.78c-.114.053-.227.11-.343.158-.244.1-.44.255-.62.452a7.7 7.7 0 0 1-1.662 1.364l-.145.092c.173.019.336-.009.498-.008.206.002.365-.082.524-.204a8.8 8.8 0 0 0 1.814-1.87l-.018-.017zM6.66 5.135a8.5 8.5 0 0 0-1.924 2.156v.776c.047-.078.08-.132.111-.187.338-.616.736-1.192 1.242-1.677.309-.296.462-.655.6-1.035l.045-.08zM5.497 16.908l.045.014.03-.034-.05-.01c-.49-.666-.912-1.372-1.188-2.153-.124-.35-.417-.545-.638-.808a.2.2 0 0 0 .002.105c.177.678.445 1.318.761 1.943.207.407.466.734.913.881.044.015.084.041.125.062m-.409-.036-.065-.042c.02.041.026.056.034.07a8.6 8.6 0 0 0 1.746 1.795c.276.21.69.308 1.063.245l-.07-.047a8.2 8.2 0 0 1-1.924-1.602.4.4 0 0 0-.12-.102c-.22-.109-.442-.212-.664-.317m15.237-2.95c-.164.166-.331.328-.49.5a.6.6 0 0 0-.12.201 8.4 8.4 0 0 1-1.262 2.284l.019.019.056-.038c.443-.153.799-.402.98-.859.066-.165.168-.316.243-.48.242-.524.46-1.058.568-1.63l.004-.005zm-1.57-5.72-.001-.01c-.007-.007 0 0 .006.008.033.072.062.146.097.216a7 7 0 0 1 .651 1.878c.07.375.336.618.512.922a7.6 7.6 0 0 0-.655-2.643c-.12-.079-.222-.152-.33-.217-.09-.056-.186-.103-.28-.153ZM5.227 8.189l-.586.382a7.5 7.5 0 0 0-.654 2.65c.173-.314.447-.561.517-.944.069-.37.187-.733.314-1.089.12-.336.282-.657.425-.984l.028-.025-.01-.013zm2.711 10.64.08.041-.053-.074q-.088-.155-.176-.312a1.8 1.8 0 0 0-.506-.578 7 7 0 0 1-1.375-1.387q-.045-.056-.093-.109.007.294.07.563a.66.66 0 0 0 .13.28 7.8 7.8 0 0 0 1.923 1.576m10.25-2.445-.002.038c-.014.338-.02.67-.288.946-.559.575-1.17 1.08-1.88 1.47.2-.285.304-.629.603-.851a7 7 0 0 0 1.569-1.605zM11.99 6.275c3.104.01 5.628 2.558 5.617 5.674a5.655 5.655 0 0 1-5.663 5.628c-3.124-.006-5.66-2.548-5.651-5.664.009-3.126 2.557-5.647 5.697-5.638M12.68 2c.037.011.073.03.11.033 1.583.123 3.06.583 4.405 1.425 2.607 1.631 4.175 3.97 4.69 7.007l.115.655v1.8c-.015.032-.037.062-.043.096-.107.555-.174 1.12-.322 1.664-1.052 3.879-4.445 6.79-8.419 7.25-.113.013-.48.046-.591.07h-1c-.033-.014-.569-.037-.602-.042-.231-.033-.464-.055-.693-.095-2.17-.38-4.026-1.357-5.55-2.947-1.457-1.52-2.343-3.329-2.665-5.411-.042-.275-.077-.55-.115-.825v-1.36c.012-.043.028-.086.034-.13.063-.427.1-.86.19-1.282a9.77 9.77 0 0 1 2.693-4.96c1.554-1.556 3.424-2.502 5.6-2.835.267-.04.535-.075.803-.113zm-.712 4.097c-3.21-.012-5.84 2.608-5.848 5.827-.008 3.188 2.613 5.82 5.805 5.83a5.84 5.84 0 0 0 5.855-5.817c.008-3.206-2.6-5.828-5.812-5.84m1.38.856v3.782h-.973V7.734h-.777v3.66h1.74v.967h-1.741v3.752h.767v-2.88h.981v3.665c-.904.278-1.812.228-2.73.01v-9.97a5.2 5.2 0 0 1 2.732.015Zm-3.246.136v9.633c-.834-.333-1.532-.824-2.08-1.506a6 6 0 0 1-.455-.67l-.14-.23-.072-.116a.53.53 0 0 1-.063-.264 777 777 0 0 1 0-4.04.6.6 0 0 1 .052-.248 5.2 5.2 0 0 1 .844-1.231c.016-.018.037-.031.08-.067v.218q-.002 2.61.005 5.22c0 .118.041.25.102.352.192.326.431.617.75.896V7.604zm3.763.052c1.36.452 2.804 1.882 3.12 3.596q-.048.008-.096.011h-.79c-.252-.747-.638-1.405-1.25-1.953v2.61h2.271v.956h-2.274v2.65a4.6 4.6 0 0 0 1.176-1.775h.923c-.048 1.177-1.72 3.066-3.08 3.47z" clip-rule="evenodd"/></svg>