<svg xmlns="http://www.w3.org/2000/svg" fill="none" viewBox="0 0 16 16"><path fill="currentColor" d="M10.397 1.66h3.936L15 1H1l.66.66h4.054v.629l.47.484H2.769l.65.646h3.155l-.003 3.79-.446.443v2.64l.446.455h.691c.038.767.121 1.185.715 1.728a1.1 1.1 0 0 1 .45.767.874.874 0 0 1-1.746.024.166.166 0 0 0-.169-.155.19.19 0 0 0-.176.172v.045a1.655 1.655 0 1 0 2.682-1.281 1.6 1.6 0 0 1-.505-1.286h.93l.446-.456V9.072l-.294-.301.003-5.352h2.959l.67-.66H9.906l.49-.49zM8.9 8.083l-.864-.874h-.764l.004-3.79h1.628z"/></svg>