<svg xmlns="http://www.w3.org/2000/svg" fill="none" viewBox="0 0 24 24"><path fill="#000" d="m12 0 12 12-12 12L0 12z"/><path fill="#9D852F" fill-rule="evenodd" d="m8.474 19.731 3.544 3.545 3.516-3.515.362.362L12.018 24l-3.906-3.907zM6.318 5.467h.023a.614.614 0 0 1 .591.614v.023a.614.614 0 0 1-.614.591h-.033a.6.6 0 0 1-.22-.055L.724 11.982l6.15 6.15.031-.008a.6.6 0 0 1 .13-.014h.023a.614.614 0 0 1 .591.614v.023a.614.614 0 0 1-.614.591h-.023a.614.614 0 0 1-.591-.614v-.031a.6.6 0 0 1 .06-.231L0 11.982l5.729-5.73-.009-.032a.614.614 0 0 1 .598-.753m11.364 0h.023a.614.614 0 0 1 .591.614v.03a.6.6 0 0 1-.034.17L24 12.019l-6.468 6.468.01.028a.6.6 0 0 1 .037.21v.022a.614.614 0 0 1-.614.591h-.023a.614.614 0 0 1-.591-.614v-.023a.614.614 0 0 1 .614-.591h.033a.6.6 0 0 1 .157.03l6.121-6.122-5.367-5.367-.027.01a.6.6 0 0 1-.2.034h-.023a.614.614 0 0 1 .023-1.228M11.982 0l4.682 4.682-.362.362-4.32-4.32-4.16 4.159-.361-.362z" clip-rule="evenodd"/><path fill="#9D852F" d="m5.872 9.396 1.175-1.328 2.4-.715h1.634v.256l-.562.357H8.681l.102.562z"/><path fill="#9D852F" fill-rule="evenodd" d="M8.017 6.791v.154h3.166l.204-.102 1.175.714-1.175.869.715.765.204.92.562.255-.357-1.328.255-.51.868.919 1.226.255-.511.409 1.123 1.276.817-.153 1.073-.715-.613-.664.664-.05-1.94-1.328-.307-.715-1.43-.102.562-1.124-3.166-.51-1.838.765zm5.77 1.686 1.217-.103v.409l.203.306-1.318-.51z" clip-rule="evenodd"/><path fill="#9D852F" d="m17.055 11.387-.766.256.409.714zM13.48 11.796l.256-.358.664 1.839-.868-1.124zM14.247 14.4l-.715-.766v.51l.715.665zM14.655 15.779l-2.757-2.656.817 4.545.817.817.102-1.532 1.277 1.379zM11.438 16.443l-.766-5.413-.919 3.83zM7.966 14.145l.664-.562.46.51.816-3.012-2.655 2.298zM10.775 9.753l-1.124.051-2.91 2.758-1.43-1.787L9.243 8.63h1.634z"/></svg>