<svg xmlns="http://www.w3.org/2000/svg" fill="none" viewBox="0 0 24 24"><g clip-path="url(#clip0_1325_982)"><path fill="#000" d="M1.793 6.158v11.684l10.114 5.836 10.119-5.836V6.158L11.906.322z"/><path fill="#EDE4C4" d="m8.216 6.441.792-.904 1.619-.489h1.1v.172l-.38.245H10.11l.072.382z"/><path fill="#EDE4C4" fill-rule="evenodd" d="M9.663 4.771H11.8l.138-.072.792.488-.792.588.484.522.138.627.38.172-.243-.905.17-.35.584.628.826.172-.347.277.76.866.55-.106.721-.488-.412-.45.445-.033-1.31-.904-.203-.488-.963-.072.38-.766-2.136-.35-1.239.522h-.859zm3.887 1.043.82-.072v.277l.137.211-.886-.35z" clip-rule="evenodd"/><path fill="#EDE4C4" d="m15.751 7.79-.517.171.275.488zM13.346 8.067l.17-.245.446 1.249-.583-.766zM13.863 9.836l-.484-.521v.35l.484.449zM14.139 10.774 12.278 8.97l.55 3.085.55.554.072-1.043.86.938zM11.97 11.223l-.518-3.678-.622 2.602zM9.63 9.664l.446-.382.308.35.55-2.048-1.788 1.559zM11.524 6.68l-.76.033-1.96 1.875-.963-1.215 2.648-1.46h1.1zM7.44 15.49c-.04.05-.11.072-.193.072H5.282v.92h-.677v-2.89h2.653a.26.26 0 0 1 .192.072.3.3 0 0 1 .072.2v1.426a.35.35 0 0 1-.083.2m-2.153-1.365v.91H6.84v-.91z"/><path fill="#EDE4C4" d="M7.258 13.592a.26.26 0 0 1 .192.072.3.3 0 0 1 .072.2v1.426a.27.27 0 0 1-.072.2c-.038.05-.11.072-.192.072H5.282v.92h-.677v-2.89zm-1.976 1.443h1.557v-.91H5.282zM10.665 16.477l-.231-.516H8.832l-.242.516h-.7v-.011l1.383-2.89h.72l1.382 2.89v.011zm-1.03-2.291-.572 1.265h1.145z"/><path fill="#EDE4C4" d="m9.994 13.592 1.381 2.89v.012h-.71l-.231-.516H8.832l-.242.516h-.7v-.017l1.383-2.89h.72zm-.93 1.859h1.144l-.572-1.265zM15.2 16.41a.25.25 0 0 1-.192.073h-2.587a.26.26 0 0 1-.192-.073.3.3 0 0 1-.072-.2v-2.34a.27.27 0 0 1 .072-.2c.038-.05.11-.072.192-.072h2.587a.26.26 0 0 1 .193.072c.05.05.072.11.072.2v.787h-.683v-.527h-1.734v1.809h1.734v-.555h.683v.816c-.006.088-.022.155-.072.21"/><path fill="#EDE4C4" d="M15.008 13.592a.26.26 0 0 1 .193.072c.05.05.072.111.072.2v.788h-.683v-.527h-1.734v1.809h1.734v-.555h.683v.815a.27.27 0 0 1-.072.2.25.25 0 0 1-.193.072h-2.587a.26.26 0 0 1-.192-.072.3.3 0 0 1-.072-.2v-2.341a.27.27 0 0 1 .072-.2c.038-.05.11-.072.192-.072h2.587zM18.328 16.477l-1.366-1.193v1.193h-.682v-2.885h.682v1.12l1.195-1.12h.864v.022l-1.503 1.365 1.712 1.487v.022h-.902z"/><path fill="#EDE4C4" d="M19.021 13.592v.022l-1.503 1.365 1.712 1.487v.022h-.902l-1.366-1.193v1.193h-.682v-2.896h.682v1.12l1.195-1.12z"/><path fill="#EDE4C4" d="m21.575 17.68-9.765 5.682-4.833-2.818-.275.482L11.81 24l10.178-5.92.138-.077v-4.538h-.55zM22.126 10.18V5.997L11.81 0 6.702 2.974l.275.482L11.816.644l9.76 5.68v3.862a.652.652 0 0 0 .274 1.243c.358 0 .65-.295.65-.655a.65.65 0 0 0-.374-.594M3.768 5.32c.11.084.237.14.385.14a.65.65 0 0 0 .65-.656.65.65 0 1 0-1.3 0c0 .012.006.017.006.028L1.5 5.997v12l2.015 1.193c0 .022-.011.039-.011.055a.649.649 0 1 0 1.3.006.653.653 0 0 0-.65-.655.6.6 0 0 0-.359.122L2.05 17.682V6.319z"/></g><defs><clipPath id="clip0_1325_982"><path fill="#fff" d="M0 0H24V24H0z"/></clipPath></defs></svg>