<svg xmlns="http://www.w3.org/2000/svg" fill="none" viewBox="0 0 16 16"><path fill="currentColor" d="M1.146 13.44a.5.5 0 0 0 0 .707l.706.707c.195.195.51.195.705 0L14.82 2.56a.5.5 0 0 0 0-.708l-.706-.707a.5.5 0 0 0-.705 0zm6.871-.47a6.7 6.7 0 0 1-1.303-.131l1.64-1.644a3.31 3.31 0 0 0 2.881-2.888l2.586-2.592C14.566 6.543 15 7.386 15 7.969c0 1.565-3.127 5-6.983 5ZM4.65 7.836a3.31 3.31 0 0 1 3.234-3.241l1.483-1.487a6.7 6.7 0 0 0-1.35-.139c-3.857 0-6.983 3.479-6.983 5 0 .576.448 1.433 1.214 2.275l2.403-2.408Z"/></svg>