<svg xmlns="http://www.w3.org/2000/svg" fill="none" viewBox="0 0 16 16"><path fill="currentColor" d="M10 13.358c0-.104.061-.197.154-.24 1.825-.845 3.096-2.732 3.096-4.923s-1.27-4.078-3.096-4.923a.27.27 0 0 1-.154-.24v-1.39c0-.171.161-.295.319-.238C13.045 2.388 15 5.057 15 8.195s-1.955 5.807-4.681 6.79c-.158.058-.319-.066-.319-.237zM1 8.176v2.158c0 .141.112.256.25.256h2.872c.066 0 .13.027.177.076l3.273 3.399c.157.163.428.049.428-.181V2.414c0-.23-.27-.344-.428-.181L4.3 5.631a.25.25 0 0 1-.177.077H1.25a.254.254 0 0 0-.25.257zM8.031 1h-.062z"/><path fill="currentColor" d="M10 10.655c0 .208.225.325.373.184A3.63 3.63 0 0 0 11.5 8.195a3.63 3.63 0 0 0-1.127-2.644c-.148-.141-.373-.024-.373.184z"/></svg>