<svg xmlns="http://www.w3.org/2000/svg" fill="none" viewBox="0 0 16 16"><path fill="currentColor" fill-rule="evenodd" d="M8.47 1.286a.53.53 0 0 0-.94 0L1.053 14.275c-.168.335.085.725.47.725h12.954c.385 0 .638-.39.47-.725zm.574 9.165c0 .28-.234.506-.522.506H7.478a.514.514 0 0 1-.522-.506V5.334c0-.28.234-.506.522-.506h1.044c.288 0 .522.227.522.506zm-2.088 3.033c0 .279.234.505.522.505h1.044a.514.514 0 0 0 .522-.505v-.885a.514.514 0 0 0-.522-.505H7.478a.514.514 0 0 0-.522.505z" clip-rule="evenodd"/></svg>