<svg xmlns="http://www.w3.org/2000/svg" fill="none" viewBox="0 0 16 16"><path fill="currentColor" d="M4.46 11.602H1.625V4.26a4.1 4.1 0 0 1 .766-2.42l.504-.748c.08-.107.215-.107.29 0l.53.748c.504.72.767 1.57.767 2.42l-.027 7.347zm4.936 0H6.561V4.26a4.1 4.1 0 0 1 .766-2.42l.531-.748c.08-.107.214-.107.29 0l.53.748c.504.72.766 1.57.766 2.42l-.053 7.347zm4.931 0h-2.835V4.26a4.1 4.1 0 0 1 .766-2.42l.53-.748c.081-.107.215-.107.29 0l.53.748c.504.72.767 1.57.767 2.42l-.054 7.347zm-9.84 1.731H1.625v1.678h2.862zm4.931 0H6.556v1.678h2.862zm4.93 0h-2.862v1.678h2.862z"/></svg>