<svg xmlns="http://www.w3.org/2000/svg" fill="none" viewBox="0 0 16 16"><path fill="currentColor" fill-rule="evenodd" d="M14.857 5.157s-.137-.98-.557-1.41c-.533-.566-1.13-.57-1.403-.602C10.94 3 8 3 8 3h-.005s-2.939 0-4.897.145c-.274.034-.87.036-1.403.602-.42.43-.555 1.41-.555 1.41S1 6.307 1 7.46v1.077a22 22 0 0 0 .14 2.303s.136.98.554 1.41c.533.567 1.233.548 1.546.609C4.36 12.967 8 13 8 13s2.943-.005 4.9-.148c.275-.032.87-.036 1.403-.602.421-.43.558-1.411.558-1.411S15 9.689 15 8.537V7.459c-.003-1.15-.142-2.302-.142-2.302ZM6.5 10V6.004l3.782 2.005z" clip-rule="evenodd"/></svg>