<svg xmlns="http://www.w3.org/2000/svg" fill="none" viewBox="0 0 16 16"><path fill="currentColor" d="M6.639 4.007a.5.5 0 0 0-.501.502v1.629h-1.63a.5.5 0 0 0-.5.5v.753a.5.5 0 0 0 .5.5h1.63v1.63a.5.5 0 0 0 .5.501h.753a.5.5 0 0 0 .5-.501V7.89h1.63a.5.5 0 0 0 .501-.5v-.752a.5.5 0 0 0-.501-.501H7.89v-1.63a.5.5 0 0 0-.5-.5h-.752Z"/><path fill="currentColor" fill-rule="evenodd" d="M7.015 13.03a6 6 0 0 0 3.485-1.112l2.935 2.935a.5.5 0 0 0 .71 0l.708-.709a.5.5 0 0 0 0-.709L11.918 10.5a6.015 6.015 0 1 0-4.903 2.53m0-1.755a4.26 4.26 0 1 0 0-8.52 4.26 4.26 0 0 0 0 8.52" clip-rule="evenodd"/></svg>