<svg xmlns="http://www.w3.org/2000/svg" xmlns:xlink="http://www.w3.org/1999/xlink" role="img" fill="none" viewBox="0 0 24 24" width="1em" height="1em" class="ItemWidget__icon SkuWidget__pack"><path fill="#CED1D2" d="M1 6.001V18l10.39 6 10.396-6.001V6L11.39 0 1 6.001z"></path><path fill="#ABAFB1" d="M11.39 0v11.997L1 18V6l10.39-6z"></path><path fill="#9C9FA1" d="M11.39 24L1 17.998l10.39-6 10.396 6L11.39 24z"></path><path fill="#000" d="M6.882 7.996a.413.413 0 00-.063-.108.327.327 0 00-.245-.091H3.747v3.112h.85v-.946h1.971c.114 0 .2-.035.245-.092a.345.345 0 00.092-.256V8.15a.405.405 0 00-.018-.12c0-.01-.005-.022-.005-.034zm-2.286.49h1.465v.793H4.596v-.793zm4.851-.7h-.838l-1.454 3.009-.005.114v.011h.843l.25-.53h1.568l.24.53h.78l.069-.011v-.086L9.458 7.826l-.011-.04zm-.901 1.92l.479-1.054.478 1.054h-.957zm6.138-1.898c-.005 0-.011-.011-.017-.011V7.78H11.92c-.114 0-.2.034-.245.091a.345.345 0 00-.091.256v2.423c0 .098.028.177.09.257a.327.327 0 00.246.091h2.679a.327.327 0 00.245-.09c.063-.064.091-.149.091-.269v-.912h-.85v.57h-1.652V8.481h1.653v.541h.849v-.877c0-.114-.029-.194-.091-.257-.046-.046-.103-.063-.16-.08zM17.3 9.284l1.516-1.367v-.12h-.992L16.69 8.85V7.797h-.849v3.106h.85v-1.14l1.31 1.14h1.037v-.125L17.3 9.284z"></path></svg>