<svg xmlns="http://www.w3.org/2000/svg" width="55" height="45" fill="none" viewBox="50.5 16.5 55 45"><path fill="currentColor" d="m83.629 47.778 2.923-3.128-.413-1.3q.76-.933 1.479-1.873C96.848 29.37 105 17.047 105 17.047L83.504 32.034l.13.686c.031.156.659 3.856-5.704 7.665l-.07.042-.07-.042c-6.361-3.81-5.734-7.51-5.708-7.649l.16-.705L51 17c.044.07 7.873 12.37 17.104 24.478q.71.931 1.464 1.858l-.4 1.316 2.922 3.129c-.456 1.143-1.798 3.538-4.906 7.686l-.049.066c-.598.798-4.4 5.461-4.403 5.467l4.845-2.505c.186-.094 4.566-2.336 10.285-7.502 5.72 5.166 10.1 7.408 10.285 7.502L92.593 61s-2.366-3.195-4.056-5.533c-1.69-2.336-4.452-6.545-4.907-7.69zm-6.247 2.26c-5.735 5.23-10.25 7.536-10.294 7.558l-.383.194.261-.332s.416-.528 1.019-1.331l.017-.022.015-.006.018-.038c3.776-5.04 5.684-8.439 5.236-9.324q-.105-.209-.415-.22a1.3 1.3 0 0 0-.503.093l-.062.022-.145-.158a69 69 0 0 1-1.319-1.493l-.493-.566.015-.048q.008-.026.017-.05l.015-.046.034-.108.014-.049.05-.014c.257-.075.534-.163.846-.268a76 76 0 0 1-2.376-2.954c-9.2-12.07-13.616-19.172-13.66-19.242l-.24-.39 16.02 11.216-.013.058c-.003.012-.24 1.127.4 2.749.591 1.5 2.074 3.756 5.781 5.976l.044.027.133 8.739-.03.028zm11.633 7.752-.383-.194c-.044-.022-4.56-2.33-10.296-7.557l-.03-.028v-.041l.133-8.698.044-.027c3.715-2.224 5.196-4.486 5.785-5.99.633-1.619.397-2.722.394-2.733l-.013-.059.052-.035 15.972-11.182-.241.39c-.044.07-4.457 7.172-13.66 19.242a74 74 0 0 1-2.378 2.954q.451.153.846.267l.048.015.015.047.022.066.013.046.016.047.015.048.015.049-.493.565c-.466.54-.897 1.03-1.317 1.492l-.145.158-.062-.022a1.4 1.4 0 0 0-.504-.094c-.209.008-.344.08-.414.22-.448.885 1.461 4.284 5.237 9.323l.018.038.016.006.016.022a76 76 0 0 0 1.019 1.332l.262.332zM72.728 46.334"/><path fill="currentColor" d="M72.776 46.333c.03 0 .058-.003.087 0h-.044l-.044.001z"/><path fill="currentColor" d="M71 35.42c-.513-1.31-.498-2.304-.453-2.748l-13.809-9.668c1.823 2.781 5.952 8.877 12.602 17.598a72 72 0 0 0 2.448 3.038l.087.103.262.308-.518.176q-.34.116-.633.207l.215.247c.438.51.846.974 1.246 1.415.133-.03.255-.045.375-.045h.055c.495.017.725.272.831.481.216.428.29 1.346-1.544 4.378-1.117 1.845-2.599 3.904-3.667 5.333 1.761-1.088 4.862-3.191 8.434-6.43l-.125-8.282c-3.7-2.26-5.197-4.566-5.803-6.112z"/><path fill="currentColor" d="M72.609 46.349a1 1 0 0 0-.082.018q.042-.01.082-.018M82.015 46.533c.106-.21.336-.463.831-.48h.056c.12 0 .242.014.375.045.396-.438.805-.902 1.245-1.413l.217-.248a25 25 0 0 1-.634-.208l-.13-.044-.387-.134.261-.307.087-.103c.85-1 1.673-2.021 2.448-3.038 6.65-8.722 10.78-14.817 12.602-17.597l-13.81 9.667c.045.445.06 1.439-.453 2.749-.606 1.546-2.104 3.853-5.803 6.112l-.125 8.282c3.572 3.239 6.674 5.341 8.436 6.43-1.069-1.43-2.55-3.49-3.668-5.335-1.834-3.032-1.76-3.951-1.545-4.377z"/><path fill="currentColor" d="M82.857 46.331h.088l-.043-.001h-.045zM83.065 46.343l-.073-.009a1 1 0 0 1 .073.01"/></svg>